<svg width="33.205212mm" height="27.225622mm" version="1.1" viewBox="0 0 33.205212 27.225622" xmlns="http://www.w3.org/2000/svg">
 <g transform="translate(-158.22083,-97.895828)" stroke-width=".264583">
  <path class="st1" d="m187.325 120.96749v1.32292c0 1.56104-1.27 2.83104-2.8575 2.83104h-23.38917c-1.56104 0-2.8575-1.27-2.8575-2.83104v-24.368123l6.82625 6.826253h0.05292c-0.0265 0.10583-0.0265 0.23812-0.0265 0.34395v6.40292c-1.16417 0-2.11667 0.9525-2.11667 2.11667 0 1.16416 0.9525 2.11666 2.11667 2.11666v2.64584c0 1.42875 1.16417 2.56646 2.56646 2.56646h19.685z" fill="#009fe3"/>
  <path class="st2" d="m184.4675 104.69562h-19.3675c-0.0265 0.10583-0.0265 0.23812-0.0265 0.34396v6.45583c1.16417 0 2.11667 0.9525 2.11667 2.11667 0 1.16416-0.9525 2.11666-2.11667 2.11666v2.64584c0 1.42875 1.16417 2.56646 2.56646 2.56646h19.685v-13.41438c0-1.53458-1.29646-2.83104-2.8575-2.83104zm-11.37708 11.03312c-0.74084 0-1.32292-0.58208-1.32292-1.32291 0-0.74084 0.58208-1.32292 1.32292-1.32292 0.74083 0 1.32291 0.58208 1.32291 1.32292 0 0.71437-0.58208 1.32291-1.32291 1.32291zm7.06437 0c-1.16417 0-2.11667-0.9525-2.11667-2.11666 0-1.16417 0.9525-2.11667 2.11667-2.11667s2.11667 0.9525 2.11667 2.11667c0 1.16416-0.9525 2.11666-2.11667 2.11666z" fill="#e6007e"/>
  <path class="st3" d="m191.42604 97.895828v20.478752c0 1.42875-1.16417 2.56646-2.56646 2.56646h-1.50812v-13.41438c0-1.56104-1.29646-2.8575-2.8575-2.8575h-19.3675c0.18521-1.24354 1.24354-2.2225 2.54-2.2225h18.36208z" fill="#fdc300"/>
 </g>
</svg>
