<?xml version="1.0" encoding="UTF-8"?>
<svg id="Capa_2" data-name="Capa 2" xmlns="http://www.w3.org/2000/svg" viewBox="0 0 140.22 140.22">
  <defs>
    <style>
      .cls-1 {
        fill: #339898;
      }

      .cls-1, .cls-2, .cls-3 {
        stroke-width: 0px;
      }

      .cls-2 {
        fill: #745ba3;
      }

      .cls-3 {
        fill: #fdc300;
      }
    </style>
  </defs>
  <g id="Capa_1-2" data-name="Capa 1">
    <g>
      <rect class="cls-1" width="140.22" height="140.22"/>
      <g>
        <g>
          <rect class="cls-3" x="67.06" y="60.01" width="6.37" height="27.46"/>
          <path class="cls-3" d="M73.24,95.24c-.8-.81-1.78-1.21-2.9-1.21s-2.09.41-2.9,1.21c-.8.8-1.21,1.78-1.21,2.9s.41,2.1,1.21,2.9c.81.81,1.78,1.21,2.9,1.21s2.1-.41,2.9-1.21c.81-.8,1.22-1.78,1.22-2.9s-.41-2.1-1.21-2.9Z"/>
        </g>
        <path class="cls-2" d="M70.11,23.96L16.82,116.26h106.59L70.11,23.96ZM29.96,108.67l40.15-69.54,40.15,69.54H29.96Z"/>
      </g>
    </g>
  </g>
</svg>