<?xml version="1.0" encoding="UTF-8"?>
<svg id="Capa_2" data-name="Capa 2" xmlns="http://www.w3.org/2000/svg" viewBox="0 0 296.62 111.85">
  <defs>
    <style>
      .cls-1 {
        fill: #fff;
        stroke-width: 0px;
      }
    </style>
  </defs>
  <g id="Capa_3" data-name="Capa 3">
    <g>
      <g>
        <path class="cls-1" d="M0,70.79h9.93l.08,6.51c1.99-4.53,5.96-7.15,10.96-7.15,5.56,0,9.61,2.7,11.43,7.3,2.38-4.61,6.51-7.3,11.83-7.3,7.86,0,12.55,5.48,12.55,13.82v26.76h-10.24v-24.3c0-4.53-2.06-7.23-6.03-7.23-4.53,0-6.99,2.78-6.99,8.65v22.87h-10.24v-24.3c0-4.53-2.06-7.23-6.03-7.23-4.53,0-6.99,2.78-6.99,8.65v22.87H0v-39.94Z"/>
        <path class="cls-1" d="M134.82,70.79v8.26h-10.88v16.99c0,4.37,2.14,6.11,6.59,6.11,1.35,0,3.18-.4,4.61-1.11v8.26c-1.59,1.27-4.84,1.91-7.62,1.91-9.21,0-13.82-4.92-13.82-12.94v-19.22h-5.4v-2.22l12.55-14.69h3.1v8.65h10.88Z"/>
        <path class="cls-1" d="M161.89,80.96c-4.84,0-8.18,2.54-8.18,10v19.77h-10.24v-39.94h9.69l.08,8.65c1.75-5.24,5-9.29,10.72-9.29,1.83,0,3.65.63,4.76,1.83l-1.91,10.24c-1.35-.79-3.18-1.27-4.92-1.27Z"/>
        <path class="cls-1" d="M217.23,79.13c-5.72,0-12.39,2.94-12.39,11.12,0,8.81,6.67,12.55,13.9,12.55,2.94,0,6.35-.95,8.65-2.46v9.05c-1.83,1.11-5.72,2.3-10.16,2.3-9.69,0-22.79-5.32-22.79-20.88,0-16.44,13.9-20.8,22.95-20.8,4.92,0,8.26,1.11,10.4,2.62l-2.38,8.81c-2.14-1.35-5-2.3-8.18-2.3Z"/>
        <path class="cls-1" d="M259.95,81.43c-3.02-2.14-6.75-2.94-9.61-2.94-4.13,0-6.11,1.27-6.11,3.41,0,1.59.71,2.38,3.73,3.57l6.35,2.54c5.8,2.3,8.97,5.16,8.97,10.96,0,8.02-6.27,12.86-15.96,12.86-4.45,0-9.77-1.11-12.31-3.49v-9.21c4.45,3.26,8.81,4.13,12.39,4.13,3.89,0,5.88-1.27,5.88-3.57,0-1.75-1.03-2.38-4.05-3.57l-6.51-2.54c-5.24-2.06-8.58-5-8.58-11.12,0-7.46,6.27-12.63,16.99-12.63,4.13,0,8.42,1.03,11.04,2.94l-2.22,8.65Z"/>
      </g>
      <g>
        <path class="cls-1" d="M58.05,16.43v24.2h-7.03v-21.21c0-3.51-.08-5.68-.33-7.69-.65-4.48-3.76-6.65-8.67-6.65-5.48,0-9.48,3.96-9.48,15.98v19.57h-7.03v-21.21c0-3.51-.08-5.68-.33-7.69-.65-4.48-3.76-6.65-8.67-6.65-5.48,0-9.48,3.96-9.48,15.98v19.57H0V1.05h7.03v5.75S8.9,0,18.97,0c6.62,0,10.87,3.06,12.51,7.39,0,0,1.75-7.39,13-7.39,7.77,0,12.18,4.18,13.16,9.63.33,2.02.41,3.59.41,6.8Z"/>
        <path class="cls-1" d="M106.94,22.78h-31.4c.65,10.46,6.05,13.97,12.43,13.97,5.64,0,10.22-3.21,11.2-8.89h7.36c-1.72,9.56-9.97,13.82-18.89,13.82-11.28,0-19.7-6.72-19.7-20.69,0-12.85,8.75-20.99,20.6-20.99s18.56,8.14,18.56,19.72c0,.6,0,1.64-.16,3.06ZM75.63,17.85h24.36c-.65-8.22-4.5-12.92-11.61-12.92s-11.94,4.48-12.75,12.92Z"/>
        <path class="cls-1" d="M157.47,20.84c0,11.13-6.79,20.84-21.5,20.84s-21.5-9.71-21.5-20.84S121.25,0,135.96,0s21.5,9.63,21.5,20.84ZM149.78,20.84c0-9.34-5.07-15.91-13.82-15.91s-13.82,6.57-13.82,15.91,5.07,15.91,13.82,15.91,13.82-6.65,13.82-15.91Z"/>
        <path class="cls-1" d="M211.68,40.63h-8.6l-9.65-33.31-9.65,33.31h-8.34L161.63,1.05h7.09l11.06,33.46L189.27,1.05h8.75l9.65,33.24L218.16,1.05h7.09l-13.56,39.58Z"/>
      </g>
      <path class="cls-1" d="M291.03,70.76c1.73,1,3.1,2.36,4.1,4.1,1,1.73,1.5,3.65,1.5,5.75s-.5,4.05-1.5,5.78c-1,1.73-2.37,3.1-4.11,4.11-1.74,1.01-3.67,1.51-5.77,1.51s-4.02-.5-5.77-1.51c-1.74-1.01-3.11-2.38-4.11-4.11-1-1.73-1.5-3.66-1.5-5.78s.5-4.04,1.5-5.77c1-1.72,2.36-3.08,4.1-4.08,1.73-1,3.66-1.5,5.78-1.5s4.05.5,5.78,1.5ZM290.27,89.29c1.5-.87,2.68-2.07,3.54-3.59.86-1.52,1.29-3.22,1.29-5.09s-.43-3.53-1.29-5.04c-.86-1.51-2.04-2.7-3.54-3.58-1.5-.87-3.18-1.31-5.03-1.31s-3.53.44-5.04,1.31c-1.51.87-2.7,2.06-3.56,3.58-.86,1.51-1.29,3.19-1.29,5.04s.43,3.57,1.29,5.09c.86,1.52,2.05,2.72,3.56,3.59,1.51.87,3.19,1.31,5.04,1.31s3.52-.44,5.03-1.31ZM289.12,83.22l2.46,4.13h-2.62l-2.52-4.32c-.25-.4-.53-.68-.82-.83-.29-.16-.67-.24-1.13-.24h-1.67v5.39h-2.33v-13.45h5.61c1.49,0,2.64.35,3.45,1.06.81.7,1.21,1.69,1.21,2.95,0,1.03-.3,1.89-.9,2.57-.6.68-1.44,1.11-2.54,1.28.69.19,1.29.68,1.8,1.48ZM287.8,79.61c.42-.35.63-.89.63-1.62,0-.78-.21-1.34-.63-1.69-.42-.35-1.08-.52-1.99-.52h-2.99v4.35h2.99c.9,0,1.56-.17,1.99-.52Z"/>
      <path class="cls-1" d="M84.32,110.73c-11.2,0-20.29-9.08-20.29-20.29,0-11.2,9.08-20.29,20.29-20.29,11.2,0,20.29,9.08,20.29,20.29h-20.29v20.29Z"/>
      <g>
        <polygon class="cls-1" points="180.59 69.84 172.89 83.17 188.28 83.17 180.59 69.84"/>
        <polygon class="cls-1" points="180.59 83.62 172.89 96.95 188.28 96.95 180.59 83.62"/>
        <polygon class="cls-1" points="180.59 97.4 172.89 110.73 188.28 110.73 180.59 97.4"/>
      </g>
    </g>
  </g>
</svg>