<?xml version="1.0" encoding="UTF-8"?>
<svg id="Capa_2" data-name="Capa 2" xmlns="http://www.w3.org/2000/svg" viewBox="0 0 544.92 111.17">
  <defs>
    <style>
      .cls-1 {
        fill: #fff;
        stroke-width: 0px;
      }
    </style>
  </defs>
  <g id="Capa_3" data-name="Capa 3">
    <g>
      <g>
        <g>
          <path class="cls-1" d="M245.06,8.73h10.01s.08,6.57.08,6.57c2-4.57,6.01-7.21,11.05-7.21,5.61,0,9.69,2.72,11.53,7.37,2.4-4.64,6.57-7.37,11.93-7.37,7.93,0,12.65,5.53,12.65,13.94v26.99s-10.33,0-10.33,0v-24.51c0-4.57-2.08-7.29-6.09-7.29-4.56,0-7.05,2.8-7.05,8.73v23.07s-10.33,0-10.33,0v-24.51c0-4.57-2.08-7.29-6.09-7.29-4.57,0-7.05,2.8-7.05,8.73v23.07s-10.33,0-10.33,0V8.73Z"/>
          <path class="cls-1" d="M334.44,50.06c-15.86,0-23.79-8.97-23.79-21.3,0-11.29,7.37-21.06,20.42-21.06,11.37,0,18.02,9.29,18.02,20.1,0,1.44-.08,3.44-.32,4.73h-27.39c1.28,5.69,5.85,8.81,14.18,8.81,4.48,0,9.05-1.36,11.69-3.28v9.05c-2.88,1.92-8.49,2.96-12.81,2.96ZM330.67,16.34c-5.21,0-8.57,3.44-9.45,8.97h17.78c-.64-5.45-3.68-8.97-8.33-8.97Z"/>
          <path class="cls-1" d="M381.04,8.73v8.33h-10.97s0,17.14,0,17.14c0,4.41,2.16,6.17,6.65,6.17,1.36,0,3.2-.4,4.65-1.12v8.33c-1.6,1.28-4.89,1.92-7.69,1.92-9.29,0-13.94-4.97-13.94-13.05v-19.38s-5.45,0-5.45,0v-2.24s12.65-14.82,12.65-14.82h3.12v8.73s10.97,0,10.97,0Z"/>
          <path class="cls-1" d="M408.35,18.98c-4.89,0-8.25,2.56-8.25,10.09v19.94s-10.33,0-10.33,0V8.73s9.77,0,9.77,0l.08,8.73c1.76-5.29,5.05-9.37,10.81-9.37,1.84,0,3.68.64,4.81,1.84l-1.92,10.33c-1.36-.8-3.2-1.28-4.97-1.28Z"/>
          <path class="cls-1" d="M422.04,8.73h10.33s0,40.28,0,40.28h-10.33s0-40.28,0-40.28Z"/>
          <path class="cls-1" d="M464.17,17.14c-5.77,0-12.49,2.96-12.49,11.21,0,8.89,6.73,12.65,14.02,12.65,2.96,0,6.41-.96,8.73-2.48v9.13c-1.84,1.12-5.77,2.32-10.25,2.32-9.77,0-22.99-5.37-22.99-21.06,0-16.58,14.02-20.98,23.15-20.98,4.97,0,8.33,1.12,10.49,2.64l-2.4,8.89c-2.16-1.36-5.05-2.32-8.25-2.32Z"/>
          <path class="cls-1" d="M507.25,19.46c-3.04-2.16-6.81-2.96-9.69-2.96-4.16,0-6.17,1.28-6.17,3.44,0,1.6.72,2.4,3.76,3.6l6.41,2.56c5.85,2.32,9.05,5.21,9.05,11.05,0,8.09-6.33,12.97-16.1,12.97-4.48,0-9.85-1.12-12.41-3.52v-9.29c4.48,3.28,8.89,4.16,12.49,4.16,3.92,0,5.93-1.28,5.93-3.6,0-1.76-1.04-2.4-4.08-3.6l-6.57-2.56c-5.29-2.08-8.65-5.05-8.65-11.21,0-7.53,6.33-12.73,17.14-12.73,4.16,0,8.49,1.04,11.13,2.96l-2.24,8.73Z"/>
        </g>
        <g>
          <path class="cls-1" d="M58.55,24.51v24.41s-7.09,0-7.09,0v-21.4c0-3.54-.08-5.73-.33-7.76-.66-4.52-3.79-6.7-8.74-6.7-5.53,0-9.57,3.99-9.57,16.12v19.74s-7.09,0-7.09,0v-21.4c0-3.54-.08-5.73-.33-7.76-.66-4.52-3.79-6.7-8.74-6.7-5.53,0-9.57,3.99-9.57,16.12v19.74s-7.09,0-7.09,0V8.99s7.09,0,7.09,0v5.8s1.89-6.86,12.04-6.86c6.68,0,10.97,3.09,12.62,7.46,0,0,1.77-7.46,13.11-7.46,7.83,0,12.29,4.22,13.28,9.72.33,2.03.41,3.62.41,6.86Z"/>
          <path class="cls-1" d="M107.86,30.91h-31.67c.66,10.55,6.1,14.09,12.53,14.09,5.69,0,10.31-3.24,11.3-8.97h7.42c-1.73,9.64-10.06,13.94-19.05,13.94-11.38,0-19.87-6.78-19.87-20.87,0-12.96,8.82-21.17,20.78-21.17,12.04,0,18.72,8.21,18.72,19.89,0,.6,0,1.66-.16,3.09ZM76.28,25.94h24.57c-.66-8.29-4.54-13.03-11.71-13.03-6.93,0-12.04,4.52-12.86,13.03Z"/>
          <path class="cls-1" d="M158.83,28.95c0,11.23-6.84,21.02-21.69,21.02-14.84,0-21.69-9.79-21.69-21.02,0-11.3,6.84-21.02,21.69-21.02,14.84,0,21.69,9.72,21.69,21.02ZM151.07,28.95c0-9.42-5.11-16.05-13.94-16.05-8.82,0-13.94,6.63-13.94,16.05,0,9.34,5.11,16.05,13.94,16.05s13.94-6.7,13.94-16.05Z"/>
          <path class="cls-1" d="M213.51,48.92h-8.67s-9.73-33.6-9.73-33.6l-9.73,33.6h-8.41s-13.94-39.93-13.94-39.93h7.15s11.16,33.75,11.16,33.75l9.57-33.75h8.82s9.73,33.52,9.73,33.52l10.58-33.52h7.15s-13.68,39.93-13.68,39.93Z"/>
        </g>
        <path class="cls-1" d="M539.28,9.23c1.75,1.01,3.13,2.38,4.13,4.13,1.01,1.75,1.51,3.68,1.51,5.8,0,2.14-.5,4.08-1.51,5.83-1.01,1.75-2.39,3.13-4.15,4.15-1.76,1.02-3.7,1.53-5.82,1.53s-4.06-.51-5.82-1.53c-1.76-1.02-3.14-2.4-4.15-4.15-1.01-1.75-1.51-3.69-1.51-5.83,0-2.14.5-4.08,1.51-5.82,1.01-1.74,2.38-3.11,4.13-4.12,1.75-1.01,3.69-1.51,5.83-1.51,2.14,0,4.08.5,5.83,1.51ZM538.52,27.91c1.51-.88,2.71-2.09,3.58-3.62.87-1.54,1.3-3.25,1.3-5.13,0-1.86-.43-3.56-1.3-5.09-.87-1.53-2.06-2.73-3.58-3.61-1.51-.88-3.2-1.32-5.07-1.32-1.86,0-3.56.44-5.09,1.32-1.53.88-2.72,2.08-3.59,3.61-.87,1.53-1.3,3.22-1.3,5.09,0,1.89.43,3.6,1.3,5.13.87,1.54,2.07,2.74,3.59,3.62,1.53.88,3.22,1.32,5.09,1.32,1.86,0,3.55-.44,5.07-1.32ZM537.36,21.8l2.48,4.16h-2.64s-2.54-4.35-2.54-4.35c-.25-.4-.53-.68-.83-.84-.3-.16-.68-.24-1.14-.24h-1.68s0,5.43,0,5.43h-2.35v-13.57h5.66c1.5,0,2.66.35,3.48,1.06.82.71,1.22,1.7,1.22,2.97,0,1.04-.3,1.9-.91,2.59-.6.69-1.46,1.12-2.56,1.29.7.19,1.3.69,1.81,1.49ZM536.02,18.16c.42-.35.64-.9.64-1.64,0-.78-.21-1.35-.64-1.7-.42-.35-1.09-.52-2-.52h-3.02s0,4.39,0,4.39h3.02c.91,0,1.58-.17,2-.52Z"/>
      </g>
      <g>
        <g>
          <rect class="cls-1" x="99.57" y="76.95" width="6.15" height="6.15" transform="translate(-26.52 96.02) rotate(-45)"/>
          <rect class="cls-1" x="108.29" y="76.95" width="6.15" height="6.15" transform="translate(-23.97 102.18) rotate(-45)"/>
          <rect class="cls-1" x="117" y="76.95" width="6.15" height="6.15" transform="translate(-21.41 108.35) rotate(-45)"/>
          <rect class="cls-1" x="125.72" y="76.95" width="6.15" height="6.15" transform="translate(-18.86 114.51) rotate(-45)"/>
          <rect class="cls-1" x="99.57" y="85.69" width="6.15" height="6.15" transform="translate(-32.7 98.58) rotate(-45)"/>
          <rect class="cls-1" x="108.29" y="85.69" width="6.15" height="6.15" transform="translate(-30.15 104.74) rotate(-45)"/>
          <rect class="cls-1" x="117" y="85.69" width="6.15" height="6.15" transform="translate(-27.59 110.91) rotate(-45)"/>
          <rect class="cls-1" x="125.72" y="85.69" width="6.15" height="6.15" transform="translate(-25.04 117.07) rotate(-45)"/>
          <rect class="cls-1" x="99.57" y="94.43" width="6.15" height="6.15" transform="translate(-38.88 101.14) rotate(-45)"/>
          <rect class="cls-1" x="108.29" y="94.43" width="6.15" height="6.15" transform="translate(-36.33 107.3) rotate(-45)"/>
          <rect class="cls-1" x="117" y="94.43" width="6.15" height="6.15" transform="translate(-33.77 113.47) rotate(-45)"/>
          <rect class="cls-1" x="125.72" y="94.43" width="6.15" height="6.15" transform="translate(-31.22 119.63) rotate(-45)"/>
          <rect class="cls-1" x="99.57" y="103.17" width="6.15" height="6.15" transform="translate(-45.06 103.7) rotate(-45)"/>
          <rect class="cls-1" x="108.29" y="103.17" width="6.15" height="6.15" transform="translate(-42.51 109.86) rotate(-45)"/>
          <rect class="cls-1" x="117" y="103.17" width="6.15" height="6.15" transform="translate(-39.95 116.03) rotate(-45)"/>
          <rect class="cls-1" x="125.72" y="103.17" width="6.15" height="6.15" transform="translate(-37.4 122.19) rotate(-45)"/>
        </g>
        <polygon class="cls-1" points="305.2 92.35 292.82 92.35 304.22 87.54 303.62 86.11 292.34 90.87 301 82.22 299.9 81.12 291.15 89.87 295.81 78.4 294.37 77.82 289.76 89.16 289.76 76.92 288.21 76.92 288.21 89.29 283.4 77.89 281.96 78.5 286.72 89.77 278.07 81.12 276.97 82.22 285.72 90.97 274.26 86.31 273.67 87.74 285.01 92.35 272.77 92.35 272.77 93.91 285.14 93.91 273.74 98.72 274.35 100.15 285.62 95.39 276.97 104.05 278.07 105.14 286.82 96.39 282.16 107.86 283.6 108.44 288.21 97.1 288.21 109.34 289.76 109.34 289.76 96.97 294.57 108.37 296 107.77 291.24 96.49 299.9 105.14 301 104.05 292.25 95.3 303.71 99.96 304.29 98.52 292.96 93.91 305.2 93.91 305.2 92.35"/>
        <g>
          <path class="cls-1" d="M171.52,100.59s-1.8,7.02-6.3,3.78c-5.02-3.62,6.3-13.32,6.3-13.32v9.54Z"/>
          <path class="cls-1" d="M171.45,100.59s1.8,7.02,6.3,3.78c5.02-3.62-6.3-13.32-6.3-13.32v9.54Z"/>
          <ellipse class="cls-1" cx="161.66" cy="91.66" rx="2.62" ry="3.54"/>
          <ellipse class="cls-1" cx="167.28" cy="84.58" rx="2.62" ry="3.54"/>
          <ellipse class="cls-1" cx="175.15" cy="84.58" rx="2.62" ry="3.54"/>
          <ellipse class="cls-1" cx="181.66" cy="91.66" rx="2.62" ry="3.54"/>
        </g>
        <g>
          <rect class="cls-1" x="381.82" y="75.09" width="29.71" height="11.74" rx="1.21" ry="1.21"/>
          <polygon class="cls-1" points="385.62 85.74 385.62 90.59 389.72 85.74 385.62 85.74"/>
          <rect class="cls-1" x="381.82" y="95.67" width="29.71" height="11.74" rx="1.21" ry="1.21" transform="translate(793.34 203.08) rotate(180)"/>
          <polygon class="cls-1" points="407.73 106.32 407.73 111.17 403.62 106.32 407.73 106.32"/>
        </g>
        <g>
          <rect class="cls-1" x="193.92" y="90.14" width="34.92" height="5.98" rx=".62" ry=".62" transform="translate(118.25 304.51) rotate(-90)"/>
          <rect class="cls-1" x="226.28" y="91.6" width="31.99" height="5.98" rx=".62" ry=".62" transform="translate(147.69 336.87) rotate(-90)"/>
          <rect class="cls-1" x="209.19" y="95.11" width="24.98" height="5.98" rx=".62" ry=".62" transform="translate(319.78 -123.58) rotate(90)"/>
          <rect class="cls-1" x="223.9" y="99.52" width="16.16" height="5.98" rx=".62" ry=".62" transform="translate(334.49 -129.47) rotate(90)"/>
        </g>
        <path class="cls-1" d="M348.98,76.3c-.17-.51-.79-.69-1.21-.37-.86.66-2.35,1.89-4.13,3.84-.98-.41-2.06-.63-3.18-.65-1.2-.01-2.35.21-3.39.64-1.78-1.95-3.26-3.18-4.12-3.84-.42-.32-1.04-.13-1.21.37-1.7,4.96-.03,12.74.04,13.07,0,0,0,.01,0,.01.08.45.2.89.35,1.32l.1.26,6.77,18.57c.47,1.28,2.27,1.28,2.74,0l6.77-18.57.1-.26c.15-.43.27-.87.35-1.32,0,0,0,0,0-.01.07-.32,1.74-8.1.04-13.07ZM340.36,90.44c-1.49,0-2.7-1.21-2.7-2.7s1.21-2.7,2.7-2.7,2.7,1.21,2.7,2.7-1.21,2.7-2.7,2.7Z"/>
      </g>
    </g>
  </g>
</svg>