<?xml version="1.0" encoding="UTF-8"?>
<svg id="Capa_2" data-name="Capa 2" xmlns="http://www.w3.org/2000/svg" viewBox="0 0 140.22 140.22">
  <defs>
    <style>
      .cls-1 {
        fill: #eb5d40;
      }

      .cls-1, .cls-2, .cls-3 {
        stroke-width: 0px;
      }

      .cls-2 {
        fill: #745ba3;
      }

      .cls-3 {
        fill: #fdc300;
      }
    </style>
  </defs>
  <g id="Capa_1-2" data-name="Capa 1">
    <g>
      <rect class="cls-3" width="140.22" height="140.22"/>
      <g>
        <path class="cls-1" d="M86.43,101.47c-5.46,3.44-10.57,5.93-15.08,8.12-6.76,3.29-12.09,5.89-14.74,9.85-1.72,2.58-3.73,7.54-1.52,20.77h-13.07c-.21-1.48-.38-2.9-.51-4.28-.41-4.32-.4-8.15.04-11.58.61-4.89,2.09-8.97,4.45-12.5,4.62-6.92,11.68-10.36,19.86-14.34,4.42-2.15,8.99-4.38,13.87-7.45,11.09-6.98,13.09-17,11.26-24.04-2.32-8.95-10.56-14.66-21.48-14.9-4.28-.1-8.58,1.06-12.22,3.28-.31.19-.61.38-.91.58-3.53,2.38-6.07,5.57-7.18,8.97-.18.56-.32,1.11-.41,1.65-1.01,5.74,2.77,10.01,6.3,12.65,2.89,2.16,3.53,6.34,1.44,9.32-2.09,2.99-6.12,3.65-9.01,1.49-5.2-3.9-8.75-8.56-10.54-13.85-1.69-4.99-1.69-10.36-.02-15.52,2.87-8.85,10.16-15.94,19.17-19.48,4.03-1.59,8.41-2.46,12.9-2.46.25,0,.5,0,.76.01,5.96.13,11.52,1.43,16.38,3.81,2.03.99,3.95,2.17,5.72,3.53,2.24,1.72,4.21,3.68,5.89,5.86,2.64,3.4,4.56,7.31,5.67,11.58.26.99.47,1.99.63,2.98h0c2.27,13.78-4.43,27.63-17.65,35.94Z"/>
        <path class="cls-2" d="M86.19,42.99c-.09.89-.44,1.82-1.19,2.29-.57.36-1.29.41-1.97.34-3.58-.37-6.65-3.55-10.21-3.05-2.12.3-3.95,1.9-6.09,1.94-2.34.05-4.25-1.72-6.3-2.85-1.4-.7-2.83-1.17-4.3-1.44,4.03-1.59,8.41-2.46,12.9-2.46.25,0,.5,0,.76.01,5.96.13,11.52,1.43,16.38,3.81.06.47.07.94.03,1.41Z"/>
        <path class="cls-2" d="M57.28,54.4c-.31.19-.61.38-.91.58-3.53,2.38-6.07,5.57-7.18,8.97-.18.56-.32,1.11-.41,1.65-.25-.09-.49-.19-.72-.31-2.03-1.07-3.22-3.45-3.1-5.75.13-2.29,1.46-4.44,3.33-5.78.56-.4,1.18-.75,1.84-.92.62-.16,1.26-.18,1.9-.15,1.76.07,3.71.64,5.24,1.71Z"/>
        <path class="cls-2" d="M104.08,65.53h0c-.28,2.15-.82,4.28-1.49,6.3-.24.72-.53,1.48-1.16,1.88-.45.29-1.01.34-1.54.33-1.41-.03-2.93-.6-3.56-1.86-.47-.94-.36-2.05-.24-3.09.25-2.25.41-4.68-.74-6.63-.77-1.3-2.02-2.22-3.09-3.28-1.08-1.05-2.05-2.41-1.97-3.91.18-3.49,3.3-5.35,6.66-4.55.29.07.57.15.84.26,2.64,3.4,4.56,7.31,5.67,11.58.26.99.47,1.99.63,2.98Z"/>
        <path class="cls-2" d="M47.37,133.4c-.32.61-.8,1.12-1.34,1.54-.92.71-2.04,1.2-3.21,1.21-.44,0-.89-.07-1.31-.21-.41-4.32-.4-8.15.04-11.58.34-.08.71-.11,1.1-.11.8,0,1.63.02,2.35.36,1.48.69,2.07,2.45,2.44,4.04.37,1.58.67,3.32-.08,4.76Z"/>
        <path class="cls-2" d="M71.66,99.57c-1.28,1.34-2.1,3.29-3.85,3.9-.68.24-1.41.23-2.13.29-1.97.16-3.89.84-5.53,1.95-.7.48-1.4,1.11-1.5,1.96-.06.53.13,1.06.44,1.5.76,1.08,2.15,1.58,3.47,1.59s2.61-.4,3.87-.8c2.18-.7,4.49-1.48,5.92-3.26.86-1.07,1.4-2.47,2.6-3.13.92-.5,2.03-.45,3.07-.47,2.83-.06,4.72-2.7,2.07-4.61-2.41-1.73-6.5-.95-8.43,1.08Z"/>
      </g>
    </g>
  </g>
</svg>