<?xml version="1.0" encoding="UTF-8"?>
<svg id="Capa_2" data-name="Capa 2" xmlns="http://www.w3.org/2000/svg" viewBox="0 0 140.22 140.22">
  <defs>
    <style>
      .cls-1 {
        fill: #339898;
      }

      .cls-1, .cls-2, .cls-3 {
        stroke-width: 0px;
      }

      .cls-2 {
        fill: #745ba3;
      }

      .cls-3 {
        fill: #e6007e;
      }
    </style>
  </defs>
  <g id="Capa_1-2" data-name="Capa 1">
    <g>
      <rect class="cls-1" width="140.22" height="140.22"/>
      <g>
        <g>
          <path class="cls-3" d="M69.79,64.74s3.95-15.38,13.81-8.28c10.99,7.92-13.81,29.17-13.81,29.17"/>
          <path class="cls-3" d="M69.96,64.74s-3.95-15.38-13.81-8.28c-10.99,7.92,13.81,29.17,13.81,29.17"/>
        </g>
        <g>
          <rect class="cls-2" x="27.76" y="28.7" width="3.4" height="26.81" transform="translate(-21.73 46.56) rotate(-60)"/>
          <rect class="cls-2" x="25.98" y="82.58" width="3.4" height="26.81" transform="translate(-41.6 167.94) rotate(-120)"/>
          <rect class="cls-2" x="25.03" y="55.64" width="3.4" height="26.81" transform="translate(-42.31 95.77) rotate(-90)"/>
          <rect class="cls-2" x="109.06" y="28.7" width="3.4" height="26.81" transform="translate(129.68 159.07) rotate(-120)"/>
          <rect class="cls-2" x="110.84" y="82.58" width="3.4" height="26.81" transform="translate(-26.85 145.45) rotate(-60)"/>
          <rect class="cls-2" x="111.78" y="55.64" width="3.4" height="26.81" transform="translate(44.45 182.53) rotate(-90)"/>
        </g>
      </g>
    </g>
  </g>
</svg>