<?xml version="1.0" encoding="UTF-8"?>
<svg id="Capa_2" data-name="Capa 2" xmlns="http://www.w3.org/2000/svg" viewBox="0 0 475.49 107.25">
  <defs>
    <style>
      .cls-1 {
        fill: #1d1d1b;
      }

      .cls-1, .cls-2, .cls-3, .cls-4 {
        stroke-width: 0px;
      }

      .cls-2 {
        fill: #009fe3;
      }

      .cls-3 {
        fill: #fdc300;
      }

      .cls-4 {
        fill: #e6007e;
      }
    </style>
  </defs>
  <g id="Capa_1-2" data-name="Capa 1">
    <g>
      <g>
        <g>
          <path class="cls-1" d="M191.06,67.89h9.52l.08,6.24c1.9-4.34,5.71-6.85,10.51-6.85,5.33,0,9.21,2.59,10.96,7,2.28-4.42,6.24-7,11.34-7,7.54,0,12.03,5.25,12.03,13.25v25.66h-9.82v-23.3c0-4.34-1.98-6.93-5.79-6.93-4.34,0-6.7,2.67-6.7,8.3v21.93h-9.82v-23.3c0-4.34-1.98-6.93-5.79-6.93-4.34,0-6.7,2.67-6.7,8.3v21.93h-9.82v-38.3Z"/>
          <path class="cls-1" d="M276.02,107.17c-15.08,0-22.61-8.53-22.61-20.25,0-10.74,7-20.02,19.42-20.02,10.81,0,17.13,8.83,17.13,19.11,0,1.37-.08,3.27-.3,4.49h-26.04c1.22,5.41,5.56,8.38,13.48,8.38,4.26,0,8.6-1.29,11.12-3.12v8.6c-2.74,1.83-8.07,2.82-12.18,2.82ZM272.45,75.12c-4.95,0-8.15,3.27-8.98,8.53h16.9c-.61-5.18-3.5-8.53-7.92-8.53Z"/>
          <path class="cls-1" d="M320.33,67.89v7.92h-10.43v16.29c0,4.19,2.06,5.86,6.32,5.86,1.29,0,3.05-.38,4.42-1.07v7.92c-1.52,1.22-4.64,1.83-7.31,1.83-8.83,0-13.25-4.72-13.25-12.41v-18.43h-5.18v-2.13l12.03-14.09h2.97v8.3h10.43Z"/>
          <path class="cls-1" d="M346.3,77.63c-4.64,0-7.84,2.44-7.84,9.59v18.96h-9.82v-38.3h9.29l.08,8.3c1.68-5.03,4.8-8.91,10.28-8.91,1.75,0,3.5.61,4.57,1.75l-1.83,9.82c-1.29-.76-3.05-1.22-4.72-1.22Z"/>
          <path class="cls-1" d="M359.31,67.89h9.82v38.3h-9.82v-38.3Z"/>
          <path class="cls-1" d="M399.36,75.88c-5.48,0-11.88,2.82-11.88,10.66,0,8.45,6.4,12.03,13.32,12.03,2.82,0,6.09-.91,8.3-2.36v8.68c-1.75,1.07-5.48,2.21-9.75,2.21-9.29,0-21.85-5.1-21.85-20.02,0-15.76,13.32-19.95,22-19.95,4.72,0,7.92,1.07,9.97,2.51l-2.28,8.45c-2.06-1.29-4.8-2.21-7.84-2.21Z"/>
          <path class="cls-1" d="M440.32,78.09c-2.89-2.06-6.47-2.82-9.21-2.82-3.96,0-5.86,1.22-5.86,3.27,0,1.52.69,2.28,3.58,3.43l6.09,2.44c5.56,2.21,8.6,4.95,8.6,10.51,0,7.69-6.02,12.33-15.3,12.33-4.26,0-9.37-1.07-11.8-3.35v-8.83c4.26,3.12,8.45,3.96,11.88,3.96,3.73,0,5.63-1.22,5.63-3.43,0-1.68-.99-2.28-3.88-3.43l-6.24-2.44c-5.03-1.98-8.22-4.8-8.22-10.66,0-7.16,6.02-12.11,16.29-12.11,3.96,0,8.07.99,10.58,2.82l-2.13,8.3Z"/>
        </g>
        <g>
          <path class="cls-1" d="M246.72,15.76v23.2h-6.74v-20.34c0-3.37-.08-5.44-.31-7.38-.63-4.3-3.61-6.37-8.31-6.37-5.25,0-9.09,3.8-9.09,15.33v18.76h-6.74v-20.34c0-3.37-.08-5.44-.31-7.38-.63-4.3-3.61-6.37-8.31-6.37-5.25,0-9.09,3.8-9.09,15.33v18.76h-6.74V1h6.74v5.51s1.8-6.52,11.45-6.52c6.35,0,10.43,2.94,12,7.09,0,0,1.68-7.09,12.47-7.09,7.45,0,11.68,4.01,12.62,9.24.31,1.93.39,3.44.39,6.52Z"/>
          <path class="cls-1" d="M293.6,21.84h-30.11c.63,10.03,5.8,13.39,11.92,13.39,5.41,0,9.8-3.08,10.74-8.52h7.06c-1.65,9.17-9.56,13.25-18.11,13.25-10.82,0-18.89-6.45-18.89-19.84,0-12.32,8.39-20.13,19.76-20.13s17.8,7.81,17.8,18.91c0,.57,0,1.58-.16,2.94ZM263.57,17.12h23.36c-.63-7.88-4.31-12.39-11.13-12.39s-11.45,4.3-12.23,12.39Z"/>
          <path class="cls-1" d="M342.05,19.98c0,10.67-6.51,19.98-20.62,19.98s-20.62-9.31-20.62-19.98,6.51-19.98,20.62-19.98,20.62,9.24,20.62,19.98ZM334.68,19.98c0-8.95-4.86-15.26-13.25-15.26s-13.25,6.3-13.25,15.26,4.86,15.26,13.25,15.26,13.25-6.37,13.25-15.26Z"/>
          <path class="cls-1" d="M394.04,38.96h-8.24l-9.25-31.94-9.25,31.94h-8l-13.25-37.96h6.8l10.61,32.09,9.09-32.09h8.39l9.25,31.87,10.06-31.87h6.8l-13,37.96Z"/>
        </g>
        <path class="cls-1" d="M470.13,67.85c1.66.96,2.97,2.27,3.93,3.93.96,1.66,1.44,3.5,1.44,5.51s-.48,3.88-1.44,5.54c-.96,1.66-2.27,2.98-3.94,3.94-1.67.97-3.52,1.45-5.53,1.45s-3.86-.48-5.53-1.45c-1.67-.97-2.99-2.28-3.94-3.94-.96-1.66-1.44-3.51-1.44-5.54s.48-3.88,1.44-5.53c.96-1.65,2.27-2.96,3.93-3.91,1.66-.96,3.51-1.44,5.54-1.44s3.88.48,5.54,1.44ZM469.4,85.62c1.44-.84,2.57-1.98,3.4-3.44.83-1.46,1.24-3.09,1.24-4.88s-.41-3.38-1.24-4.83c-.83-1.45-1.96-2.59-3.4-3.43-1.44-.84-3.05-1.25-4.82-1.25s-3.38.42-4.83,1.25c-1.45.84-2.59,1.98-3.41,3.43-.83,1.45-1.24,3.06-1.24,4.83s.41,3.42,1.24,4.88c.83,1.46,1.96,2.61,3.41,3.44,1.45.84,3.06,1.25,4.83,1.25s3.38-.42,4.82-1.25ZM468.3,79.8l2.36,3.96h-2.51l-2.42-4.14c-.24-.38-.5-.65-.79-.8-.28-.15-.65-.23-1.09-.23h-1.6v5.17h-2.24v-12.9h5.38c1.43,0,2.53.34,3.31,1.01.78.67,1.16,1.62,1.16,2.83,0,.99-.29,1.81-.86,2.46-.57.65-1.38,1.06-2.43,1.22.66.18,1.24.65,1.72,1.42ZM467.03,76.34c.4-.33.6-.85.6-1.56,0-.75-.2-1.28-.6-1.62-.4-.33-1.04-.5-1.9-.5h-2.87v4.17h2.87c.87,0,1.5-.17,1.9-.5Z"/>
      </g>
      <g>
        <path class="cls-2" d="M109.97,87.54v4.95c0,5.9-4.84,10.75-10.77,10.75H10.77c-5.92,0-10.77-4.84-10.77-10.75V.34l25.76,25.76h.22c-.07.43-.11.9-.11,1.35v24.35c-4.4,0-7.97,3.57-7.97,7.97s3.57,7.97,7.97,7.97v10.07c0,5.36,4.38,9.74,9.74,9.74h74.35Z"/>
        <path class="cls-4" d="M99.2,26.11H25.98c-.07.43-.11.9-.11,1.35v24.35c4.4,0,7.97,3.57,7.97,7.97s-3.57,7.97-7.97,7.97v10.07c0,5.36,4.38,9.74,9.74,9.74h74.35v-50.67c0-5.9-4.84-10.77-10.77-10.77ZM56.18,67.73c-2.76,0-5.01-2.24-5.01-5.01s2.24-5.02,5.01-5.02,5.01,2.24,5.01,5.02-2.24,5.01-5.01,5.01ZM82.89,67.73c-4.4,0-7.97-3.57-7.97-7.97s3.57-7.97,7.97-7.97,7.97,3.57,7.97,7.97-3.57,7.97-7.97,7.97Z"/>
        <path class="cls-3" d="M125.44.35v77.45c0,5.36-4.39,9.73-9.75,9.73h-5.73v-50.66c0-5.92-4.85-10.77-10.77-10.77H25.97c.66-4.74,4.74-8.41,9.64-8.41h69.41L125.44.35Z"/>
      </g>
    </g>
  </g>
</svg>