<?xml version="1.0" encoding="UTF-8"?>
<svg id="Capa_2" data-name="Capa 2" xmlns="http://www.w3.org/2000/svg" viewBox="0 0 334.88 126.27">
  <defs>
    <style>
      .cls-1 {
        fill: #1d1d1b;
        stroke-width: 0px;
      }
    </style>
  </defs>
  <g id="Capa_1-2" data-name="Capa 1">
    <g>
      <g>
        <path class="cls-1" d="M0,79.93h11.21l.09,7.35c2.24-5.11,6.72-8.07,12.37-8.07,6.28,0,10.85,3.05,12.91,8.25,2.69-5.2,7.35-8.25,13.36-8.25,8.88,0,14.16,6.19,14.16,15.6v30.21h-11.56v-27.43c0-5.11-2.33-8.16-6.81-8.16-5.11,0-7.89,3.14-7.89,9.77v25.82h-11.56v-27.43c0-5.11-2.33-8.16-6.81-8.16-5.11,0-7.89,3.14-7.89,9.77v25.82H0v-45.09Z"/>
        <path class="cls-1" d="M100.04,126.18c-17.75,0-26.62-10.04-26.62-23.85,0-12.64,8.25-23.58,22.86-23.58,12.73,0,20.17,10.4,20.17,22.5,0,1.61-.09,3.85-.36,5.29h-30.66c1.43,6.36,6.54,9.86,15.87,9.86,5.02,0,10.13-1.52,13.09-3.68v10.13c-3.23,2.15-9.5,3.32-14.34,3.32ZM95.83,88.44c-5.83,0-9.59,3.85-10.58,10.04h19.9c-.72-6.1-4.12-10.04-9.32-10.04Z"/>
        <path class="cls-1" d="M152.21,79.93v9.32h-12.28v19.18c0,4.93,2.42,6.9,7.44,6.9,1.52,0,3.59-.45,5.2-1.25v9.32c-1.79,1.43-5.47,2.15-8.61,2.15-10.4,0-15.6-5.56-15.6-14.61v-21.69h-6.1v-2.51l14.16-16.58h3.5v9.77h12.28Z"/>
        <path class="cls-1" d="M182.78,91.4c-5.47,0-9.23,2.87-9.23,11.3v22.32h-11.56v-45.09h10.94l.09,9.77c1.97-5.92,5.65-10.49,12.1-10.49,2.06,0,4.12.72,5.38,2.06l-2.15,11.56c-1.52-.9-3.59-1.43-5.56-1.43Z"/>
        <path class="cls-1" d="M198.1,79.93h11.56v45.09h-11.56v-45.09Z"/>
        <path class="cls-1" d="M245.26,89.34c-6.45,0-13.98,3.32-13.98,12.55,0,9.95,7.53,14.16,15.69,14.16,3.32,0,7.17-1.08,9.77-2.78v10.22c-2.06,1.25-6.45,2.6-11.47,2.6-10.94,0-25.73-6.01-25.73-23.58,0-18.56,15.69-23.49,25.91-23.49,5.56,0,9.32,1.26,11.74,2.96l-2.69,9.95c-2.42-1.52-5.65-2.6-9.23-2.6Z"/>
        <path class="cls-1" d="M293.48,91.94c-3.41-2.42-7.62-3.32-10.85-3.32-4.66,0-6.9,1.43-6.9,3.85,0,1.79.81,2.69,4.21,4.03l7.17,2.87c6.54,2.6,10.13,5.83,10.13,12.37,0,9.05-7.08,14.52-18.02,14.52-5.02,0-11.03-1.25-13.9-3.94v-10.4c5.02,3.68,9.95,4.66,13.98,4.66,4.39,0,6.63-1.43,6.63-4.03,0-1.97-1.17-2.69-4.57-4.03l-7.35-2.87c-5.92-2.33-9.68-5.65-9.68-12.55,0-8.43,7.08-14.25,19.18-14.25,4.66,0,9.5,1.17,12.46,3.32l-2.51,9.77Z"/>
      </g>
      <g>
        <path class="cls-1" d="M65.54,18.55v27.32h-7.94v-23.95c0-3.96-.09-6.41-.37-8.69-.74-5.06-4.25-7.51-9.78-7.51-6.18,0-10.71,4.47-10.71,18.05v22.09h-7.94v-23.95c0-3.96-.09-6.41-.37-8.69-.74-5.06-4.25-7.51-9.78-7.51-6.18,0-10.71,4.47-10.71,18.05v22.09H0V1.18h7.94v6.49S10.05,0,21.41,0c7.48,0,12.28,3.46,14.12,8.35,0,0,1.98-8.35,14.68-8.35,8.77,0,13.75,4.72,14.86,10.88.37,2.28.46,4.05.46,7.67Z"/>
        <path class="cls-1" d="M120.73,25.72h-35.45c.74,11.81,6.83,15.77,14.03,15.77,6.37,0,11.54-3.63,12.65-10.03h8.31c-1.94,10.79-11.26,15.6-21.32,15.6-12.74,0-22.25-7.59-22.25-23.36,0-14.5,9.88-23.7,23.26-23.7s20.95,9.19,20.95,22.26c0,.67,0,1.85-.18,3.46ZM85.38,20.15h27.51c-.74-9.28-5.08-14.59-13.11-14.59s-13.48,5.06-14.4,14.59Z"/>
        <path class="cls-1" d="M177.78,23.53c0,12.56-7.66,23.53-24.28,23.53s-24.28-10.96-24.28-23.53S136.89,0,153.5,0s24.28,10.88,24.28,23.53ZM169.1,23.53c0-10.54-5.72-17.96-15.6-17.96s-15.6,7.42-15.6,17.96,5.72,17.96,15.6,17.96,15.6-7.51,15.6-17.96Z"/>
        <path class="cls-1" d="M238.99,45.87h-9.71l-10.89-37.61-10.89,37.61h-9.42L182.49,1.18h8l12.49,37.78L213.69,1.18h9.88l10.89,37.52L246.3,1.18h8l-15.31,44.69Z"/>
      </g>
      <path class="cls-1" d="M328.57,79.89c1.96,1.13,3.5,2.67,4.62,4.62,1.13,1.96,1.69,4.12,1.69,6.49s-.56,4.57-1.69,6.53c-1.13,1.96-2.67,3.5-4.64,4.64-1.97,1.14-4.14,1.71-6.51,1.71s-4.54-.57-6.51-1.71c-1.97-1.14-3.52-2.69-4.64-4.64-1.13-1.96-1.69-4.13-1.69-6.53s.56-4.57,1.69-6.51c1.13-1.94,2.67-3.48,4.62-4.61,1.96-1.13,4.13-1.69,6.53-1.69s4.57.56,6.53,1.69ZM327.71,100.8c1.7-.98,3.03-2.34,4-4.06.97-1.72,1.46-3.63,1.46-5.74s-.49-3.98-1.46-5.69c-.97-1.71-2.31-3.05-4-4.04-1.7-.98-3.59-1.48-5.67-1.48s-3.98.49-5.69,1.48c-1.71.98-3.05,2.33-4.02,4.04-.97,1.71-1.46,3.61-1.46,5.69s.49,4.03,1.46,5.74c.97,1.72,2.31,3.07,4.02,4.06,1.71.98,3.6,1.48,5.69,1.48s3.98-.49,5.67-1.48ZM326.42,93.96l2.77,4.66h-2.95l-2.85-4.87c-.28-.45-.59-.76-.92-.94-.33-.18-.76-.27-1.28-.27h-1.89v6.08h-2.63v-15.19h6.33c1.68,0,2.98.4,3.9,1.19.91.79,1.37,1.9,1.37,3.33,0,1.16-.34,2.13-1.01,2.9-.68.77-1.63,1.25-2.86,1.44.78.21,1.46.77,2.03,1.67ZM324.92,89.88c.47-.39.71-1,.71-1.83,0-.88-.24-1.51-.71-1.9-.47-.39-1.22-.59-2.24-.59h-3.38v4.91h3.38c1.02,0,1.77-.2,2.24-.59Z"/>
    </g>
  </g>
</svg>