<?xml version="1.0" encoding="UTF-8"?>
<svg id="Capa_2" data-name="Capa 2" xmlns="http://www.w3.org/2000/svg" xmlns:xlink="http://www.w3.org/1999/xlink" viewBox="0 0 204 222">
  <defs>
    <style>
      .cls-1 {
        fill: url(#Degradado_sin_nombre_47);
      }

      .cls-1, .cls-2, .cls-3, .cls-4 {
        stroke-width: 0px;
      }

      .cls-2 {
        fill: #e3e2e2;
        filter: url(#drop-shadow-1);
      }

      .cls-3 {
        fill: url(#Degradado_sin_nombre_47-2);
      }

      .cls-4 {
        fill: #fdc300;
      }
    </style>
    <filter id="drop-shadow-1" filterUnits="userSpaceOnUse">
      <feOffset dx="7" dy="7"/>
      <feGaussianBlur result="blur" stdDeviation="5"/>
      <feFlood flood-color="#000" flood-opacity=".2"/>
      <feComposite in2="blur" operator="in"/>
      <feComposite in="SourceGraphic"/>
    </filter>
    <linearGradient id="Degradado_sin_nombre_47" data-name="Degradado sin nombre 47" x1="58.58" y1="96.01" x2="82.1" y2="96.01" gradientUnits="userSpaceOnUse">
      <stop offset="0" stop-color="#fd9d00"/>
      <stop offset="1" stop-color="#fdc300"/>
    </linearGradient>
    <linearGradient id="Degradado_sin_nombre_47-2" data-name="Degradado sin nombre 47" x1="108.86" y1="84.83" x2="134.32" y2="124.84" xlink:href="#Degradado_sin_nombre_47"/>
  </defs>
  <g id="Capa_4" data-name="Capa 4">
    <path class="cls-2" d="M181.44,29.44v148.57c0,11.84-11.57,21.44-25.84,21.44H34.49c-14.28,0-25.84-9.6-25.84-21.44V29.44c0-11.85,11.56-21.44,25.84-21.44h121.11c14.26,0,25.84,9.59,25.84,21.44Z"/>
    <g>
      <path class="cls-4" d="M181.44,152.79v12.12c-.49.03-.96.03-1.44.03-9.46,0-18.68-1.88-26.41-7.87-5.12-3.95-8.69-9.11-11.65-13.64-3.37-5.18-6.55-10.51-9.49-15.98,0,0,0-.02-.02-.05-2.83-5.21-5.42-10.53-7.81-15.93l-.79-1.78c-3.3-7.52-6.39-14.61-12.07-18.32-.97-.62-2.02-1.12-3.11-1.5h-.01c-5.5-1.88-12.24-.58-16.36,3.49-1.81,1.81-3.42,4.24-5.12,6.82-3.6,5.48-7.69,11.68-15.34,13.85-11.68,3.3-22.4-5.77-27.43-15.6-2.79-5.47-4.5-11.18-6.15-16.71-.88-2.95-1.7-5.71-2.67-8.43-3.08-8.58-7.21-14.26-12.27-16.94-3.87-2.04-8.78-2.58-14.63-1.66v-12.26c7.72-.93,14.51.14,20.28,3.16,7.84,4.12,13.91,12.06,18.06,23.59,1.08,3.02,1.99,6.09,2.89,9.05,1.56,5.22,3.04,10.18,5.33,14.66.9,1.75,2.05,3.46,3.37,4.94,2.92,3.27,6.61,5.42,9.92,4.5,3.31-.94,5.71-4.6,8.51-8.84,1.55-2.37,3.16-4.78,5.1-7.03.5-.59,1.03-1.15,1.59-1.72,9.08-9.02,24-10.54,34.69-3.55,8.72,5.7,12.9,15.22,16.57,23.62l.76,1.75c4.63,10.46,10.15,20.64,16.39,30.23,2.41,3.69,5.29,7.87,8.9,10.66,5.54,4.28,12.7,5.54,20.43,5.33Z"/>
      <path class="cls-1" d="M82.1,86.48c-5.92,7.37-6.87,19.06-13.52,19.06-7.84,0-10.01-7.67-10.01-7.67v-.02c2.92,3.27,6.61,5.42,9.92,4.5,3.31-.94,5.71-4.6,8.51-8.84,1.55-2.37,3.16-4.78,5.1-7.03Z"/>
      <path class="cls-3" d="M132.42,127.41c-2.83-5.21-5.42-10.53-7.81-15.93l-.79-1.78c-3.3-7.52-6.39-14.61-12.07-18.32-.97-.62-2.02-1.12-3.11-1.5.43.03,9.22.76,13.75,11.18,4.5,10.34,9.72,25.43,10.04,26.35Z"/>
    </g>
  </g>
</svg>