<?xml version="1.0" encoding="UTF-8"?>
<svg id="Capa_2" data-name="Capa 2" xmlns="http://www.w3.org/2000/svg" xmlns:xlink="http://www.w3.org/1999/xlink" viewBox="0 0 204 222">
  <defs>
    <style>
      .cls-1 {
        fill: url(#Degradado_sin_nombre_16);
      }

      .cls-1, .cls-2, .cls-3, .cls-4, .cls-5, .cls-6 {
        stroke-width: 0px;
      }

      .cls-2 {
        fill: #e3e2e2;
        filter: url(#drop-shadow-1);
      }

      .cls-3 {
        fill: #009fe3;
      }

      .cls-4 {
        fill: url(#Degradado_sin_nombre_16-2);
      }

      .cls-5 {
        fill: url(#Degradado_sin_nombre_16-3);
      }

      .cls-6 {
        fill: url(#Degradado_sin_nombre_16-4);
      }
    </style>
    <filter id="drop-shadow-1" filterUnits="userSpaceOnUse">
      <feOffset dx="7" dy="7"/>
      <feGaussianBlur result="blur" stdDeviation="5"/>
      <feFlood flood-color="#000" flood-opacity=".2"/>
      <feComposite in2="blur" operator="in"/>
      <feComposite in="SourceGraphic"/>
    </filter>
    <linearGradient id="Degradado_sin_nombre_16" data-name="Degradado sin nombre 16" x1="45.46" y1="120.51" x2="55.53" y2="122.22" gradientUnits="userSpaceOnUse">
      <stop offset="0" stop-color="#1d70b7"/>
      <stop offset="1" stop-color="#009fe3" stop-opacity="0"/>
    </linearGradient>
    <linearGradient id="Degradado_sin_nombre_16-2" data-name="Degradado sin nombre 16" x1="37.83" y1="114.5" x2="26.58" y2="107.54" xlink:href="#Degradado_sin_nombre_16"/>
    <linearGradient id="Degradado_sin_nombre_16-3" data-name="Degradado sin nombre 16" x1="111.19" y1="86.98" x2="102.19" y2="76.06" xlink:href="#Degradado_sin_nombre_16"/>
    <linearGradient id="Degradado_sin_nombre_16-4" data-name="Degradado sin nombre 16" x1="113.37" y1="98.12" x2="128.25" y2="112.25" xlink:href="#Degradado_sin_nombre_16"/>
  </defs>
  <g id="Capa_4" data-name="Capa 4">
    <path class="cls-2" d="M181.58,28.49v151.46c0,11.04-11.56,20-25.82,20H34.63c-14.26,0-25.84-8.96-25.84-20V28.49c0-11.04,11.57-19.99,25.84-19.99h121.13c14.26,0,25.82,8.95,25.82,19.99Z"/>
    <g>
      <path class="cls-3" d="M176.24,110.45c-7.25.42-14.74.86-22.07.79-9.28-.08-16.98-2.33-23.02-5.61-5.86-3.17-10.16-7.3-12.85-11.34,4.36-5.98,7.82-12.62,10.19-19.58,3.48-10.26,4.48-21.01,2.89-31.09-1.58-10.02-6.62-16.67-13.84-18.25-9.55-2.09-17.68,5.4-21.21,19.55-2.09,8.39-2.29,17.13-.61,26.08.55,2.95,1.31,5.92,2.27,8.91,1.64,5.09,3.63,9.5,5.54,13.16-5.86,6.19-13.02,11.3-21.29,15.18-7.54,3.55-15.68,5.93-24.2,7.09-.49.07-.99.13-1.49.19-2.51.3-5.57.56-8.54.29.04-.14.08-.28.11-.42,0,0,0,0,0,0,2.92-10.85,3.17-19.49.73-25.71-2.04-5.21-5.92-8.7-11.22-10.08-6.69-1.74-13.71,1.06-17.07,6.81-2.57,4.41-3.17,10.01-1.73,16.2.37,1.59.86,3.15,1.45,4.67h0c1.52,3.88,3.76,7.48,6.6,10.59,1.8,1.97,3.79,3.69,5.92,5.11-2.89,7.37-6.23,13.67-8.59,17.35-4.49,7-9.52,13.73-15.04,20.12v17.92l.12-.12c9.52-9.63,17.98-20.18,25.15-31.37,3.39-5.28,6.84-12.27,9.62-19.35,5.06.9,10.03.52,13.92.06h.05c10.34-1.25,20.22-4.06,29.37-8.36,8.62-4.05,16.24-9.27,22.69-15.54,4.26,5.46,9.96,10.01,16.7,13.36.4.2.8.39,1.21.58,7.88,3.67,16.88,5.65,26.04,5.74,7.73.07,15.43-.38,22.89-.81,1.54-.09,3.08-.18,4.64-.26v-12.18c-1.79.1-3.58.2-5.34.31ZM36.8,110.66c-2.93-2.83-5.14-6.61-6.11-10.79-.13-.54-.23-1.07-.3-1.58-.34-2.37-.11-4.37.69-5.73.47-.8,1.52-1.29,2.61-1.29.3,0,.6.04.9.11,1.26.33,2.25.92,2.96,2.75,1.33,3.39,1.04,9.26-.74,16.53ZM111.78,82.12c-.78-1.83-1.54-3.81-2.22-5.92-1.01-3.13-1.74-6.22-2.21-9.27-1.01-6.58-.75-12.96.77-19.06.89-3.58,2.28-6.77,3.8-8.77,1.24-1.62,2.07-1.91,2.59-1.91.17,0,.31.03.42.05,1.9.42,3.73,3.82,4.43,8.27,1.28,8.15.46,16.89-2.39,25.3-1.33,3.92-3.08,7.72-5.19,11.3Z"/>
      <path class="cls-3" d="M48.13,115.42c-.04.14-.07.28-.11.42.03-.15.07-.28.11-.42Z"/>
      <path class="cls-1" d="M58.05,115.36v12.26h-.05c-3.89.47-8.86.85-13.92-.05,0,0,3-7.13,3.94-11.73,2.98.28,6.03.01,8.54-.29.5-.06.99-.12,1.49-.19Z"/>
      <path class="cls-4" d="M36.8,110.66c-1.23,5.33-3.99,12.35-3.99,12.35-2.13-1.43-4.12-3.14-5.92-5.11-2.84-3.11-5.07-6.71-6.6-10.59h0c1.8-7.58,6.99-8.92,10.09-9.01.07.51.17,1.04.3,1.58.97,4.18,3.18,7.96,6.11,10.79Z"/>
      <path class="cls-5" d="M111.78,82.12s-4.13,6.99-8.24,10.97c-1.91-3.66-3.91-8.08-5.54-13.16-.96-2.99-1.72-5.96-2.27-8.91,2.63-2.29,6.36-3.94,11.64-4.08.46,3.05,1.2,6.14,2.21,9.27.68,2.11,1.44,4.09,2.22,5.92Z"/>
      <path class="cls-6" d="M131.15,105.64c-.46,3.99-1.66,8.22-4.33,11.44-6.75-3.35-12.44-7.91-16.7-13.36,0,0,5.38-5.28,8.19-9.42,2.69,4.04,6.99,8.17,12.85,11.34Z"/>
    </g>
  </g>
</svg>