<?xml version="1.0" encoding="UTF-8"?>
<svg id="Capa_2" data-name="Capa 2" xmlns="http://www.w3.org/2000/svg" xmlns:xlink="http://www.w3.org/1999/xlink" viewBox="0 0 203 222">
  <defs>
    <style>
      .cls-1 {
        fill: url(#Degradado_sin_nombre_21);
      }

      .cls-1, .cls-2, .cls-3, .cls-4 {
        stroke-width: 0px;
      }

      .cls-2 {
        fill: #e3e2e2;
        filter: url(#drop-shadow-1);
      }

      .cls-3 {
        fill: url(#Degradado_sin_nombre_21-2);
      }

      .cls-4 {
        fill: #745ba3;
      }
    </style>
    <filter id="drop-shadow-1" filterUnits="userSpaceOnUse">
      <feOffset dx="7" dy="7"/>
      <feGaussianBlur result="blur" stdDeviation="5"/>
      <feFlood flood-color="#000" flood-opacity=".2"/>
      <feComposite in2="blur" operator="in"/>
      <feComposite in="SourceGraphic"/>
    </filter>
    <linearGradient id="Degradado_sin_nombre_21" data-name="Degradado sin nombre 21" x1="79.92" y1="97.96" x2="58.63" y2="114.99" gradientUnits="userSpaceOnUse">
      <stop offset="0" stop-color="#29235c"/>
      <stop offset="1" stop-color="#745ba3" stop-opacity="0"/>
    </linearGradient>
    <linearGradient id="Degradado_sin_nombre_21-2" data-name="Degradado sin nombre 21" x1="34.9" y1="79.01" x2="5.18" y2="102.79" xlink:href="#Degradado_sin_nombre_21"/>
  </defs>
  <g id="Capa_4" data-name="Capa 4">
    <path class="cls-2" d="M180.97,28.49v151.46c0,11.04-11.56,20-25.82,20H34.02c-14.26,0-25.84-8.96-25.84-20V28.49c0-11.04,11.57-19.99,25.84-19.99h121.13c14.26,0,25.82,8.95,25.82,19.99Z"/>
    <g>
      <path class="cls-4" d="M172.95,45.06c-5.05-.29-9.89.76-13.99,3.04-9.36,5.21-15.61,20.16-22.85,37.47-4.77,11.41-9.69,23.2-15.38,31.6-3.36,4.96-8.57,11.42-15.09,10.36-1.94-.31-4.49-1.27-6.98-5.92-2.18-4.07-3.59-9.6-4.83-14.48-2.19-8.63-4.26-16.77-11.28-19.03-1.65-.53-4.3-.91-7.55.3-1.97.74-3.97,1.97-6.12,3.78-9.06,7.62-12.11,7.91-12.99,7.69-.6-.15-2.02-1.45-3.53-5.34-.3-.77-.66-1.89-1.09-3.19-2.71-8.29-7.76-23.72-21.28-24.76-3.15-.24-8.21.43-15.77,9.02-2.05,2.33-4.08,4.98-6.05,7.69v23.36c1.83-2.33,3.87-5.31,6.02-8.43,2.86-4.16,6.1-8.88,9.17-12.55,3.51-4.21,5.37-5.31,5.93-5.58,4.36.82,7.57,10.66,9.14,15.45.49,1.48.9,2.77,1.34,3.88,2.94,7.56,7.23,12.11,12.76,13.52,1.53.39,3.1.54,4.72.43h0c2.74-.17,5.63-1.06,8.73-2.67,3.32-1.73,6.89-4.25,11.57-8.19.26-.22.49-.4.7-.56.87,2.17,1.81,5.85,2.48,8.51,1.43,5.63,3.05,12.02,6.01,17.53,3.96,7.38,9.58,11.71,16.71,12.87,1.25.2,2.49.31,3.72.31,4.49,0,8.83-1.36,12.94-4.06,4.14-2.72,7.99-6.77,11.78-12.37,6.44-9.51,11.63-21.94,16.65-33.96,5.2-12.45,11.68-27.94,16.95-30.88,3.82-2.12,9.3-1.81,14.29.82.39.21.78.42,1.16.65v-14.77c-2.63-.86-5.34-1.38-8.02-1.54Z"/>
      <path class="cls-1" d="M78.27,101.94c-.21.16-.44.34-.7.56-4.68,3.94-8.25,6.47-11.57,8.19-3.1,1.61-5.99,2.5-8.73,2.67,12.47-4.96,14.64-11.97,18.22-13.27,1.78-.65,2.78,1.84,2.78,1.84Z"/>
      <path class="cls-3" d="M29.31,80.07c-.56.26-2.42,1.37-5.93,5.58-3.07,3.68-6.31,8.39-9.17,12.55-2.15,3.12-4.2,6.1-6.02,8.43v-4.8c4.26-5.87,13.76-18.79,15.81-20.35,2.66-2.03,5.31-1.42,5.31-1.42Z"/>
    </g>
  </g>
</svg>