<?xml version="1.0" encoding="UTF-8"?>
<svg id="Capa_2" data-name="Capa 2" xmlns="http://www.w3.org/2000/svg" viewBox="0 0 109.53 109.53">
  <defs>
    <style>
      .cls-1 {
        fill: #e2e1e1;
      }

      .cls-1, .cls-2, .cls-3, .cls-4 {
        stroke-width: 0px;
      }

      .cls-2 {
        fill: #009fe3;
      }

      .cls-3 {
        fill: #fdc300;
      }

      .cls-4 {
        fill: #e6007e;
      }
    </style>
  </defs>
  <g id="Capa_4" data-name="Capa 4">
    <g>
      <circle class="cls-1" cx="54.76" cy="54.76" r="54.76"/>
      <g>
        <path class="cls-2" d="M77.52,68.25v2.1c0,2.51-2.05,4.55-4.56,4.55h-37.45c-2.5,0-4.56-2.05-4.56-4.55V31.33l10.91,10.91h.09c-.03.19-.04.38-.04.57v10.31c-1.86,0-3.37,1.51-3.37,3.37s1.51,3.37,3.37,3.37v4.26c0,2.27,1.86,4.12,4.13,4.12h31.48Z"/>
        <path class="cls-4" d="M72.96,42.24h-31.01c-.03.19-.04.38-.04.57v10.31h0c1.86,0,3.37,1.51,3.37,3.37s-1.51,3.37-3.37,3.37h0v4.26c0,2.27,1.86,4.12,4.13,4.12h31.48v-21.45c0-2.5-2.05-4.56-4.56-4.56ZM54.74,59.86c-1.17,0-2.12-.95-2.12-2.12s.95-2.12,2.12-2.12,2.12.95,2.12,2.12-.95,2.12-2.12,2.12ZM66.05,59.86c-1.86,0-3.37-1.51-3.37-3.37s1.51-3.37,3.37-3.37,3.37,1.51,3.37,3.37-1.51,3.37-3.37,3.37Z"/>
        <path class="cls-3" d="M84.07,31.33v32.79c0,2.27-1.86,4.12-4.13,4.12h-2.42v-21.45c0-2.5-2.05-4.56-4.56-4.56h-31.01c.28-2,2-3.56,4.08-3.56h29.39l8.64-7.35Z"/>
      </g>
    </g>
  </g>
</svg>