<?xml version="1.0" encoding="UTF-8"?>
<svg id="Capa_2" data-name="Capa 2" xmlns="http://www.w3.org/2000/svg" xmlns:xlink="http://www.w3.org/1999/xlink" viewBox="0 0 1018 780.15">
  <defs>
    <style>
      .cls-1 {
        fill: url(#Degradado_sin_nombre_5);
        opacity: .14;
      }

      .cls-1, .cls-2, .cls-3, .cls-4, .cls-5, .cls-6, .cls-7, .cls-8, .cls-9, .cls-10, .cls-11 {
        stroke-width: 0px;
      }

      .cls-2 {
        fill: #e3e2e2;
      }

      .cls-3 {
        fill: #1d1d1b;
      }

      .cls-4 {
        fill: #009fe3;
      }

      .cls-5 {
        fill: #000;
      }

      .cls-6 {
        fill: #161616;
      }

      .cls-7 {
        opacity: .25;
      }

      .cls-7, .cls-11 {
        fill: #fff;
      }

      .cls-8 {
        fill: #fdc300;
      }

      .cls-9 {
        fill: #1f1f6b;
      }

      .cls-10 {
        fill: #e6007e;
      }
    </style>
    <linearGradient id="Degradado_sin_nombre_5" data-name="Degradado sin nombre 5" x1="539.37" y1="340.41" x2="452.53" y2="514.1" gradientUnits="userSpaceOnUse">
      <stop offset="0" stop-color="#e3e2e2"/>
      <stop offset="1" stop-color="#000"/>
    </linearGradient>
  </defs>
  <g id="Capa_1-2" data-name="Capa 1">
    <g>
      <g>
        <g>
          <path class="cls-2" d="M583.47,201.75v506.45c0,37.62-30.5,68.11-68.12,68.11h-156.63c-37.63,0-68.12-30.5-68.12-68.11V201.75c0-37.62,30.5-68.11,68.12-68.11h156.63c37.63,0,68.12,30.5,68.12,68.11Z"/>
          <path class="cls-6" d="M515.34,780.15h-156.63c-39.68,0-71.96-32.28-71.96-71.95V201.75c0-39.67,32.28-71.95,71.96-71.95h156.63c39.68,0,71.96,32.28,71.96,71.95v506.45c0,39.67-32.28,71.95-71.96,71.95ZM358.72,137.47c-35.45,0-64.28,28.83-64.28,64.27v506.45c0,35.44,28.84,64.27,64.28,64.27h156.63c35.45,0,64.28-28.83,64.28-64.27V201.75c0-35.44-28.84-64.27-64.28-64.27h-156.63Z"/>
        </g>
        <path class="cls-6" d="M514.85,133.63v10.28c0,14.01-11.35,25.36-25.35,25.36h-104.92c-14,0-25.35-11.35-25.35-25.36v-10.28h155.63Z"/>
      </g>
      <g>
        <g>
          <path class="cls-3" d="M350.04,714.26c-1.92,0-3.41.97-4.27,2.64-.66-1.67-2.12-2.64-4.13-2.64-1.8,0-3.24.94-3.95,2.58l-.03-2.35h-3.59v14.41h3.7v-8.25c0-2.12.88-3.13,2.52-3.13,1.43,0,2.18.98,2.18,2.61v8.77h3.69v-8.25c0-2.12.89-3.13,2.52-3.13,1.43,0,2.18.98,2.18,2.61v8.77h3.69v-9.66c0-3-1.69-4.98-4.53-4.98Z"/>
          <path class="cls-3" d="M371.32,721.32c0-3.88-2.38-7.2-6.45-7.2-4.67,0-7.31,3.49-7.31,7.53,0,4.41,2.84,7.63,8.51,7.63,1.54,0,3.56-.37,4.59-1.06v-3.24c-.94.69-2.58,1.17-4.18,1.17-2.98,0-4.62-1.11-5.08-3.15h9.81c.09-.46.12-1.18.12-1.69ZM361.34,720.42c.32-1.98,1.53-3.21,3.39-3.21,1.66,0,2.75,1.27,2.97,3.21h-6.36Z"/>
          <path class="cls-3" d="M381.2,725.82c-1.6,0-2.38-.63-2.38-2.21v-6.14h3.93v-2.97h-3.93v-3.13h-1.11l-4.53,5.31v.8h1.95v6.94c0,2.9,1.66,4.67,4.99,4.67,1,0,2.18-.23,2.75-.69v-2.97c-.52.26-1.18.4-1.67.4Z"/>
          <path class="cls-3" d="M393.27,714.26c-2.06,0-3.24,1.46-3.87,3.35l-.03-3.12h-3.5v14.41h3.7v-7.14c0-2.69,1.2-3.61,2.95-3.61.63,0,1.3.17,1.78.46l.68-3.7c-.4-.42-1.06-.65-1.72-.65Z"/>
          <path class="cls-3" d="M397.43,714.49v14.41h3.69v-14.41h-3.69Z"/>
          <path class="cls-3" d="M408.03,721.51c0-2.95,2.41-4.01,4.47-4.01,1.15,0,2.18.35,2.96.83l.86-3.19c-.78-.54-1.98-.94-3.76-.94-3.26,0-8.28,1.57-8.28,7.5,0,5.62,4.73,7.54,8.22,7.54,1.61,0,3.01-.43,3.68-.83v-3.26c-.83.55-2.06.89-3.13.89-2.61,0-5.02-1.35-5.02-4.54Z"/>
          <path class="cls-3" d="M425.89,720.71l-2.29-.92c-1.08-.43-1.34-.71-1.34-1.29,0-.78.72-1.24,2.21-1.24,1.04,0,2.38.29,3.47,1.07l.8-3.13c-.94-.68-2.49-1.06-3.98-1.06-3.87,0-6.13,1.86-6.13,4.56,0,2.21,1.2,3.26,3.09,4.01l2.35.92c1.09.42,1.47.65,1.47,1.29,0,.83-.72,1.29-2.12,1.29-1.3,0-2.87-.31-4.47-1.49v3.33c.91.85,2.83,1.26,4.44,1.26,3.49,0,5.76-1.75,5.76-4.64,0-2.09-1.14-3.13-3.24-3.95Z"/>
        </g>
        <g>
          <path class="cls-3" d="M354.89,692.41c-.36-1.98-1.95-3.48-4.75-3.48-4.06,0-4.69,2.67-4.69,2.67-.59-1.56-2.13-2.67-4.52-2.67-3.64,0-4.31,2.46-4.31,2.46v-2.08h-2.54v14.3h2.54v-7.07c0-4.34,1.45-5.77,3.43-5.77,1.77,0,2.89.79,3.13,2.4.09.73.12,1.52.12,2.78v7.66h2.54v-7.07c0-4.34,1.44-5.77,3.42-5.77,1.78,0,2.9.79,3.13,2.4.1.73.12,1.52.12,2.78v7.66h2.53v-8.74c0-1.16-.03-1.73-.14-2.45Z"/>
          <path class="cls-3" d="M372.75,696.05c0-4.18-2.39-7.12-6.7-7.12s-7.45,2.94-7.45,7.58c0,5.04,3.04,7.47,7.12,7.47,3.21,0,6.2-1.54,6.81-4.99h-2.65c-.36,2.05-2.02,3.21-4.05,3.21-2.3,0-4.25-1.28-4.48-5.05h11.33c.06-.51.06-.89.06-1.1ZM361.39,695.38c.29-3.05,2.12-4.67,4.6-4.67s3.96,1.71,4.19,4.67h-8.79Z"/>
          <path class="cls-3" d="M383.17,688.93c-5.32,0-7.76,3.48-7.76,7.52s2.45,7.52,7.76,7.52,7.76-3.5,7.76-7.52-2.46-7.52-7.76-7.52ZM383.17,702.2c-3.16,0-4.99-2.41-4.99-5.75s1.83-5.75,4.99-5.75,4.99,2.38,4.99,5.75-1.83,5.75-4.99,5.75Z"/>
          <path class="cls-3" d="M412.84,689.3l-3.79,12-3.48-12h-3.16l-3.42,12.08-4-12.08h-2.55l4.98,14.3h3.01l3.48-12.03,3.48,12.03h3.11l4.89-14.3h-2.56Z"/>
        </g>
        <path class="cls-3" d="M438.46,718.97c-.18-.29-.39-.47-.64-.54.39-.06.69-.21.91-.46.22-.24.33-.56.33-.92,0-.46-.14-.82-.44-1.07-.29-.26-.71-.38-1.25-.38h-2.02v4.86h.84v-1.94h.6c.16,0,.3.03.41.09.11.05.2.15.29.3l.91,1.55h.95l-.89-1.49ZM437.27,717.86h-1.08v-1.57h1.08c.33,0,.57.07.71.19.15.12.23.33.23.6s-.08.46-.23.59c-.14.12-.38.19-.71.19ZM438.46,718.97c-.18-.29-.39-.47-.64-.54.39-.06.69-.21.91-.46.22-.24.33-.56.33-.92,0-.46-.14-.82-.44-1.07-.29-.26-.71-.38-1.25-.38h-2.02v4.86h.84v-1.94h.6c.16,0,.3.03.41.09.11.05.2.15.29.3l.91,1.55h.95l-.89-1.49ZM437.27,717.86h-1.08v-1.57h1.08c.33,0,.57.07.71.19.15.12.23.33.23.6s-.08.46-.23.59c-.14.12-.38.19-.71.19ZM440.63,715.95c-.36-.62-.85-1.11-1.48-1.48-.62-.36-1.32-.54-2.09-.54s-1.46.18-2.08.54c-.62.36-1.12.85-1.48,1.48-.36.62-.55,1.31-.55,2.08s.18,1.46.55,2.08c.36.62.85,1.12,1.48,1.49.63.37,1.32.55,2.08.55s1.46-.18,2.08-.55c.63-.36,1.12-.86,1.49-1.49s.54-1.31.54-2.08-.17-1.45-.54-2.08ZM440.16,719.87c-.32.55-.74.99-1.29,1.3-.54.32-1.14.47-1.81.47s-1.27-.15-1.81-.47c-.55-.31-.98-.75-1.29-1.3-.32-.55-.47-1.16-.47-1.83s.15-1.28.47-1.82c.31-.55.74-.98,1.29-1.3.55-.31,1.15-.47,1.81-.47s1.28.16,1.81.47c.55.32.97.75,1.29,1.3.31.55.46,1.15.46,1.82s-.15,1.29-.46,1.83ZM437.82,718.44c.39-.06.69-.21.91-.46.22-.24.33-.56.33-.92,0-.46-.14-.82-.44-1.07-.29-.26-.71-.38-1.25-.38h-2.02v4.86h.84v-1.94h.6c.16,0,.3.03.41.09.11.05.2.15.29.3l.91,1.55h.95l-.89-1.49c-.18-.29-.39-.47-.64-.54ZM437.27,717.86h-1.08v-1.57h1.08c.33,0,.57.07.71.19.15.12.23.33.23.6s-.08.46-.23.59c-.14.12-.38.19-.71.19Z"/>
      </g>
      <g>
        <g>
          <rect class="cls-5" x="339.72" y="446.06" width="3.06" height="3.06" transform="translate(-216.55 372.4) rotate(-45)"/>
          <rect class="cls-5" x="344.06" y="446.06" width="3.06" height="3.06" transform="translate(-215.27 375.47) rotate(-45)"/>
          <rect class="cls-5" x="348.4" y="446.06" width="3.06" height="3.06" transform="translate(-214 378.54) rotate(-45)"/>
          <rect class="cls-5" x="352.75" y="446.06" width="3.06" height="3.06" transform="translate(-212.73 381.61) rotate(-45)"/>
          <rect class="cls-5" x="339.72" y="450.42" width="3.06" height="3.06" transform="translate(-219.63 373.67) rotate(-45)"/>
          <rect class="cls-5" x="344.06" y="450.42" width="3.06" height="3.06" transform="translate(-218.35 376.74) rotate(-45)"/>
          <rect class="cls-5" x="348.4" y="450.42" width="3.06" height="3.06" transform="translate(-217.08 379.82) rotate(-45)"/>
          <rect class="cls-5" x="352.75" y="450.42" width="3.06" height="3.06" transform="translate(-215.81 382.89) rotate(-45)"/>
          <rect class="cls-5" x="339.72" y="454.77" width="3.06" height="3.06" transform="translate(-222.71 374.95) rotate(-45)"/>
          <rect class="cls-5" x="344.06" y="454.77" width="3.06" height="3.06" transform="translate(-221.43 378.02) rotate(-45)"/>
          <rect class="cls-5" x="348.4" y="454.77" width="3.06" height="3.06" transform="translate(-220.16 381.09) rotate(-45)"/>
          <rect class="cls-5" x="352.75" y="454.77" width="3.06" height="3.06" transform="translate(-218.89 384.16) rotate(-45)"/>
          <rect class="cls-5" x="339.72" y="459.13" width="3.06" height="3.06" transform="translate(-225.79 376.22) rotate(-45)"/>
          <rect class="cls-5" x="344.06" y="459.13" width="3.06" height="3.06" transform="translate(-224.51 379.3) rotate(-45)"/>
          <rect class="cls-5" x="348.4" y="459.13" width="3.06" height="3.06" transform="translate(-223.24 382.37) rotate(-45)"/>
          <rect class="cls-5" x="352.75" y="459.13" width="3.06" height="3.06" transform="translate(-221.97 385.44) rotate(-45)"/>
        </g>
        <polygon class="cls-5" points="442.2 453.74 436.03 453.74 441.71 451.34 441.41 450.63 435.79 453 440.1 448.69 439.56 448.14 435.19 452.5 437.52 446.79 436.8 446.5 434.5 452.15 434.5 446.05 433.73 446.05 433.73 452.21 431.33 446.53 430.62 446.83 432.99 452.45 428.68 448.14 428.13 448.69 432.49 453.05 426.78 450.73 426.48 451.44 432.14 453.74 426.04 453.74 426.04 454.51 432.2 454.51 426.52 456.91 426.82 457.62 432.44 455.25 428.13 459.57 428.68 460.11 433.04 455.75 430.71 461.47 431.43 461.76 433.73 456.11 433.73 462.21 434.5 462.21 434.5 456.04 436.9 461.72 437.61 461.42 435.24 455.8 439.56 460.11 440.1 459.57 435.74 455.21 441.45 457.53 441.75 456.81 436.1 454.51 442.2 454.51 442.2 453.74"/>
        <g>
          <path class="cls-5" d="M375.58,457.85s-.9,3.5-3.14,1.88c-2.5-1.8,3.14-6.64,3.14-6.64v4.75Z"/>
          <path class="cls-5" d="M375.54,457.85s.9,3.5,3.14,1.88c2.5-1.8-3.14-6.64-3.14-6.64v4.75Z"/>
          <ellipse class="cls-5" cx="370.66" cy="453.4" rx="1.31" ry="1.77"/>
          <ellipse class="cls-5" cx="373.46" cy="449.86" rx="1.31" ry="1.77"/>
          <ellipse class="cls-5" cx="377.38" cy="449.86" rx="1.31" ry="1.77"/>
          <ellipse class="cls-5" cx="380.63" cy="453.4" rx="1.31" ry="1.77"/>
        </g>
        <g>
          <rect class="cls-5" x="480.38" y="445.14" width="14.81" height="5.85" rx="2.93" ry="2.93"/>
          <polygon class="cls-5" points="482.28 450.44 482.28 452.86 484.32 450.44 482.28 450.44"/>
          <rect class="cls-5" x="480.38" y="455.39" width="14.81" height="5.85" rx="2.93" ry="2.93" transform="translate(975.57 916.64) rotate(180)"/>
          <polygon class="cls-5" points="493.29 460.7 493.29 463.12 491.25 460.7 493.29 460.7"/>
        </g>
        <g>
          <rect class="cls-5" x="386.74" y="452.64" width="17.4" height="2.98" rx="1.49" ry="1.49" transform="translate(-58.69 849.57) rotate(-90)"/>
          <rect class="cls-5" x="402.87" y="453.36" width="15.95" height="2.98" rx="1.49" ry="1.49" transform="translate(-44.02 865.69) rotate(-90)"/>
          <rect class="cls-5" x="394.35" y="455.11" width="12.45" height="2.98" rx="1.49" ry="1.49" transform="translate(857.18 56.03) rotate(90)"/>
          <rect class="cls-5" x="401.68" y="457.31" width="8.05" height="2.98" rx="1.49" ry="1.49" transform="translate(864.51 53.09) rotate(90)"/>
        </g>
        <g>
          <g>
            <path class="cls-5" d="M521.94,453.15s.9-3.5,3.14-1.88c2.5,1.8-3.14,6.64-3.14,6.64v-4.75Z"/>
            <path class="cls-5" d="M521.98,453.15s-.9-3.5-3.14-1.88c-2.5,1.8,3.14,6.64,3.14,6.64v-4.75Z"/>
          </g>
          <g>
            <rect class="cls-5" x="512.38" y="444.95" width=".77" height="6.1" transform="translate(-131.59 668.06) rotate(-60)"/>
            <rect class="cls-5" x="511.97" y="457.21" width=".77" height="6.1" transform="translate(369.94 1134.1) rotate(-120)"/>
            <rect class="cls-5" x="511.76" y="451.08" width=".77" height="6.1" transform="translate(58.02 966.27) rotate(-90)"/>
            <rect class="cls-5" x="530.88" y="444.95" width=".77" height="6.1" transform="translate(408.92 1132.08) rotate(-120)"/>
            <rect class="cls-5" x="531.28" y="457.21" width=".77" height="6.1" transform="translate(-132.76 690.57) rotate(-60)"/>
            <rect class="cls-5" x="531.5" y="451.08" width=".77" height="6.1" transform="translate(77.76 986.01) rotate(-90)"/>
          </g>
        </g>
        <path class="cls-5" d="M464.02,445.74c-.09-.25-.39-.35-.6-.18-.43.33-1.17.94-2.05,1.92-.49-.21-1.03-.32-1.58-.33-.6,0-1.17.11-1.7.32-.88-.97-1.62-1.58-2.05-1.91-.21-.16-.52-.07-.6.18-.84,2.48,0,6.35.02,6.52h0c.05.23.11.45.17.66l.05.13,3.38,9.25c.23.64,1.13.64,1.36,0l3.38-9.25.05-.13c.08-.21.13-.43.17-.65h0c.04-.17.86-4.05.02-6.53ZM459.72,452.79c-.74,0-1.34-.6-1.34-1.35s.6-1.34,1.34-1.34,1.35.6,1.35,1.34-.6,1.35-1.35,1.35Z"/>
      </g>
      <g>
        <path class="cls-3" d="M359.02,423.67l.3-.67c.31.24.61.41.93.51s.66.16,1.05.16c.42,0,.75-.07.97-.22s.33-.36.33-.63c0-.22-.07-.4-.22-.54-.15-.13-.39-.24-.74-.31l-.95-.22c-.47-.1-.83-.29-1.09-.56s-.39-.59-.39-.96c0-.49.2-.89.59-1.2.39-.31.92-.46,1.56-.46.39,0,.77.06,1.12.19.35.13.64.31.88.55l-.3.66c-.53-.44-1.09-.66-1.7-.66-.4,0-.71.08-.93.23-.22.15-.33.37-.33.64,0,.23.07.41.21.55s.36.24.66.31l.95.23c.52.12.91.3,1.16.55.25.25.38.58.38.98,0,.48-.2.87-.59,1.16s-.93.43-1.61.43c-.95,0-1.69-.24-2.24-.73Z"/>
        <path class="cls-3" d="M373.22,420.79v3.53h-.9v-3.48c0-.53-.09-.91-.27-1.15-.18-.24-.48-.36-.89-.36-.48,0-.85.16-1.12.48-.27.32-.4.76-.4,1.31v3.2h-.9v-3.48c0-.52-.09-.9-.28-1.15-.19-.24-.48-.36-.89-.36-.48,0-.85.16-1.12.48-.27.32-.41.76-.41,1.31v3.2h-.9v-4.04c0-.58-.03-1.11-.09-1.57h.86l.09.98c.16-.36.39-.63.7-.83.31-.19.67-.29,1.08-.29.45,0,.81.09,1.09.27.28.18.49.45.63.83.17-.34.42-.6.75-.8.33-.2.71-.3,1.12-.3,1.24,0,1.86.74,1.86,2.22Z"/>
        <path class="cls-3" d="M380.11,418.7v5.62h-.89v-1.02c-.16.35-.41.62-.74.81-.33.19-.72.28-1.16.28-.5,0-.94-.12-1.31-.36-.38-.24-.67-.57-.87-1.01s-.31-.94-.31-1.52.1-1.09.31-1.54c.21-.44.5-.79.88-1.03.38-.25.81-.37,1.3-.37.44,0,.82.1,1.15.29.33.19.58.46.75.82v-.97h.89ZM378.77,423.08c.3-.38.45-.91.45-1.6s-.15-1.22-.45-1.6c-.3-.37-.72-.56-1.27-.56s-.98.19-1.29.58c-.31.38-.46.92-.46,1.6s.15,1.21.46,1.58c.31.37.74.56,1.3.56s.98-.19,1.27-.56Z"/>
        <path class="cls-3" d="M385.21,418.64l-.02.83c-.17-.06-.37-.09-.59-.09-.54,0-.95.17-1.21.51-.26.34-.4.75-.4,1.23v3.2h-.9v-4.04c0-.58-.03-1.11-.09-1.57h.86l.09,1.04c.14-.38.37-.67.68-.87.31-.2.67-.3,1.07-.3.19,0,.36.02.51.07Z"/>
        <path class="cls-3" d="M387.99,419.42v3.07c0,.42.09.71.26.88.17.17.41.25.73.25.21,0,.41-.03.6-.1v.77c-.23.07-.49.11-.78.11-.54,0-.95-.15-1.26-.45s-.45-.75-.45-1.33v-3.19h-1.09v-.72h1.09v-1.44l.9-.32v1.76h1.61v.72h-1.61Z"/>
        <path class="cls-3" d="M402.15,420.79v3.53h-.9v-3.48c0-.53-.09-.91-.27-1.15-.18-.24-.48-.36-.89-.36-.48,0-.85.16-1.12.48-.27.32-.4.76-.4,1.31v3.2h-.9v-3.48c0-.52-.09-.9-.28-1.15-.19-.24-.48-.36-.89-.36-.48,0-.85.16-1.12.48-.27.32-.41.76-.41,1.31v3.2h-.9v-4.04c0-.58-.03-1.11-.09-1.57h.86l.09.98c.16-.36.39-.63.7-.83.31-.19.67-.29,1.08-.29.45,0,.81.09,1.09.27.28.18.49.45.63.83.17-.34.42-.6.75-.8.33-.2.71-.3,1.12-.3,1.24,0,1.86.74,1.86,2.22Z"/>
        <path class="cls-3" d="M408.8,421.48h-4.12c0,.71.17,1.25.5,1.62.32.37.79.55,1.41.55.66,0,1.26-.22,1.81-.66l.3.66c-.25.23-.56.41-.94.55-.38.13-.78.2-1.18.2-.88,0-1.57-.26-2.07-.78-.5-.52-.75-1.23-.75-2.13,0-.57.11-1.08.34-1.52.22-.44.54-.79.94-1.03s.86-.37,1.37-.37c.74,0,1.33.24,1.75.73.42.49.64,1.16.64,2.02v.17ZM405.27,419.7c-.29.28-.48.68-.56,1.19h3.27c-.04-.53-.2-.93-.46-1.21-.26-.28-.63-.41-1.1-.41s-.85.14-1.14.42Z"/>
        <path class="cls-3" d="M411.56,419.42v3.07c0,.42.09.71.26.88.17.17.41.25.73.25.21,0,.41-.03.6-.1v.77c-.23.07-.49.11-.78.11-.54,0-.95-.15-1.26-.45s-.45-.75-.45-1.33v-3.19h-1.09v-.72h1.09v-1.44l.9-.32v1.76h1.61v.72h-1.61Z"/>
        <path class="cls-3" d="M417.62,418.64l-.02.83c-.17-.06-.37-.09-.59-.09-.54,0-.95.17-1.21.51-.26.34-.4.75-.4,1.23v3.2h-.9v-4.04c0-.58-.03-1.11-.09-1.57h.86l.09,1.04c.14-.38.37-.67.68-.87.31-.2.67-.3,1.07-.3.19,0,.36.02.51.07Z"/>
        <path class="cls-3" d="M419.77,416.32v1.03h-1.11v-1.03h1.11ZM418.75,418.7h.9v5.62h-.9v-5.62Z"/>
        <path class="cls-3" d="M422.57,424.04c-.41-.24-.72-.57-.94-1.01-.22-.44-.33-.94-.33-1.52s.11-1.09.34-1.54c.22-.44.54-.79.95-1.03s.89-.37,1.45-.37c.38,0,.75.07,1.1.2.35.13.65.31.88.54l-.3.67c-.28-.22-.56-.39-.82-.49-.26-.1-.53-.16-.81-.16-.57,0-1.02.19-1.35.58s-.49.92-.49,1.6.16,1.2.49,1.58c.32.38.78.56,1.36.56.28,0,.55-.05.81-.16.26-.1.54-.27.82-.49l.3.67c-.24.22-.54.4-.9.53-.36.13-.74.19-1.12.19-.54,0-1.02-.12-1.42-.36Z"/>
        <path class="cls-3" d="M427.04,423.67l.3-.67c.31.24.61.41.93.51s.66.16,1.05.16c.42,0,.75-.07.97-.22s.33-.36.33-.63c0-.22-.07-.4-.22-.54-.15-.13-.39-.24-.74-.31l-.95-.22c-.47-.1-.83-.29-1.09-.56s-.39-.59-.39-.96c0-.49.2-.89.59-1.2.39-.31.92-.46,1.56-.46.39,0,.77.06,1.12.19.35.13.64.31.88.55l-.3.66c-.53-.44-1.09-.66-1.7-.66-.4,0-.71.08-.93.23-.22.15-.33.37-.33.64,0,.23.07.41.21.55s.36.24.66.31l.95.23c.52.12.91.3,1.16.55.25.25.38.58.38.98,0,.48-.2.87-.59,1.16s-.93.43-1.61.43c-.95,0-1.69-.24-2.24-.73Z"/>
        <path class="cls-3" d="M437.74,417.09c-.17.17-.25.46-.25.87v.75h1.37v.72h-1.37v4.9h-.9v-4.9h-1.09v-.72h1.09v-.86c0-.59.15-1.03.44-1.33.29-.3.71-.45,1.23-.45.26,0,.51.03.76.1v.77c-.21-.06-.4-.09-.58-.09-.3,0-.53.08-.7.25Z"/>
        <path class="cls-3" d="M441.14,424.04c-.4-.24-.71-.58-.93-1.02-.22-.44-.33-.95-.33-1.54s.11-1.1.33-1.54c.22-.44.53-.78.93-1.02.4-.24.87-.36,1.4-.36s.99.12,1.4.36c.4.24.71.58.93,1.02.22.44.33.95.33,1.54s-.11,1.1-.33,1.54c-.22.44-.53.78-.93,1.02-.4.24-.87.36-1.4.36s-.99-.12-1.4-.36ZM443.82,423.1c.3-.37.45-.91.45-1.61s-.15-1.22-.46-1.59c-.31-.38-.73-.56-1.27-.56s-.98.19-1.28.56c-.31.38-.46.91-.46,1.59s.15,1.24.45,1.61c.3.37.73.55,1.29.55s.99-.18,1.28-.55Z"/>
        <path class="cls-3" d="M449.95,418.64l-.02.83c-.17-.06-.37-.09-.59-.09-.54,0-.95.17-1.21.51-.26.34-.4.75-.4,1.23v3.2h-.9v-4.04c0-.58-.03-1.11-.09-1.57h.86l.09,1.04c.14-.38.37-.67.68-.87.31-.2.67-.3,1.07-.3.19,0,.36.02.51.07Z"/>
        <path class="cls-3" d="M453.88,423.67l.3-.67c.31.24.61.41.93.51s.66.16,1.05.16c.42,0,.75-.07.97-.22s.33-.36.33-.63c0-.22-.07-.4-.22-.54-.15-.13-.39-.24-.74-.31l-.95-.22c-.47-.1-.83-.29-1.09-.56s-.39-.59-.39-.96c0-.49.2-.89.59-1.2.39-.31.92-.46,1.56-.46.39,0,.77.06,1.12.19.35.13.64.31.88.55l-.3.66c-.53-.44-1.09-.66-1.7-.66-.4,0-.71.08-.93.23-.22.15-.33.37-.33.64,0,.23.07.41.21.55s.36.24.66.31l.95.23c.52.12.91.3,1.16.55.25.25.38.58.38.98,0,.48-.2.87-.59,1.16s-.93.43-1.61.43c-.95,0-1.69-.24-2.24-.73Z"/>
        <path class="cls-3" d="M468.08,420.79v3.53h-.9v-3.48c0-.53-.09-.91-.27-1.15-.18-.24-.48-.36-.89-.36-.48,0-.85.16-1.12.48-.27.32-.4.76-.4,1.31v3.2h-.9v-3.48c0-.52-.09-.9-.28-1.15-.19-.24-.48-.36-.89-.36-.48,0-.85.16-1.12.48-.27.32-.41.76-.41,1.31v3.2h-.9v-4.04c0-.58-.03-1.11-.09-1.57h.86l.09.98c.16-.36.39-.63.7-.83.31-.19.67-.29,1.08-.29.45,0,.81.09,1.09.27.28.18.49.45.63.83.17-.34.42-.6.75-.8.33-.2.71-.3,1.12-.3,1.24,0,1.86.74,1.86,2.22Z"/>
        <path class="cls-3" d="M474.97,418.7v5.62h-.89v-1.02c-.16.35-.41.62-.74.81-.33.19-.72.28-1.16.28-.5,0-.94-.12-1.31-.36-.38-.24-.67-.57-.87-1.01s-.31-.94-.31-1.52.1-1.09.31-1.54c.21-.44.5-.79.88-1.03.38-.25.81-.37,1.3-.37.44,0,.82.1,1.15.29.33.19.58.46.75.82v-.97h.89ZM473.63,423.08c.3-.38.45-.91.45-1.6s-.15-1.22-.45-1.6c-.3-.37-.72-.56-1.27-.56s-.98.19-1.29.58c-.31.38-.46.92-.46,1.6s.15,1.21.46,1.58c.31.37.74.56,1.3.56s.98-.19,1.27-.56Z"/>
        <path class="cls-3" d="M480.07,418.64l-.02.83c-.17-.06-.37-.09-.59-.09-.54,0-.95.17-1.21.51-.26.34-.4.75-.4,1.23v3.2h-.9v-4.04c0-.58-.03-1.11-.09-1.57h.86l.09,1.04c.14-.38.37-.67.68-.87.31-.2.67-.3,1.07-.3.19,0,.36.02.51.07Z"/>
        <path class="cls-3" d="M482.85,419.42v3.07c0,.42.09.71.26.88.17.17.41.25.73.25.21,0,.41-.03.6-.1v.77c-.23.07-.49.11-.78.11-.54,0-.95-.15-1.26-.45s-.45-.75-.45-1.33v-3.19h-1.09v-.72h1.09v-1.44l.9-.32v1.76h1.61v.72h-1.61Z"/>
        <path class="cls-3" d="M489.85,424.04c-.41-.24-.72-.57-.94-1.01-.22-.44-.33-.94-.33-1.52s.11-1.09.34-1.54c.22-.44.54-.79.95-1.03s.89-.37,1.45-.37c.38,0,.75.07,1.1.2.35.13.65.31.88.54l-.3.67c-.28-.22-.56-.39-.82-.49-.26-.1-.53-.16-.81-.16-.57,0-1.02.19-1.35.58s-.49.92-.49,1.6.16,1.2.49,1.58c.32.38.78.56,1.36.56.28,0,.55-.05.81-.16.26-.1.54-.27.82-.49l.3.67c-.24.22-.54.4-.9.53-.36.13-.74.19-1.12.19-.54,0-1.02-.12-1.42-.36Z"/>
        <path class="cls-3" d="M495.68,416.32v1.03h-1.11v-1.03h1.11ZM494.66,418.7h.9v5.62h-.9v-5.62Z"/>
        <path class="cls-3" d="M498.75,419.42v3.07c0,.42.09.71.26.88.17.17.41.25.73.25.21,0,.41-.03.6-.1v.77c-.23.07-.49.11-.78.11-.54,0-.95-.15-1.26-.45s-.45-.75-.45-1.33v-3.19h-1.09v-.72h1.09v-1.44l.9-.32v1.76h1.61v.72h-1.61Z"/>
        <path class="cls-3" d="M502.69,416.32v1.03h-1.11v-1.03h1.11ZM501.68,418.7h.9v5.62h-.9v-5.62Z"/>
        <path class="cls-3" d="M509.26,421.48h-4.12c0,.71.17,1.25.5,1.62.32.37.79.55,1.41.55.66,0,1.26-.22,1.81-.66l.3.66c-.25.23-.56.41-.94.55-.38.13-.78.2-1.18.2-.88,0-1.57-.26-2.07-.78-.5-.52-.75-1.23-.75-2.13,0-.57.11-1.08.34-1.52.22-.44.54-.79.94-1.03s.86-.37,1.37-.37c.74,0,1.33.24,1.75.73.42.49.64,1.16.64,2.02v.17ZM505.73,419.7c-.29.28-.48.68-.56,1.19h3.27c-.04-.53-.2-.93-.46-1.21-.26-.28-.63-.41-1.1-.41s-.85.14-1.14.42Z"/>
        <path class="cls-3" d="M510.51,423.67l.3-.67c.31.24.61.41.93.51s.66.16,1.05.16c.42,0,.75-.07.97-.22s.33-.36.33-.63c0-.22-.07-.4-.22-.54-.15-.13-.39-.24-.74-.31l-.95-.22c-.47-.1-.83-.29-1.09-.56s-.39-.59-.39-.96c0-.49.2-.89.59-1.2.39-.31.92-.46,1.56-.46.39,0,.77.06,1.12.19.35.13.64.31.88.55l-.3.66c-.53-.44-1.09-.66-1.7-.66-.4,0-.71.08-.93.23-.22.15-.33.37-.33.64,0,.23.07.41.21.55s.36.24.66.31l.95.23c.52.12.91.3,1.16.55.25.25.38.58.38.98,0,.48-.2.87-.59,1.16s-.93.43-1.61.43c-.95,0-1.69-.24-2.24-.73Z"/>
      </g>
    </g>
    <g>
      <rect class="cls-9" x="437.13" y="3.84" width="292.86" height="642.67" rx="68.11" ry="68.11"/>
      <path class="cls-6" d="M661.88,650.34h-156.64c-39.67,0-71.95-32.28-71.95-71.95V71.95c0-39.67,32.28-71.95,71.95-71.95h156.64c39.67,0,71.95,32.28,71.95,71.95v506.44c0,39.67-32.28,71.95-71.95,71.95ZM505.24,7.68c-35.44,0-64.27,28.83-64.27,64.27v506.44c0,35.44,28.83,64.27,64.27,64.27h156.64c35.44,0,64.27-28.83,64.27-64.27V71.95c0-35.44-28.83-64.27-64.27-64.27h-156.64Z"/>
      <path class="cls-6" d="M661.38,3.84v10.27c0,14.01-11.35,25.36-25.36,25.36h-104.91c-14.01,0-25.36-11.35-25.36-25.36V3.84h155.64Z"/>
      <g>
        <g>
          <path class="cls-11" d="M496.58,584.46c-1.92,0-3.42.98-4.27,2.64-.66-1.66-2.13-2.64-4.14-2.64-1.8,0-3.23.95-3.95,2.58l-.03-2.35h-3.58v14.42h3.69v-8.26c0-2.12.89-3.12,2.52-3.12,1.43,0,2.18.97,2.18,2.6v8.78h3.69v-8.26c0-2.12.89-3.12,2.52-3.12,1.44,0,2.18.97,2.18,2.6v8.78h3.7v-9.66c0-3.01-1.7-4.99-4.53-4.99Z"/>
          <path class="cls-11" d="M517.84,591.51c0-3.87-2.38-7.2-6.45-7.2-4.67,0-7.31,3.5-7.31,7.54,0,4.41,2.84,7.62,8.51,7.62,1.55,0,3.56-.36,4.59-1.06v-3.24c-.94.69-2.57,1.18-4.18,1.18-2.97,0-4.62-1.12-5.07-3.16h9.8c.09-.46.12-1.17.12-1.69ZM507.87,590.62c.31-1.98,1.52-3.2,3.38-3.2,1.66,0,2.75,1.26,2.98,3.2h-6.36Z"/>
          <path class="cls-11" d="M527.73,596.01c-1.61,0-2.38-.63-2.38-2.21v-6.13h3.92v-2.98h-3.92v-3.13h-1.12l-4.53,5.31v.81h1.95v6.94c0,2.89,1.67,4.67,4.99,4.67,1.01,0,2.18-.23,2.75-.69v-2.98c-.52.26-1.17.4-1.66.4Z"/>
          <path class="cls-11" d="M539.8,584.46c-2.06,0-3.23,1.46-3.87,3.36l-.03-3.13h-3.49v14.42h3.69v-7.14c0-2.7,1.2-3.62,2.96-3.62.62,0,1.29.17,1.78.46l.69-3.69c-.4-.43-1.07-.66-1.73-.66Z"/>
          <path class="cls-11" d="M543.95,584.69v14.42h3.7v-14.42h-3.7Z"/>
          <path class="cls-11" d="M554.56,591.71c0-2.96,2.41-4.01,4.47-4.01,1.14,0,2.18.34,2.95.83l.86-3.18c-.78-.55-1.98-.95-3.75-.95-3.27,0-8.29,1.57-8.29,7.51,0,5.61,4.73,7.53,8.23,7.53,1.6,0,3-.42,3.67-.83v-3.27c-.83.55-2.06.89-3.12.89-2.61,0-5.02-1.35-5.02-4.53Z"/>
          <path class="cls-11" d="M572.42,590.91l-2.29-.91c-1.09-.43-1.35-.72-1.35-1.3,0-.78.72-1.23,2.21-1.23,1.04,0,2.38.29,3.47,1.06l.81-3.12c-.95-.69-2.5-1.07-3.99-1.07-3.87,0-6.13,1.86-6.13,4.56,0,2.21,1.2,3.27,3.1,4.01l2.35.92c1.08.43,1.46.66,1.46,1.29,0,.83-.72,1.3-2.12,1.3-1.3,0-2.87-.32-4.47-1.5v3.33c.91.86,2.84,1.26,4.44,1.26,3.49,0,5.76-1.75,5.76-4.64,0-2.09-1.14-3.12-3.23-3.95Z"/>
        </g>
        <g>
          <path class="cls-11" d="M501.41,562.61c-.36-1.97-1.95-3.48-4.75-3.48-4.06,0-4.69,2.68-4.69,2.68-.59-1.56-2.13-2.68-4.52-2.68-3.63,0-4.31,2.46-4.31,2.46v-2.07h-2.53v14.29h2.53v-7.06c0-4.35,1.45-5.78,3.43-5.78,1.78,0,2.89.79,3.13,2.41.09.72.12,1.51.12,2.77v7.66h2.54v-7.06c0-4.35,1.45-5.78,3.43-5.78,1.77,0,2.89.79,3.13,2.41.09.72.12,1.51.12,2.77v7.66h2.54v-8.73c0-1.16-.03-1.73-.15-2.46Z"/>
          <path class="cls-11" d="M519.27,566.24c0-4.17-2.39-7.12-6.7-7.12s-7.44,2.95-7.44,7.58c0,5.04,3.04,7.47,7.11,7.47,3.21,0,6.2-1.54,6.82-4.99h-2.66c-.36,2.05-2.01,3.21-4.05,3.21-2.29,0-4.24-1.27-4.48-5.05h11.33c.06-.51.06-.88.06-1.1ZM507.91,565.57c.3-3.05,2.12-4.66,4.61-4.66s3.95,1.7,4.19,4.66h-8.8Z"/>
          <path class="cls-11" d="M529.69,559.12c-5.32,0-7.76,3.48-7.76,7.52s2.45,7.52,7.76,7.52,7.76-3.5,7.76-7.52-2.45-7.52-7.76-7.52ZM529.69,572.39c-3.16,0-4.99-2.4-4.99-5.75s1.83-5.74,4.99-5.74,4.99,2.37,4.99,5.74-1.83,5.75-4.99,5.75Z"/>
          <path class="cls-11" d="M559.37,559.51l-3.79,12-3.48-12h-3.16l-3.43,12.08-3.99-12.08h-2.56l4.99,14.29h3.01l3.48-12.02,3.48,12.02h3.1l4.89-14.29h-2.55Z"/>
        </g>
        <path class="cls-11" d="M584.98,589.17c-.17-.29-.39-.46-.64-.53.39-.07.7-.22.91-.46.22-.25.33-.56.33-.93,0-.45-.14-.81-.44-1.07-.29-.25-.7-.37-1.24-.37h-2.02v4.86h.83v-1.95h.6c.06,0,.11,0,.15,0,.11,0,.18.04.26.08.11.06.2.15.3.3l.91,1.56h.94l-.89-1.5ZM583.79,588.06h-1.08v-1.56h1.08c.33,0,.57.06.72.18.15.12.22.33.22.61,0,.26-.07.46-.22.59-.15.12-.39.18-.72.18ZM584.98,589.17c-.17-.29-.39-.46-.64-.53.39-.07.7-.22.91-.46.22-.25.33-.56.33-.93,0-.45-.14-.81-.44-1.07-.29-.25-.7-.37-1.24-.37h-2.02v4.86h.83v-1.95h.6c.06,0,.11,0,.15,0,.11,0,.18.04.26.08.11.06.2.15.3.3l.91,1.56h.94l-.89-1.5ZM583.79,588.06h-1.08v-1.56h1.08c.33,0,.57.06.72.18.15.12.22.33.22.61,0,.26-.07.46-.22.59-.15.12-.39.18-.72.18ZM587.15,586.16c-.36-.63-.85-1.12-1.48-1.48-.62-.36-1.32-.55-2.08-.55-.04,0-.09,0-.12,0-.72,0-1.38.19-1.97.54-.62.36-1.11.84-1.48,1.47-.36.62-.54,1.31-.54,2.08s.17,1.46.54,2.09c.36.62.85,1.11,1.49,1.48.59.35,1.25.53,1.96.54.04,0,.09,0,.12,0,.76,0,1.45-.18,2.08-.55.62-.36,1.12-.85,1.48-1.48.36-.63.55-1.32.55-2.09s-.18-1.45-.55-2.07ZM586.68,590.06c-.31.56-.74.99-1.28,1.3-.55.31-1.15.47-1.81.47-.04,0-.09,0-.12,0-.62,0-1.19-.17-1.7-.46-.55-.32-.98-.75-1.29-1.3-.31-.55-.47-1.16-.47-1.83s.16-1.28.47-1.82c.31-.55.74-.97,1.29-1.29.51-.3,1.07-.45,1.7-.46.04,0,.09,0,.12,0,.66,0,1.27.15,1.81.47.54.32.97.74,1.28,1.29.32.55.47,1.15.47,1.82s-.15,1.29-.47,1.83ZM584.34,588.64c.39-.07.7-.22.91-.46.22-.25.33-.56.33-.93,0-.45-.14-.81-.44-1.07-.29-.25-.7-.37-1.24-.37h-2.02v4.86h.83v-1.95h.6c.06,0,.11,0,.15,0,.11,0,.18.04.26.08.11.06.2.15.3.3l.91,1.56h.94l-.89-1.5c-.17-.29-.39-.46-.64-.53ZM583.79,588.06h-1.08v-1.56h1.08c.33,0,.57.06.72.18.15.12.22.33.22.61,0,.26-.07.46-.22.59-.15.12-.39.18-.72.18Z"/>
      </g>
      <g>
        <g>
          <rect class="cls-11" x="486.24" y="316.26" width="3.06" height="3.06" transform="translate(-81.85 437.99) rotate(-45)"/>
          <rect class="cls-11" x="490.59" y="316.26" width="3.06" height="3.06" transform="translate(-80.57 441.06) rotate(-45)"/>
          <rect class="cls-11" x="494.93" y="316.26" width="3.06" height="3.06" transform="translate(-79.3 444.13) rotate(-45)"/>
          <rect class="cls-11" x="499.27" y="316.26" width="3.06" height="3.06" transform="translate(-78.03 447.2) rotate(-45)"/>
          <rect class="cls-11" x="486.24" y="320.61" width="3.06" height="3.06" transform="translate(-84.93 439.26) rotate(-45)"/>
          <rect class="cls-11" x="490.59" y="320.61" width="3.06" height="3.06" transform="translate(-83.65 442.34) rotate(-45)"/>
          <rect class="cls-11" x="494.93" y="320.61" width="3.06" height="3.06" transform="translate(-82.38 445.41) rotate(-45)"/>
          <rect class="cls-11" x="499.27" y="320.61" width="3.06" height="3.06" transform="translate(-81.11 448.48) rotate(-45)"/>
          <rect class="cls-11" x="486.24" y="324.97" width="3.06" height="3.06" transform="translate(-88.01 440.54) rotate(-45)"/>
          <rect class="cls-11" x="490.59" y="324.97" width="3.06" height="3.06" transform="translate(-86.73 443.61) rotate(-45)"/>
          <rect class="cls-11" x="494.93" y="324.97" width="3.06" height="3.06" transform="translate(-85.46 446.68) rotate(-45)"/>
          <rect class="cls-11" x="499.27" y="324.97" width="3.06" height="3.06" transform="translate(-84.19 449.75) rotate(-45)"/>
          <rect class="cls-11" x="486.24" y="329.33" width="3.06" height="3.06" transform="translate(-91.09 441.81) rotate(-45)"/>
          <rect class="cls-11" x="490.59" y="329.33" width="3.06" height="3.06" transform="translate(-89.81 444.89) rotate(-45)"/>
          <rect class="cls-11" x="494.93" y="329.33" width="3.06" height="3.06" transform="translate(-88.54 447.96) rotate(-45)"/>
          <rect class="cls-11" x="499.27" y="329.33" width="3.06" height="3.06" transform="translate(-87.27 451.03) rotate(-45)"/>
        </g>
        <polygon class="cls-11" points="588.72 323.94 582.55 323.94 588.24 321.54 587.93 320.83 582.31 323.2 586.63 318.89 586.08 318.34 581.72 322.7 584.04 316.99 583.33 316.69 581.03 322.34 581.03 316.24 580.25 316.24 580.25 322.41 577.86 316.73 577.14 317.03 579.51 322.65 575.2 318.34 574.65 318.89 579.01 323.25 573.3 320.92 573.01 321.64 578.66 323.94 572.56 323.94 572.56 324.71 578.73 324.71 573.05 327.11 573.35 327.82 578.97 325.45 574.65 329.76 575.2 330.31 579.56 325.95 577.24 331.66 577.96 331.96 580.25 326.3 580.25 332.4 581.03 332.4 581.03 326.24 583.43 331.92 584.14 331.62 581.77 326 586.08 330.31 586.63 329.76 582.27 325.4 587.98 327.73 588.27 327.01 582.62 324.71 588.72 324.71 588.72 323.94"/>
        <g>
          <path class="cls-11" d="M522.1,328.04s-.9,3.5-3.14,1.88c-2.5-1.8,3.14-6.64,3.14-6.64v4.75Z"/>
          <path class="cls-11" d="M522.06,328.04s.9,3.5,3.14,1.88c2.5-1.8-3.14-6.64-3.14-6.64v4.75Z"/>
          <ellipse class="cls-11" cx="517.19" cy="323.59" rx="1.31" ry="1.77"/>
          <ellipse class="cls-11" cx="519.99" cy="320.06" rx="1.31" ry="1.77"/>
          <ellipse class="cls-11" cx="523.91" cy="320.06" rx="1.31" ry="1.77"/>
          <ellipse class="cls-11" cx="527.15" cy="323.59" rx="1.31" ry="1.77"/>
        </g>
        <g>
          <rect class="cls-11" x="626.91" y="315.33" width="14.81" height="5.85" rx="2.93" ry="2.93"/>
          <polygon class="cls-11" points="628.8 320.64 628.8 323.06 630.85 320.64 628.8 320.64"/>
          <rect class="cls-11" x="626.91" y="325.59" width="14.81" height="5.85" rx="2.93" ry="2.93" transform="translate(1268.62 657.03) rotate(-180)"/>
          <polygon class="cls-11" points="639.82 330.9 639.82 333.32 637.77 330.9 639.82 330.9"/>
        </g>
        <g>
          <rect class="cls-11" x="533.27" y="322.83" width="17.4" height="2.98" rx="1.49" ry="1.49" transform="translate(217.64 866.29) rotate(-90)"/>
          <rect class="cls-11" x="549.39" y="323.56" width="15.95" height="2.98" rx="1.49" ry="1.49" transform="translate(232.31 882.42) rotate(-90)"/>
          <rect class="cls-11" x="540.87" y="325.31" width="12.45" height="2.98" rx="1.49" ry="1.49" transform="translate(873.9 -220.3) rotate(90)"/>
          <rect class="cls-11" x="548.21" y="327.51" width="8.05" height="2.98" rx="1.49" ry="1.49" transform="translate(881.23 -223.23) rotate(90)"/>
        </g>
        <g>
          <g>
            <path class="cls-11" d="M668.47,323.35s.9-3.5,3.14-1.88c2.5,1.8-3.14,6.64-3.14,6.64v-4.75Z"/>
            <path class="cls-11" d="M668.5,323.35s-.9-3.5-3.14-1.88c-2.5,1.8,3.14,6.64,3.14,6.64v-4.75Z"/>
          </g>
          <g>
            <rect class="cls-11" x="658.9" y="315.14" width=".77" height="6.1" transform="translate(54.08 730.06) rotate(-60)"/>
            <rect class="cls-11" x="658.5" y="327.41" width=".77" height="6.1" transform="translate(702.14 1066.29) rotate(-120)"/>
            <rect class="cls-11" x="658.28" y="321.27" width=".77" height="6.1" transform="translate(334.34 982.99) rotate(-90)"/>
            <rect class="cls-11" x="677.4" y="315.14" width=".77" height="6.1" transform="translate(741.12 1064.28) rotate(-120)"/>
            <rect class="cls-11" x="677.81" y="327.41" width=".77" height="6.1" transform="translate(52.91 752.56) rotate(-60)"/>
            <rect class="cls-11" x="678.02" y="321.27" width=".77" height="6.1" transform="translate(354.09 1002.74) rotate(-90)"/>
          </g>
        </g>
        <path class="cls-11" d="M610.55,315.94c-.09-.26-.39-.35-.6-.19-.43.33-1.17.94-2.06,1.92-.49-.2-1.03-.32-1.58-.33-.59,0-1.17.11-1.69.33-.89-.98-1.62-1.59-2.05-1.92-.21-.15-.52-.07-.6.19-.85,2.48-.02,6.35.02,6.51h0c.04.24.1.45.17.67l.05.12,3.37,9.26c.24.63,1.14.63,1.37,0l3.37-9.26.05-.12c.08-.22.13-.43.17-.66h0c.04-.16.87-4.04.03-6.52ZM606.25,322.98c-.75,0-1.35-.6-1.35-1.34s.6-1.35,1.35-1.35,1.34.6,1.34,1.35-.6,1.34-1.34,1.34Z"/>
      </g>
      <g>
        <path class="cls-11" d="M505.55,293.87l.3-.67c.31.24.61.41.93.51s.66.16,1.05.16c.42,0,.75-.07.97-.22s.33-.36.33-.63c0-.22-.07-.4-.22-.54-.15-.13-.39-.24-.74-.31l-.95-.22c-.47-.1-.83-.29-1.09-.56s-.39-.59-.39-.96c0-.49.2-.89.59-1.2.39-.31.92-.46,1.56-.46.39,0,.77.06,1.12.19.35.13.64.31.88.55l-.3.66c-.53-.44-1.09-.66-1.7-.66-.4,0-.71.08-.93.23-.22.15-.33.37-.33.64,0,.23.07.41.21.55s.36.24.66.31l.95.23c.52.12.91.3,1.16.55.25.25.38.58.38.98,0,.48-.2.87-.59,1.16s-.93.43-1.61.43c-.95,0-1.69-.24-2.24-.73Z"/>
        <path class="cls-11" d="M519.75,290.99v3.53h-.9v-3.48c0-.53-.09-.91-.27-1.15-.18-.24-.48-.36-.89-.36-.48,0-.85.16-1.12.48-.27.32-.4.76-.4,1.31v3.2h-.9v-3.48c0-.52-.09-.9-.28-1.15-.19-.24-.48-.36-.89-.36-.48,0-.85.16-1.12.48-.27.32-.41.76-.41,1.31v3.2h-.9v-4.04c0-.58-.03-1.11-.09-1.57h.86l.09.98c.16-.36.39-.63.7-.83.31-.19.67-.29,1.08-.29.45,0,.81.09,1.09.27.28.18.49.45.63.83.17-.34.42-.6.75-.8.33-.2.71-.3,1.12-.3,1.24,0,1.86.74,1.86,2.22Z"/>
        <path class="cls-11" d="M526.64,288.9v5.62h-.89v-1.02c-.16.35-.41.62-.74.81-.33.19-.72.28-1.16.28-.5,0-.94-.12-1.31-.36-.38-.24-.67-.57-.87-1.01s-.31-.94-.31-1.52.1-1.09.31-1.54c.21-.44.5-.79.88-1.03.38-.25.81-.37,1.3-.37.44,0,.82.1,1.15.29.33.19.58.46.75.82v-.97h.89ZM525.3,293.28c.3-.38.45-.91.45-1.6s-.15-1.22-.45-1.6c-.3-.37-.72-.56-1.27-.56s-.98.19-1.29.58c-.31.38-.46.92-.46,1.6s.15,1.21.46,1.58c.31.37.74.56,1.3.56s.98-.19,1.27-.56Z"/>
        <path class="cls-11" d="M531.74,288.83l-.02.83c-.17-.06-.37-.09-.59-.09-.54,0-.95.17-1.21.51-.26.34-.4.75-.4,1.23v3.2h-.9v-4.04c0-.58-.03-1.11-.09-1.57h.86l.09,1.04c.14-.38.37-.67.68-.87.31-.2.67-.3,1.07-.3.19,0,.36.02.51.07Z"/>
        <path class="cls-11" d="M534.52,289.61v3.07c0,.42.09.71.26.88.17.17.41.25.73.25.21,0,.41-.03.6-.1v.77c-.23.07-.49.11-.78.11-.54,0-.95-.15-1.26-.45s-.45-.75-.45-1.33v-3.19h-1.09v-.72h1.09v-1.44l.9-.32v1.76h1.61v.72h-1.61Z"/>
        <path class="cls-11" d="M548.68,290.99v3.53h-.9v-3.48c0-.53-.09-.91-.27-1.15-.18-.24-.48-.36-.89-.36-.48,0-.85.16-1.12.48-.27.32-.4.76-.4,1.31v3.2h-.9v-3.48c0-.52-.09-.9-.28-1.15-.19-.24-.48-.36-.89-.36-.48,0-.85.16-1.12.48-.27.32-.41.76-.41,1.31v3.2h-.9v-4.04c0-.58-.03-1.11-.09-1.57h.86l.09.98c.16-.36.39-.63.7-.83.31-.19.67-.29,1.08-.29.45,0,.81.09,1.09.27.28.18.49.45.63.83.17-.34.42-.6.75-.8.33-.2.71-.3,1.12-.3,1.24,0,1.86.74,1.86,2.22Z"/>
        <path class="cls-11" d="M555.32,291.68h-4.12c0,.71.17,1.25.5,1.62.32.37.79.55,1.41.55.66,0,1.26-.22,1.81-.66l.3.66c-.25.23-.56.41-.94.55-.38.13-.78.2-1.18.2-.88,0-1.57-.26-2.07-.78-.5-.52-.75-1.23-.75-2.13,0-.57.11-1.08.34-1.52.22-.44.54-.79.94-1.03s.86-.37,1.37-.37c.74,0,1.33.24,1.75.73.42.49.64,1.16.64,2.02v.17ZM551.8,289.89c-.29.28-.48.68-.56,1.19h3.27c-.04-.53-.2-.93-.46-1.21-.26-.28-.63-.41-1.1-.41s-.85.14-1.14.42Z"/>
        <path class="cls-11" d="M558.09,289.61v3.07c0,.42.09.71.26.88.17.17.41.25.73.25.21,0,.41-.03.6-.1v.77c-.23.07-.49.11-.78.11-.54,0-.95-.15-1.26-.45s-.45-.75-.45-1.33v-3.19h-1.09v-.72h1.09v-1.44l.9-.32v1.76h1.61v.72h-1.61Z"/>
        <path class="cls-11" d="M564.14,288.83l-.02.83c-.17-.06-.37-.09-.59-.09-.54,0-.95.17-1.21.51-.26.34-.4.75-.4,1.23v3.2h-.9v-4.04c0-.58-.03-1.11-.09-1.57h.86l.09,1.04c.14-.38.37-.67.68-.87.31-.2.67-.3,1.07-.3.19,0,.36.02.51.07Z"/>
        <path class="cls-11" d="M566.3,286.52v1.03h-1.11v-1.03h1.11ZM565.28,288.9h.9v5.62h-.9v-5.62Z"/>
        <path class="cls-11" d="M569.09,294.24c-.41-.24-.72-.57-.94-1.01-.22-.44-.33-.94-.33-1.52s.11-1.09.34-1.54c.22-.44.54-.79.95-1.03s.89-.37,1.45-.37c.38,0,.75.07,1.1.2.35.13.65.31.88.54l-.3.67c-.28-.22-.56-.39-.82-.49-.26-.1-.53-.16-.81-.16-.57,0-1.02.19-1.35.58s-.49.92-.49,1.6.16,1.2.49,1.58c.32.38.78.56,1.36.56.28,0,.55-.05.81-.16.26-.1.54-.27.82-.49l.3.67c-.24.22-.54.4-.9.53-.36.13-.74.19-1.12.19-.54,0-1.02-.12-1.42-.36Z"/>
        <path class="cls-11" d="M573.56,293.87l.3-.67c.31.24.61.41.93.51s.66.16,1.05.16c.42,0,.75-.07.97-.22s.33-.36.33-.63c0-.22-.07-.4-.22-.54-.15-.13-.39-.24-.74-.31l-.95-.22c-.47-.1-.83-.29-1.09-.56s-.39-.59-.39-.96c0-.49.2-.89.59-1.2.39-.31.92-.46,1.56-.46.39,0,.77.06,1.12.19.35.13.64.31.88.55l-.3.66c-.53-.44-1.09-.66-1.7-.66-.4,0-.71.08-.93.23-.22.15-.33.37-.33.64,0,.23.07.41.21.55s.36.24.66.31l.95.23c.52.12.91.3,1.16.55.25.25.38.58.38.98,0,.48-.2.87-.59,1.16s-.93.43-1.61.43c-.95,0-1.69-.24-2.24-.73Z"/>
        <path class="cls-11" d="M584.26,287.29c-.17.17-.25.46-.25.87v.75h1.37v.72h-1.37v4.9h-.9v-4.9h-1.09v-.72h1.09v-.86c0-.59.15-1.03.44-1.33.29-.3.71-.45,1.23-.45.26,0,.51.03.76.1v.77c-.21-.06-.4-.09-.58-.09-.3,0-.53.08-.7.25Z"/>
        <path class="cls-11" d="M587.66,294.24c-.4-.24-.71-.58-.93-1.02-.22-.44-.33-.95-.33-1.54s.11-1.1.33-1.54c.22-.44.53-.78.93-1.02.4-.24.87-.36,1.4-.36s.99.12,1.4.36c.4.24.71.58.93,1.02.22.44.33.95.33,1.54s-.11,1.1-.33,1.54c-.22.44-.53.78-.93,1.02-.4.24-.87.36-1.4.36s-.99-.12-1.4-.36ZM590.34,293.29c.3-.37.45-.91.45-1.61s-.15-1.22-.46-1.59c-.31-.38-.73-.56-1.27-.56s-.98.19-1.28.56c-.31.38-.46.91-.46,1.59s.15,1.24.45,1.61c.3.37.73.55,1.29.55s.99-.18,1.28-.55Z"/>
        <path class="cls-11" d="M596.47,288.83l-.02.83c-.17-.06-.37-.09-.59-.09-.54,0-.95.17-1.21.51-.26.34-.4.75-.4,1.23v3.2h-.9v-4.04c0-.58-.03-1.11-.09-1.57h.86l.09,1.04c.14-.38.37-.67.68-.87.31-.2.67-.3,1.07-.3.19,0,.36.02.51.07Z"/>
        <path class="cls-11" d="M600.4,293.87l.3-.67c.31.24.61.41.93.51s.66.16,1.05.16c.42,0,.75-.07.97-.22s.33-.36.33-.63c0-.22-.07-.4-.22-.54-.15-.13-.39-.24-.74-.31l-.95-.22c-.47-.1-.83-.29-1.09-.56s-.39-.59-.39-.96c0-.49.2-.89.59-1.2.39-.31.92-.46,1.56-.46.39,0,.77.06,1.12.19.35.13.64.31.88.55l-.3.66c-.53-.44-1.09-.66-1.7-.66-.4,0-.71.08-.93.23-.22.15-.33.37-.33.64,0,.23.07.41.21.55s.36.24.66.31l.95.23c.52.12.91.3,1.16.55.25.25.38.58.38.98,0,.48-.2.87-.59,1.16s-.93.43-1.61.43c-.95,0-1.69-.24-2.24-.73Z"/>
        <path class="cls-11" d="M614.61,290.99v3.53h-.9v-3.48c0-.53-.09-.91-.27-1.15-.18-.24-.48-.36-.89-.36-.48,0-.85.16-1.12.48-.27.32-.4.76-.4,1.31v3.2h-.9v-3.48c0-.52-.09-.9-.28-1.15-.19-.24-.48-.36-.89-.36-.48,0-.85.16-1.12.48-.27.32-.41.76-.41,1.31v3.2h-.9v-4.04c0-.58-.03-1.11-.09-1.57h.86l.09.98c.16-.36.39-.63.7-.83.31-.19.67-.29,1.08-.29.45,0,.81.09,1.09.27.28.18.49.45.63.83.17-.34.42-.6.75-.8.33-.2.71-.3,1.12-.3,1.24,0,1.86.74,1.86,2.22Z"/>
        <path class="cls-11" d="M621.49,288.9v5.62h-.89v-1.02c-.16.35-.41.62-.74.81-.33.19-.72.28-1.16.28-.5,0-.94-.12-1.31-.36-.38-.24-.67-.57-.87-1.01s-.31-.94-.31-1.52.1-1.09.31-1.54c.21-.44.5-.79.88-1.03.38-.25.81-.37,1.3-.37.44,0,.82.1,1.15.29.33.19.58.46.75.82v-.97h.89ZM620.15,293.28c.3-.38.45-.91.45-1.6s-.15-1.22-.45-1.6c-.3-.37-.72-.56-1.27-.56s-.98.19-1.29.58c-.31.38-.46.92-.46,1.6s.15,1.21.46,1.58c.31.37.74.56,1.3.56s.98-.19,1.27-.56Z"/>
        <path class="cls-11" d="M626.6,288.83l-.02.83c-.17-.06-.37-.09-.59-.09-.54,0-.95.17-1.21.51-.26.34-.4.75-.4,1.23v3.2h-.9v-4.04c0-.58-.03-1.11-.09-1.57h.86l.09,1.04c.14-.38.37-.67.68-.87.31-.2.67-.3,1.07-.3.19,0,.36.02.51.07Z"/>
        <path class="cls-11" d="M629.38,289.61v3.07c0,.42.09.71.26.88.17.17.41.25.73.25.21,0,.41-.03.6-.1v.77c-.23.07-.49.11-.78.11-.54,0-.95-.15-1.26-.45s-.45-.75-.45-1.33v-3.19h-1.09v-.72h1.09v-1.44l.9-.32v1.76h1.61v.72h-1.61Z"/>
        <path class="cls-11" d="M636.37,294.24c-.41-.24-.72-.57-.94-1.01-.22-.44-.33-.94-.33-1.52s.11-1.09.34-1.54c.22-.44.54-.79.95-1.03s.89-.37,1.45-.37c.38,0,.75.07,1.1.2.35.13.65.31.88.54l-.3.67c-.28-.22-.56-.39-.82-.49-.26-.1-.53-.16-.81-.16-.57,0-1.02.19-1.35.58s-.49.92-.49,1.6.16,1.2.49,1.58c.32.38.78.56,1.36.56.28,0,.55-.05.81-.16.26-.1.54-.27.82-.49l.3.67c-.24.22-.54.4-.9.53-.36.13-.74.19-1.12.19-.54,0-1.02-.12-1.42-.36Z"/>
        <path class="cls-11" d="M642.21,286.52v1.03h-1.11v-1.03h1.11ZM641.19,288.9h.9v5.62h-.9v-5.62Z"/>
        <path class="cls-11" d="M645.28,289.61v3.07c0,.42.09.71.26.88.17.17.41.25.73.25.21,0,.41-.03.6-.1v.77c-.23.07-.49.11-.78.11-.54,0-.95-.15-1.26-.45s-.45-.75-.45-1.33v-3.19h-1.09v-.72h1.09v-1.44l.9-.32v1.76h1.61v.72h-1.61Z"/>
        <path class="cls-11" d="M649.22,286.52v1.03h-1.11v-1.03h1.11ZM648.2,288.9h.9v5.62h-.9v-5.62Z"/>
        <path class="cls-11" d="M655.78,291.68h-4.12c0,.71.17,1.25.5,1.62.32.37.79.55,1.41.55.66,0,1.26-.22,1.81-.66l.3.66c-.25.23-.56.41-.94.55-.38.13-.78.2-1.18.2-.88,0-1.57-.26-2.07-.78-.5-.52-.75-1.23-.75-2.13,0-.57.11-1.08.34-1.52.22-.44.54-.79.94-1.03s.86-.37,1.37-.37c.74,0,1.33.24,1.75.73.42.49.64,1.16.64,2.02v.17ZM652.26,289.89c-.29.28-.48.68-.56,1.19h3.27c-.04-.53-.2-.93-.46-1.21-.26-.28-.63-.41-1.1-.41s-.85.14-1.14.42Z"/>
        <path class="cls-11" d="M657.03,293.87l.3-.67c.31.24.61.41.93.51s.66.16,1.05.16c.42,0,.75-.07.97-.22s.33-.36.33-.63c0-.22-.07-.4-.22-.54-.15-.13-.39-.24-.74-.31l-.95-.22c-.47-.1-.83-.29-1.09-.56s-.39-.59-.39-.96c0-.49.2-.89.59-1.2.39-.31.92-.46,1.56-.46.39,0,.77.06,1.12.19.35.13.64.31.88.55l-.3.66c-.53-.44-1.09-.66-1.7-.66-.4,0-.71.08-.93.23-.22.15-.33.37-.33.64,0,.23.07.41.21.55s.36.24.66.31l.95.23c.52.12.91.3,1.16.55.25.25.38.58.38.98,0,.48-.2.87-.59,1.16s-.93.43-1.61.43c-.95,0-1.69-.24-2.24-.73Z"/>
      </g>
    </g>
    <path class="cls-7" d="M729.99,71.95v139.41l-146.52,73.11-81.73,40.79-2.9,1.44-.83.41-2.07,1.04-2.91,1.45-2.89,1.44-.78.39-2.12,1.06-50.12,25.01-3.66,2.3v56.62l-59.03,32.28-2.28,1.22-17.22,9.23-2.82,1.51-.03.02-2.8,1.5-58.69,31.46V201.75c0-37.62,30.5-68.11,68.12-68.11h78.41v-61.68c0-37.62,30.5-68.11,68.11-68.11h156.64c37.62,0,68.11,30.5,68.11,68.11Z"/>
    <g>
      <rect class="cls-2" x="0" y="668.43" width="81.43" height="81.43" rx="30" ry="30"/>
      <g>
        <path class="cls-4" d="M58.64,719.84v1.77c0,2.11-1.73,3.84-3.85,3.84h-31.61c-2.11,0-3.85-1.73-3.85-3.84v-32.93l9.21,9.21h.07c-.03.16-.04.32-.04.48v18c0,1.92,1.57,3.48,3.48,3.48h26.57Z"/>
        <path class="cls-10" d="M58.64,701.73v18.1h-26.57c-1.92,0-3.48-1.56-3.48-3.48v-18c0-.16.01-.32.04-.48h26.17c2.11,0,3.85,1.73,3.85,3.85Z"/>
        <path class="cls-8" d="M64.17,688.68v27.68c0,1.92-1.57,3.48-3.48,3.48h-2.05v-18.1c0-2.11-1.73-3.85-3.85-3.85h-26.17c.23-1.69,1.69-3,3.45-3h24.81l7.29-6.2Z"/>
        <circle class="cls-2" cx="28.59" cy="709.92" r="2.85"/>
        <circle class="cls-11" cx="39.42" cy="710.97" r="1.79"/>
        <circle class="cls-2" cx="48.97" cy="709.92" r="2.85"/>
      </g>
    </g>
    <g>
      <rect class="cls-9" x="801" y="58.1" width="81.43" height="81.43" rx="30" ry="30"/>
      <g>
        <path class="cls-4" d="M859.64,109.51v1.77c0,2.11-1.73,3.84-3.85,3.84h-31.61c-2.11,0-3.85-1.73-3.85-3.84v-32.93l9.21,9.21h.07c-.03.16-.04.32-.04.48v18c0,1.92,1.57,3.48,3.48,3.48h26.57Z"/>
        <path class="cls-10" d="M859.64,91.4v18.1h-26.57c-1.92,0-3.48-1.56-3.48-3.48v-18c0-.16.01-.32.04-.48h26.17c2.11,0,3.85,1.73,3.85,3.85Z"/>
        <path class="cls-8" d="M865.17,78.35v27.68c0,1.92-1.57,3.48-3.48,3.48h-2.05v-18.1c0-2.11-1.73-3.85-3.85-3.85h-26.17c.23-1.69,1.69-3,3.45-3h24.81l7.29-6.2Z"/>
        <circle class="cls-2" cx="829.59" cy="99.58" r="2.85"/>
        <circle class="cls-11" cx="840.42" cy="100.64" r="1.79"/>
        <circle class="cls-2" cx="849.97" cy="99.58" r="2.85"/>
      </g>
    </g>
    <g>
      <path class="cls-4" d="M534.35,523.4v2.45c0,2.92-2.4,5.31-5.32,5.31h-43.71c-2.92,0-5.32-2.39-5.32-5.31v-45.54l12.74,12.73h.1c-.04.22-.05.44-.05.66v24.89c0,2.65,2.17,4.81,4.82,4.81h36.75Z"/>
      <path class="cls-10" d="M534.35,498.36v25.04h-36.75c-2.65,0-4.82-2.16-4.82-4.81v-24.89c0-.22.01-.45.05-.66h36.19c2.92,0,5.32,2.4,5.32,5.32Z"/>
      <path class="cls-8" d="M542,480.31v38.28c0,2.65-2.17,4.81-4.82,4.81h-2.83v-25.04c0-2.92-2.4-5.32-5.32-5.32h-36.19c.32-2.34,2.34-4.15,4.77-4.15h34.31l10.09-8.58Z"/>
      <circle class="cls-2" cx="492.79" cy="509.67" r="3.94"/>
      <circle class="cls-11" cx="507.77" cy="511.13" r="2.48"/>
      <circle class="cls-2" cx="520.97" cy="509.67" r="3.94"/>
    </g>
    <g>
      <path class="cls-4" d="M387.35,656.4v2.45c0,2.92-2.4,5.31-5.32,5.31h-43.71c-2.92,0-5.32-2.39-5.32-5.31v-45.54l12.74,12.73h.1c-.04.22-.05.44-.05.66v24.89c0,2.65,2.17,4.81,4.82,4.81h36.75Z"/>
      <path class="cls-10" d="M387.35,631.36v25.04h-36.75c-2.65,0-4.82-2.16-4.82-4.81v-24.89c0-.22.01-.45.05-.66h36.19c2.92,0,5.32,2.4,5.32,5.32Z"/>
      <path class="cls-8" d="M395,613.31v38.28c0,2.65-2.17,4.81-4.82,4.81h-2.83v-25.04c0-2.92-2.4-5.32-5.32-5.32h-36.19c.32-2.34,2.34-4.15,4.77-4.15h34.31l10.09-8.58Z"/>
      <circle class="cls-2" cx="345.79" cy="642.67" r="3.94"/>
      <circle class="cls-11" cx="360.77" cy="644.13" r="2.48"/>
      <circle class="cls-2" cx="373.97" cy="642.67" r="3.94"/>
    </g>
    <g>
      <rect class="cls-9" x="936.57" y="60.33" width="81.43" height="81.43" rx="30" ry="30"/>
      <polygon class="cls-10" points="987.93 88.08 987.95 114.26 993.97 114.26 993.97 88.08 987.93 88.08"/>
      <polygon class="cls-4" points="960.72 114.26 966.74 114.26 966.75 88.08 960.72 88.08 960.72 114.26"/>
      <rect class="cls-8" x="974.32" y="93.81" width="6.02" height="20.45"/>
      <path class="cls-2" d="M977.33,110.85l-13.3-14.78-6.95,13.43c-.33.64-1.12.89-1.75.56-.64-.33-.89-1.12-.56-1.75l8.67-16.77,13.89,15.43,13.91-15.42,8.67,16.77c.33.64.08,1.42-.56,1.75-.64.33-1.42.08-1.75-.56l-6.95-13.43-13.32,14.78Z"/>
    </g>
    <g>
      <rect class="cls-2" x="138.57" y="668.33" width="81.43" height="81.43" rx="30" ry="30"/>
      <polygon class="cls-10" points="189.93 696.08 189.95 722.26 195.97 722.26 195.97 696.08 189.93 696.08"/>
      <polygon class="cls-4" points="162.72 722.26 168.74 722.26 168.75 696.08 162.72 696.08 162.72 722.26"/>
      <rect class="cls-8" x="176.32" y="701.81" width="6.02" height="20.45"/>
      <path class="cls-9" d="M179.33,718.85l-13.3-14.78-6.95,13.43c-.33.64-1.12.89-1.75.56-.64-.33-.89-1.12-.56-1.75l8.67-16.77,13.89,15.43,13.91-15.42,8.67,16.77c.33.64.08,1.42-.56,1.75-.64.33-1.42.08-1.75-.56l-6.95-13.43-13.32,14.78Z"/>
    </g>
    <path class="cls-1" d="M579.48,663.5h-91.02s-64.46-7.97-64.81-72.34c-.29-53.63,0-422.63,0-422.63h9.45v415.25s3.75,57.6,62.57,65.92c60.82,0,83.8.64,83.8.64"/>
  </g>
</svg>