<?xml version="1.0" encoding="UTF-8"?>
<svg id="Capa_2" data-name="Capa 2" xmlns="http://www.w3.org/2000/svg" viewBox="0 0 140.22 140.22">
  <defs>
    <style>
      .cls-1 {
        fill: #eb5d40;
      }

      .cls-1, .cls-2 {
        stroke-width: 0px;
      }

      .cls-2 {
        fill: #fff;
      }
    </style>
  </defs>
  <g id="Capa_1-2" data-name="Capa 1">
    <g>
      <rect class="cls-1" width="140.22" height="140.22"/>
      <polygon class="cls-2" points="105.62 68.41 78.52 68.41 103.49 57.87 102.16 54.74 77.46 65.16 96.42 46.21 94.01 43.8 74.85 62.96 85.06 37.86 81.91 36.58 71.81 61.41 71.81 34.6 68.41 34.6 68.41 61.7 57.87 36.73 54.74 38.06 65.16 62.76 46.21 43.8 43.8 46.21 62.96 65.37 37.86 55.16 36.58 58.31 61.41 68.41 34.6 68.41 34.6 71.81 61.7 71.81 36.73 82.35 38.06 85.48 62.76 75.06 43.8 94.01 46.21 96.42 65.37 77.26 55.16 102.36 58.31 103.64 68.41 78.81 68.41 105.62 71.81 105.62 71.81 78.52 82.35 103.49 85.48 102.16 75.06 77.46 94.01 96.42 96.42 94.01 77.26 74.85 102.36 85.06 103.64 81.91 78.81 71.81 105.62 71.81 105.62 68.41"/>
    </g>
  </g>
</svg>