<?xml version="1.0" encoding="UTF-8"?>
<svg id="Capa_2" data-name="Capa 2" xmlns="http://www.w3.org/2000/svg" viewBox="0 0 140.22 140.22">
  <defs>
    <style>
      .cls-1 {
        fill: #eb5d40;
      }

      .cls-1, .cls-2, .cls-3 {
        stroke-width: 0px;
      }

      .cls-2 {
        fill: #745ba3;
      }

      .cls-3 {
        fill: #fdc300;
      }
    </style>
  </defs>
  <g id="Capa_1-2" data-name="Capa 1">
    <g>
      <circle class="cls-3" cx="45.8" cy="68.49" r="3.65"/>
      <path class="cls-3" d="M66.46,51.05c0-2.02,1.63-3.65,3.65-3.65s3.65,1.63,3.65,3.65-1.63,3.65-3.65,3.65-3.65-1.63-3.65-3.65Z"/>
      <rect class="cls-3" x="61.2" y="68.54" width="17.58" height="3.26"/>
      <circle class="cls-3" cx="94.37" cy="68.49" r="3.65"/>
      <path class="cls-3" d="M0,0v140.22h140.22V0H0ZM37.83,60.54h15.62v5.11h3.05v-9.31l12.73-18.57v-6.65h1.69v6.54l12.8,18.67v9.31h3.05v-5.11h15.62v39.63h-3.53v-15.3c0-2.48-2.01-4.5-4.5-4.5s-4.5,2.01-4.5,4.5v15.3h-15.27v-20.06c0-2.48-2.01-4.5-4.5-4.5s-4.5,2.01-4.5,4.5v20.06h-15.27v-15.3c0-2.48-2.01-4.5-4.5-4.5s-4.5,2.01-4.5,4.5v15.3h-3.53v-39.63Z"/>
      <g>
        <rect class="cls-1" x="23.73" y="108.65" width="92.76" height="5.47"/>
        <path class="cls-1" d="M94.37,64.84c-2.02,0-3.65,1.63-3.65,3.65s1.63,3.65,3.65,3.65,3.65-1.63,3.65-3.65-1.63-3.65-3.65-3.65ZM61.2,71.8h17.58v-3.26h-17.58v3.26ZM45.8,64.84c-2.02,0-3.65,1.63-3.65,3.65s1.63,3.65,3.65,3.65,3.65-1.63,3.65-3.65-1.63-3.65-3.65-3.65Z"/>
        <path class="cls-2" d="M98.86,84.88v15.3h-8.99v-15.3c0-2.48,2.01-4.5,4.5-4.5s4.5,2.01,4.5,4.5Z"/>
        <path class="cls-2" d="M74.61,80.11v20.06h-8.99v-20.06c0-2.48,2.01-4.5,4.5-4.5s4.5,2.01,4.5,4.5Z"/>
        <path class="cls-2" d="M50.35,84.88v15.3h-8.99v-15.3c0-2.48,2.01-4.5,4.5-4.5s4.5,2.01,4.5,4.5Z"/>
        <path class="cls-2" d="M73.76,51.05c0,2.01-1.63,3.65-3.65,3.65s-3.65-1.63-3.65-3.65,1.63-3.65,3.65-3.65,3.65,1.63,3.65,3.65Z"/>
        <circle class="cls-2" cx="45.8" cy="68.49" r="3.65"/>
        <circle class="cls-2" cx="94.37" cy="68.49" r="3.65"/>
        <rect class="cls-2" x="61.2" y="68.54" width="17.58" height="3.26"/>
        <path class="cls-1" d="M102.39,100.17v-39.63h-15.62v5.11h-3.05v-9.31l-12.8-18.67v-6.54h-1.69v6.65l-12.73,18.57v9.31h-3.05v-5.11h-15.62v39.63h-7.67v5.47h79.91v-5.47h-7.67ZM94.37,64.84c2.01,0,3.65,1.63,3.65,3.65s-1.63,3.65-3.65,3.65-3.65-1.63-3.65-3.65,1.63-3.65,3.65-3.65ZM70.11,47.4c2.01,0,3.65,1.63,3.65,3.65s-1.63,3.65-3.65,3.65-3.65-1.63-3.65-3.65,1.63-3.65,3.65-3.65ZM61.2,68.54h17.58v3.26h-17.58v-3.26ZM45.8,64.84c2.01,0,3.65,1.63,3.65,3.65s-1.63,3.65-3.65,3.65-3.65-1.63-3.65-3.65,1.63-3.65,3.65-3.65ZM41.35,100.17v-15.3c0-2.48,2.01-4.5,4.5-4.5s4.5,2.01,4.5,4.5v15.3h-8.99ZM65.61,100.17v-20.06c0-2.48,2.01-4.5,4.5-4.5s4.5,2.01,4.5,4.5v20.06h-8.99ZM89.87,100.17v-15.3c0-2.48,2.01-4.5,4.5-4.5s4.5,2.01,4.5,4.5v15.3h-8.99Z"/>
        <rect class="cls-1" x="69.23" y="28.12" width="1.69" height="3"/>
        <polygon class="cls-2" points="78.53 25.12 76.33 31.12 68.51 31.12 68.51 25.12 78.53 25.12"/>
        <polygon class="cls-2" points="30.16 105.64 23.73 108.65 116.49 108.65 110.07 105.64 30.16 105.64"/>
      </g>
    </g>
  </g>
</svg>