<?xml version="1.0" encoding="UTF-8"?>
<svg id="Capa_2" data-name="Capa 2" xmlns="http://www.w3.org/2000/svg" viewBox="0 0 567.57 30.36">
  <defs>
    <style>
      .cls-1 {
        fill: #1d1d1b;
        stroke-width: 0px;
      }
    </style>
  </defs>
  <g id="Capa_1-2" data-name="Capa 1">
    <g>
      <path class="cls-1" d="M0,27.72l1.1-2.44c1.11.87,2.24,1.49,3.37,1.87,1.14.38,2.41.57,3.82.57,1.54,0,2.72-.26,3.52-.79.8-.53,1.2-1.29,1.2-2.3,0-.81-.27-1.46-.81-1.95-.54-.49-1.44-.87-2.68-1.14l-3.45-.81c-1.71-.38-3.03-1.06-3.96-2.03-.93-.98-1.4-2.14-1.4-3.49,0-1.79.72-3.24,2.15-4.37,1.44-1.12,3.33-1.69,5.69-1.69,1.44,0,2.79.23,4.06.69,1.27.46,2.34,1.12,3.21,1.99l-1.1,2.4c-1.92-1.6-3.98-2.4-6.18-2.4-1.46,0-2.59.28-3.39.83-.8.56-1.2,1.33-1.2,2.34,0,.84.25,1.5.75,1.99.5.49,1.31.87,2.42,1.14l3.45.85c1.9.43,3.31,1.1,4.23,2.01.92.91,1.38,2.09,1.38,3.56,0,1.76-.72,3.17-2.15,4.23s-3.39,1.58-5.85,1.58c-3.44,0-6.16-.88-8.17-2.64Z"/>
      <path class="cls-1" d="M51.69,17.23v12.84h-3.29v-12.68c0-1.92-.33-3.32-1-4.19-.66-.87-1.74-1.3-3.23-1.3-1.73,0-3.09.58-4.06,1.75-.98,1.17-1.46,2.75-1.46,4.75v11.66h-3.29v-12.68c0-1.9-.34-3.28-1.02-4.17-.68-.88-1.76-1.32-3.25-1.32-1.73,0-3.1.58-4.08,1.75-.99,1.17-1.48,2.75-1.48,4.75v11.66h-3.29v-14.71c0-2.11-.11-4.02-.33-5.73h3.13l.33,3.58c.57-1.3,1.42-2.3,2.54-3.01,1.12-.7,2.43-1.06,3.92-1.06,1.63,0,2.95.33,3.98.98,1.03.65,1.79,1.65,2.28,3.01.62-1.22,1.54-2.19,2.74-2.91,1.21-.72,2.57-1.08,4.08-1.08,4.52,0,6.79,2.7,6.79,8.09Z"/>
      <path class="cls-1" d="M76.77,9.63v20.44h-3.25v-3.7c-.6,1.27-1.5,2.26-2.7,2.95-1.21.69-2.61,1.04-4.21,1.04-1.82,0-3.41-.43-4.78-1.3-1.37-.87-2.43-2.09-3.17-3.68-.75-1.58-1.12-3.43-1.12-5.55s.38-3.98,1.14-5.59c.76-1.61,1.82-2.87,3.19-3.76,1.37-.89,2.95-1.34,4.73-1.34,1.6,0,2.99.35,4.19,1.06,1.19.71,2.1,1.69,2.72,2.97v-3.54h3.25ZM71.89,25.58c1.08-1.37,1.63-3.31,1.63-5.83s-.54-4.46-1.63-5.81c-1.08-1.35-2.63-2.03-4.63-2.03s-3.57.7-4.69,2.09c-1.12,1.4-1.69,3.34-1.69,5.83s.56,4.42,1.67,5.77c1.11,1.35,2.68,2.03,4.71,2.03s3.55-.68,4.63-2.05Z"/>
      <path class="cls-1" d="M95.34,9.39l-.08,3.01c-.62-.22-1.34-.33-2.15-.33-1.98,0-3.45.62-4.41,1.85-.96,1.23-1.44,2.73-1.44,4.49v11.66h-3.29v-14.71c0-2.11-.11-4.02-.33-5.73h3.13l.33,3.78c.51-1.38,1.34-2.44,2.48-3.17,1.14-.73,2.44-1.1,3.9-1.1.68,0,1.3.08,1.87.24Z"/>
      <path class="cls-1" d="M105.46,12.23v11.18c0,1.52.31,2.58.93,3.19.62.61,1.5.91,2.64.91.76,0,1.49-.12,2.19-.37v2.8c-.84.27-1.79.41-2.84.41-1.95,0-3.48-.55-4.57-1.65s-1.65-2.72-1.65-4.86v-11.62h-3.98v-2.6h3.98v-5.24l3.29-1.18v6.42h5.85v2.6h-5.85Z"/>
      <path class="cls-1" d="M156.99,17.23v12.84h-3.29v-12.68c0-1.92-.33-3.32-1-4.19-.66-.87-1.74-1.3-3.23-1.3-1.73,0-3.09.58-4.06,1.75-.98,1.17-1.46,2.75-1.46,4.75v11.66h-3.29v-12.68c0-1.9-.34-3.28-1.02-4.17-.68-.88-1.76-1.32-3.25-1.32-1.73,0-3.1.58-4.08,1.75-.99,1.17-1.48,2.75-1.48,4.75v11.66h-3.29v-14.71c0-2.11-.11-4.02-.33-5.73h3.13l.33,3.58c.57-1.3,1.42-2.3,2.54-3.01,1.12-.7,2.43-1.06,3.92-1.06,1.63,0,2.95.33,3.98.98,1.03.65,1.79,1.65,2.28,3.01.62-1.22,1.54-2.19,2.74-2.91,1.21-.72,2.57-1.08,4.08-1.08,4.52,0,6.79,2.7,6.79,8.09Z"/>
      <path class="cls-1" d="M181.17,19.75h-15c.03,2.6.63,4.57,1.81,5.89,1.18,1.33,2.89,1.99,5.14,1.99,2.38,0,4.58-.8,6.58-2.4l1.1,2.4c-.89.84-2.04,1.5-3.43,1.99-1.4.49-2.82.73-4.29.73-3.2,0-5.7-.94-7.52-2.82-1.82-1.88-2.72-4.46-2.72-7.74,0-2.09.41-3.94,1.22-5.55.81-1.61,1.95-2.87,3.41-3.76,1.46-.89,3.13-1.34,5-1.34,2.71,0,4.84.89,6.38,2.66,1.54,1.77,2.32,4.22,2.32,7.34v.61ZM168.35,13.25c-1.07,1.03-1.75,2.48-2.05,4.35h11.91c-.16-1.92-.73-3.39-1.69-4.39-.96-1-2.3-1.5-4-1.5s-3.1.51-4.17,1.54Z"/>
      <path class="cls-1" d="M191.25,12.23v11.18c0,1.52.31,2.58.93,3.19.62.61,1.5.91,2.64.91.76,0,1.49-.12,2.19-.37v2.8c-.84.27-1.79.41-2.84.41-1.95,0-3.48-.55-4.57-1.65s-1.65-2.72-1.65-4.86v-11.62h-3.98v-2.6h3.98v-5.24l3.29-1.18v6.42h5.85v2.6h-5.85Z"/>
      <path class="cls-1" d="M213.28,9.39l-.08,3.01c-.62-.22-1.34-.33-2.15-.33-1.98,0-3.45.62-4.41,1.85-.96,1.23-1.44,2.73-1.44,4.49v11.66h-3.29v-14.71c0-2.11-.11-4.02-.33-5.73h3.13l.33,3.78c.51-1.38,1.34-2.44,2.48-3.17,1.14-.73,2.44-1.1,3.9-1.1.68,0,1.3.08,1.87.24Z"/>
      <path class="cls-1" d="M221.12.98v3.74h-4.02V.98h4.02ZM217.42,9.63h3.29v20.44h-3.29V9.63Z"/>
      <path class="cls-1" d="M231.3,29.06c-1.48-.87-2.62-2.09-3.41-3.68-.8-1.58-1.2-3.43-1.2-5.55s.41-3.98,1.22-5.59c.81-1.61,1.97-2.87,3.47-3.76,1.5-.89,3.26-1.34,5.26-1.34,1.38,0,2.72.24,4,.71,1.29.47,2.35,1.13,3.19,1.97l-1.1,2.44c-1.03-.81-2.03-1.41-2.99-1.79-.96-.38-1.94-.57-2.95-.57-2.09,0-3.73.7-4.92,2.09-1.19,1.4-1.79,3.34-1.79,5.83s.59,4.38,1.77,5.75c1.18,1.37,2.82,2.05,4.94,2.05,1,0,1.98-.19,2.95-.57.96-.38,1.96-.98,2.99-1.79l1.1,2.44c-.87.81-1.96,1.46-3.27,1.93-1.31.47-2.68.71-4.08.71-1.98,0-3.71-.43-5.18-1.3Z"/>
      <path class="cls-1" d="M247.58,27.72l1.1-2.44c1.11.87,2.24,1.49,3.37,1.87,1.14.38,2.41.57,3.82.57,1.54,0,2.72-.26,3.52-.79.8-.53,1.2-1.29,1.2-2.3,0-.81-.27-1.46-.81-1.95-.54-.49-1.44-.87-2.68-1.14l-3.45-.81c-1.71-.38-3.03-1.06-3.96-2.03-.93-.98-1.4-2.14-1.4-3.49,0-1.79.72-3.24,2.15-4.37,1.44-1.12,3.33-1.69,5.69-1.69,1.44,0,2.79.23,4.06.69,1.27.46,2.34,1.12,3.21,1.99l-1.1,2.4c-1.92-1.6-3.98-2.4-6.18-2.4-1.46,0-2.59.28-3.39.83-.8.56-1.2,1.33-1.2,2.34,0,.84.25,1.5.75,1.99.5.49,1.31.87,2.42,1.14l3.45.85c1.9.43,3.31,1.1,4.23,2.01.92.91,1.38,2.09,1.38,3.56,0,1.76-.72,3.17-2.15,4.23s-3.39,1.58-5.85,1.58c-3.44,0-6.16-.88-8.17-2.64Z"/>
      <path class="cls-1" d="M286.53,3.76c-.61.61-.91,1.66-.91,3.15v2.72h5v2.6h-5v17.84h-3.29V12.23h-3.98v-2.6h3.98v-3.13c0-2.14.53-3.76,1.61-4.86,1.07-1.1,2.57-1.65,4.49-1.65.95,0,1.87.12,2.76.37v2.8c-.76-.22-1.46-.33-2.11-.33-1.08,0-1.93.31-2.54.91Z"/>
      <path class="cls-1" d="M298.9,29.06c-1.46-.87-2.59-2.1-3.39-3.7-.8-1.6-1.2-3.47-1.2-5.61s.4-4.01,1.2-5.61c.8-1.6,1.93-2.83,3.39-3.7s3.16-1.3,5.08-1.3,3.62.43,5.08,1.3c1.46.87,2.59,2.1,3.39,3.7.8,1.6,1.2,3.47,1.2,5.61s-.4,4.01-1.2,5.61c-.8,1.6-1.93,2.83-3.39,3.7-1.46.87-3.16,1.3-5.08,1.3s-3.62-.43-5.08-1.3ZM308.66,25.62c1.08-1.34,1.63-3.3,1.63-5.87s-.56-4.42-1.67-5.79c-1.11-1.37-2.66-2.05-4.63-2.05s-3.56.68-4.67,2.05c-1.11,1.37-1.67,3.3-1.67,5.79s.55,4.53,1.65,5.87c1.1,1.34,2.66,2.01,4.69,2.01s3.59-.67,4.67-2.01Z"/>
      <path class="cls-1" d="M330.97,9.39l-.08,3.01c-.62-.22-1.34-.33-2.15-.33-1.98,0-3.45.62-4.41,1.85-.96,1.23-1.44,2.73-1.44,4.49v11.66h-3.29v-14.71c0-2.11-.11-4.02-.33-5.73h3.13l.33,3.78c.51-1.38,1.34-2.44,2.48-3.17,1.14-.73,2.44-1.1,3.9-1.1.68,0,1.3.08,1.87.24Z"/>
      <path class="cls-1" d="M345.27,27.72l1.1-2.44c1.11.87,2.24,1.49,3.37,1.87,1.14.38,2.41.57,3.82.57,1.54,0,2.72-.26,3.52-.79.8-.53,1.2-1.29,1.2-2.3,0-.81-.27-1.46-.81-1.95-.54-.49-1.44-.87-2.68-1.14l-3.45-.81c-1.71-.38-3.03-1.06-3.96-2.03-.93-.98-1.4-2.14-1.4-3.49,0-1.79.72-3.24,2.15-4.37,1.44-1.12,3.33-1.69,5.69-1.69,1.44,0,2.79.23,4.06.69,1.27.46,2.34,1.12,3.21,1.99l-1.1,2.4c-1.92-1.6-3.98-2.4-6.18-2.4-1.46,0-2.59.28-3.39.83-.8.56-1.2,1.33-1.2,2.34,0,.84.25,1.5.75,1.99.5.49,1.31.87,2.42,1.14l3.45.85c1.9.43,3.31,1.1,4.23,2.01.92.91,1.38,2.09,1.38,3.56,0,1.76-.72,3.17-2.15,4.23s-3.39,1.58-5.85,1.58c-3.44,0-6.16-.88-8.17-2.64Z"/>
      <path class="cls-1" d="M396.96,17.23v12.84h-3.29v-12.68c0-1.92-.33-3.32-1-4.19-.66-.87-1.74-1.3-3.23-1.3-1.73,0-3.09.58-4.06,1.75-.98,1.17-1.46,2.75-1.46,4.75v11.66h-3.29v-12.68c0-1.9-.34-3.28-1.02-4.17-.68-.88-1.76-1.32-3.25-1.32-1.73,0-3.1.58-4.08,1.75-.99,1.17-1.48,2.75-1.48,4.75v11.66h-3.29v-14.71c0-2.11-.11-4.02-.33-5.73h3.13l.33,3.58c.57-1.3,1.42-2.3,2.54-3.01,1.12-.7,2.43-1.06,3.92-1.06,1.63,0,2.95.33,3.98.98,1.03.65,1.79,1.65,2.28,3.01.62-1.22,1.54-2.19,2.74-2.91,1.21-.72,2.57-1.08,4.08-1.08,4.52,0,6.79,2.7,6.79,8.09Z"/>
      <path class="cls-1" d="M422.04,9.63v20.44h-3.25v-3.7c-.6,1.27-1.5,2.26-2.7,2.95-1.21.69-2.61,1.04-4.21,1.04-1.82,0-3.41-.43-4.78-1.3-1.37-.87-2.43-2.09-3.17-3.68-.75-1.58-1.12-3.43-1.12-5.55s.38-3.98,1.14-5.59c.76-1.61,1.82-2.87,3.19-3.76,1.37-.89,2.95-1.34,4.73-1.34,1.6,0,2.99.35,4.19,1.06,1.19.71,2.1,1.69,2.72,2.97v-3.54h3.25ZM417.16,25.58c1.08-1.37,1.63-3.31,1.63-5.83s-.54-4.46-1.63-5.81c-1.08-1.35-2.63-2.03-4.63-2.03s-3.57.7-4.69,2.09c-1.12,1.4-1.69,3.34-1.69,5.83s.56,4.42,1.67,5.77c1.11,1.35,2.68,2.03,4.71,2.03s3.55-.68,4.63-2.05Z"/>
      <path class="cls-1" d="M440.61,9.39l-.08,3.01c-.62-.22-1.34-.33-2.15-.33-1.98,0-3.45.62-4.41,1.85-.96,1.23-1.44,2.73-1.44,4.49v11.66h-3.29v-14.71c0-2.11-.11-4.02-.33-5.73h3.13l.33,3.78c.51-1.38,1.34-2.44,2.48-3.17,1.14-.73,2.44-1.1,3.9-1.1.68,0,1.3.08,1.87.24Z"/>
      <path class="cls-1" d="M450.73,12.23v11.18c0,1.52.31,2.58.93,3.19.62.61,1.5.91,2.64.91.76,0,1.49-.12,2.19-.37v2.8c-.84.27-1.79.41-2.84.41-1.95,0-3.48-.55-4.57-1.65s-1.65-2.72-1.65-4.86v-11.62h-3.98v-2.6h3.98v-5.24l3.29-1.18v6.42h5.85v2.6h-5.85Z"/>
      <path class="cls-1" d="M476.19,29.06c-1.48-.87-2.62-2.09-3.41-3.68-.8-1.58-1.2-3.43-1.2-5.55s.41-3.98,1.22-5.59c.81-1.61,1.97-2.87,3.47-3.76,1.5-.89,3.26-1.34,5.26-1.34,1.38,0,2.72.24,4,.71,1.29.47,2.35,1.13,3.19,1.97l-1.1,2.44c-1.03-.81-2.03-1.41-2.99-1.79-.96-.38-1.94-.57-2.95-.57-2.09,0-3.73.7-4.92,2.09-1.19,1.4-1.79,3.34-1.79,5.83s.59,4.38,1.77,5.75c1.18,1.37,2.82,2.05,4.94,2.05,1,0,1.98-.19,2.95-.57.96-.38,1.96-.98,2.99-1.79l1.1,2.44c-.87.81-1.96,1.46-3.27,1.93-1.31.47-2.68.71-4.08.71-1.98,0-3.71-.43-5.18-1.3Z"/>
      <path class="cls-1" d="M497.42.98v3.74h-4.02V.98h4.02ZM493.73,9.63h3.29v20.44h-3.29V9.63Z"/>
      <path class="cls-1" d="M508.6,12.23v11.18c0,1.52.31,2.58.93,3.19.62.61,1.5.91,2.64.91.76,0,1.49-.12,2.19-.37v2.8c-.84.27-1.79.41-2.84.41-1.95,0-3.48-.55-4.57-1.65s-1.65-2.72-1.65-4.86v-11.62h-3.98v-2.6h3.98v-5.24l3.29-1.18v6.42h5.85v2.6h-5.85Z"/>
      <path class="cls-1" d="M522.95.98v3.74h-4.02V.98h4.02ZM519.25,9.63h3.29v20.44h-3.29V9.63Z"/>
      <path class="cls-1" d="M546.84,19.75h-15c.03,2.6.63,4.57,1.81,5.89,1.18,1.33,2.89,1.99,5.14,1.99,2.38,0,4.58-.8,6.58-2.4l1.1,2.4c-.89.84-2.04,1.5-3.43,1.99-1.4.49-2.82.73-4.29.73-3.2,0-5.7-.94-7.52-2.82-1.82-1.88-2.72-4.46-2.72-7.74,0-2.09.41-3.94,1.22-5.55.81-1.61,1.95-2.87,3.41-3.76,1.46-.89,3.13-1.34,5-1.34,2.71,0,4.84.89,6.38,2.66,1.54,1.77,2.32,4.22,2.32,7.34v.61ZM534.02,13.25c-1.07,1.03-1.75,2.48-2.05,4.35h11.91c-.16-1.92-.73-3.39-1.69-4.39-.96-1-2.3-1.5-4-1.5s-3.1.51-4.17,1.54Z"/>
      <path class="cls-1" d="M551.39,27.72l1.1-2.44c1.11.87,2.24,1.49,3.37,1.87,1.14.38,2.41.57,3.82.57,1.54,0,2.72-.26,3.52-.79.8-.53,1.2-1.29,1.2-2.3,0-.81-.27-1.46-.81-1.95-.54-.49-1.44-.87-2.68-1.14l-3.45-.81c-1.71-.38-3.03-1.06-3.96-2.03-.93-.98-1.4-2.14-1.4-3.49,0-1.79.72-3.24,2.15-4.37,1.44-1.12,3.33-1.69,5.69-1.69,1.44,0,2.79.23,4.06.69,1.27.46,2.34,1.12,3.21,1.99l-1.1,2.4c-1.92-1.6-3.98-2.4-6.18-2.4-1.46,0-2.59.28-3.39.83-.8.56-1.2,1.33-1.2,2.34,0,.84.25,1.5.75,1.99.5.49,1.31.87,2.42,1.14l3.45.85c1.9.43,3.31,1.1,4.23,2.01.92.91,1.38,2.09,1.38,3.56,0,1.76-.72,3.17-2.15,4.23s-3.39,1.58-5.85,1.58c-3.44,0-6.16-.88-8.17-2.64Z"/>
    </g>
  </g>
</svg>