<?xml version="1.0" encoding="UTF-8"?>
<svg id="Capa_2" data-name="Capa 2" xmlns="http://www.w3.org/2000/svg" viewBox="0 0 140.22 140.22">
  <defs>
    <style>
      .cls-1 {
        fill: #339898;
      }

      .cls-1, .cls-2 {
        stroke-width: 0px;
      }

      .cls-2 {
        fill: #745ba3;
      }
    </style>
  </defs>
  <g id="Capa_1-2" data-name="Capa 1">
    <g>
      <rect class="cls-1" width="140.22" height="140.22"/>
      <g>
        <rect class="cls-2" x="34.42" y="34.95" width="13.47" height="13.47" transform="translate(-17.42 41.31) rotate(-45)"/>
        <rect class="cls-2" x="53.51" y="34.95" width="13.47" height="13.47" transform="translate(-11.83 54.81) rotate(-45)"/>
        <rect class="cls-2" x="72.6" y="34.95" width="13.47" height="13.47" transform="translate(-6.24 68.31) rotate(-45)"/>
        <rect class="cls-2" x="91.69" y="34.95" width="13.47" height="13.47" transform="translate(-.65 81.8) rotate(-45)"/>
        <rect class="cls-2" x="34.42" y="54.09" width="13.47" height="13.47" transform="translate(-30.95 46.92) rotate(-45)"/>
        <rect class="cls-2" x="53.51" y="54.09" width="13.47" height="13.47" transform="translate(-25.36 60.41) rotate(-45)"/>
        <rect class="cls-2" x="72.6" y="54.09" width="13.47" height="13.47" transform="translate(-19.77 73.91) rotate(-45)"/>
        <rect class="cls-2" x="91.69" y="54.09" width="13.47" height="13.47" transform="translate(-14.18 87.41) rotate(-45)"/>
        <rect class="cls-2" x="34.42" y="73.23" width="13.47" height="13.47" transform="translate(-44.49 52.52) rotate(-45)"/>
        <rect class="cls-2" x="53.51" y="73.23" width="13.47" height="13.47" transform="translate(-38.9 66.02) rotate(-45)"/>
        <rect class="cls-2" x="72.6" y="73.23" width="13.47" height="13.47" transform="translate(-33.3 79.52) rotate(-45)"/>
        <rect class="cls-2" x="91.69" y="73.23" width="13.47" height="13.47" transform="translate(-27.71 93.02) rotate(-45)"/>
        <rect class="cls-2" x="34.42" y="92.37" width="13.47" height="13.47" transform="translate(-58.02 58.13) rotate(-45)"/>
        <rect class="cls-2" x="53.51" y="92.37" width="13.47" height="13.47" transform="translate(-52.43 71.62) rotate(-45)"/>
        <rect class="cls-2" x="72.6" y="92.37" width="13.47" height="13.47" transform="translate(-46.84 85.12) rotate(-45)"/>
        <rect class="cls-2" x="91.69" y="92.37" width="13.47" height="13.47" transform="translate(-41.25 98.62) rotate(-45)"/>
      </g>
    </g>
  </g>
</svg>