<?xml version="1.0" encoding="UTF-8"?>
<svg id="Capa_2" data-name="Capa 2" xmlns="http://www.w3.org/2000/svg" viewBox="0 0 140.22 140.22">
  <defs>
    <style>
      .cls-1 {
        fill: #009fe3;
      }

      .cls-1, .cls-2 {
        stroke-width: 0px;
      }

      .cls-2 {
        fill: #fff;
      }
    </style>
  </defs>
  <g id="Capa_1-2" data-name="Capa 1">
    <g>
      <rect class="cls-1" width="140.22" height="140.22"/>
      <g>
        <path class="cls-2" d="M97.1,30.25h-53.98c-5.15,0-9.32,4.17-9.32,9.32v10.06c0,5.14,4.16,9.31,9.29,9.32v9.19l7.77-9.19h46.24c5.15,0,9.32-4.17,9.32-9.32v-10.06c0-5.15-4.17-9.32-9.32-9.32Z"/>
        <path class="cls-2" d="M97.1,80.56h-53.98c-5.15,0-9.32,4.17-9.32,9.32v10.06c0,5.15,4.17,9.32,9.32,9.32h46.24l7.77,9.19v-9.19c5.14-.02,9.29-4.18,9.29-9.32v-10.06c0-5.15-4.17-9.32-9.32-9.32Z"/>
      </g>
    </g>
  </g>
</svg>