<?xml version="1.0" encoding="UTF-8"?>
<svg id="Capa_2" data-name="Capa 2" xmlns="http://www.w3.org/2000/svg" xmlns:xlink="http://www.w3.org/1999/xlink" viewBox="0 0 204 222">
  <defs>
    <style>
      .cls-1 {
        fill: url(#Degradado_sin_nombre_84);
      }

      .cls-1, .cls-2, .cls-3, .cls-4, .cls-5 {
        stroke-width: 0px;
      }

      .cls-2 {
        fill: #e3e2e2;
        filter: url(#drop-shadow-1);
      }

      .cls-3 {
        fill: url(#Degradado_sin_nombre_84-3);
      }

      .cls-4 {
        fill: url(#Degradado_sin_nombre_84-2);
      }

      .cls-5 {
        fill: #eb5d40;
      }
    </style>
    <filter id="drop-shadow-1" filterUnits="userSpaceOnUse">
      <feOffset dx="7" dy="7"/>
      <feGaussianBlur result="blur" stdDeviation="5"/>
      <feFlood flood-color="#000" flood-opacity=".2"/>
      <feComposite in2="blur" operator="in"/>
      <feComposite in="SourceGraphic"/>
    </filter>
    <linearGradient id="Degradado_sin_nombre_84" data-name="Degradado sin nombre 84" x1="45.99" y1="109.1" x2="48.5" y2="101.58" gradientUnits="userSpaceOnUse">
      <stop offset="0" stop-color="#be1622"/>
      <stop offset="1" stop-color="#eb5d40" stop-opacity="0"/>
    </linearGradient>
    <linearGradient id="Degradado_sin_nombre_84-2" data-name="Degradado sin nombre 84" x1="44.34" y1="119.15" x2="40.41" y2="126.31" xlink:href="#Degradado_sin_nombre_84"/>
    <linearGradient id="Degradado_sin_nombre_84-3" data-name="Degradado sin nombre 84" x1="151.21" y1="103.27" x2="142.9" y2="118.39" xlink:href="#Degradado_sin_nombre_84"/>
  </defs>
  <g id="Capa_4" data-name="Capa 4">
    <path class="cls-2" d="M181.47,29.44v148.57c0,11.84-11.57,21.44-25.84,21.44H34.52c-14.28,0-25.84-9.6-25.84-21.44V29.44c0-11.85,11.56-21.44,25.84-21.44h121.11c14.26,0,25.84,9.59,25.84,21.44Z"/>
    <g>
      <path class="cls-5" d="M161.31,118.68c-1.59-2.64-2.84-5.64-4.15-8.81-.91-2.2-1.85-4.5-2.96-6.76-3.89-7.91-8.96-13.12-15.1-15.45-8.08-3.1-17.86-1.02-26.82,5.7-3.1,2.32-5.85,4.92-8.51,7.41-2.84,2.69-5.53,5.22-8.46,7.26-9.63,6.73-23.18,8.72-37.18,5.47-1.73-.39-3.61-.93-5.53-1.61.84-3.55,1.4-7.28,1.7-11.09.02-.11.02-.21.02-.32.76-10.07-.82-18.03-4.8-24.33-3.55-5.64-8.84-8.54-14.14-7.75-6.61.97-11.15,7.2-11.85,16.24-.68,8.92.9,16.9,4.57,23.1,2.35,3.98,5.65,7.41,9.8,10.25-1.09,2.58-2.45,5.16-4.13,7.66-.68,1.03-1.44,2.05-2.25,3.05-6.01,7.43-14.41,12.12-22.84,12.85v12.2c12.03-.74,23.97-7.14,32.29-17.39,1.46-1.81,2.82-3.74,4.07-5.76,1.4-2.28,2.64-4.66,3.75-7.17,2.08.73,4.28,1.37,6.59,1.91,17.36,4.02,34.45,1.35,46.89-7.35,3.66-2.55,6.8-5.51,9.84-8.37,2.52-2.38,4.91-4.63,7.46-6.53,4.53-3.39,9.19-5.03,12.96-4.62.79.09,1.53.26,2.25.53,3.93,1.5,6.8,5.97,8.51,9.45.94,1.91,1.78,3.93,2.66,6.06,1.41,3.45,2.89,7,4.95,10.43,1.58,2.63,3.49,5.09,5.68,7.34,6.42,6.62,15.16,11.41,24.89,13.61v-12.53c-8.67-2.55-16.01-7.78-20.16-14.69ZM42.34,97.41c-.03.79-.08,1.59-.14,2.43-.14,1.69-.35,3.52-.67,5.48-1.14-1.12-2.14-2.38-2.98-3.78-3.02-5.1-3.25-11.5-2.9-15.96.21-2.75,1.03-4.54,1.52-5.09.44.21,1.31.91,2.08,2.14,2.28,3.61,3.3,8.48,3.08,14.78Z"/>
      <path class="cls-1" d="M54.33,100.48c0,.11,0,.21-.02.32-.3,3.81-.87,7.53-1.7,11.09-5.53-1.61-11.07-6.56-11.07-6.56.32-1.96.53-3.8.67-5.48.06-.84.11-1.64.14-2.43,5.21-.29,9.19,1.26,11.98,3.07Z"/>
      <path class="cls-4" d="M48.8,123.43c-1.11,2.51-2.35,4.89-3.75,7.17-3.2-1.06-7.69-2.76-11.27-4.95,1.69-2.49,3.04-5.07,4.13-7.66,0,0,7.76,4.44,10.89,5.44Z"/>
      <path class="cls-3" d="M156.57,132.29c-2.19-2.25-4.1-4.71-5.68-7.34-2.07-3.43-3.54-6.99-4.95-10.43-.88-2.13-1.72-4.15-2.66-6.06-1.7-3.48-4.57-7.94-8.51-9.45-.71-.27-1.46-.44-2.25-.53,0,0,9.33.52,13.44,9.17,4.12,8.66,3.3,13.81,10.6,24.64Z"/>
    </g>
  </g>
</svg>