<?xml version="1.0" encoding="UTF-8"?>
<svg xmlns="http://www.w3.org/2000/svg" xmlns:xlink="http://www.w3.org/1999/xlink" viewBox="0 0 204 222">
  <defs>
    <style>
      .cls-1 {
        fill: #e3e2e2;
        filter: url(#drop-shadow-1);
      }

      .cls-1, .cls-2, .cls-3, .cls-4 {
        stroke-width: 0px;
      }

      .cls-2 {
        fill: #339898;
      }

      .cls-3 {
        fill: url(#Degradado_sin_nombre_3-2);
      }

      .cls-3, .cls-4 {
        mix-blend-mode: multiply;
      }

      .cls-5 {
        isolation: isolate;
      }

      .cls-4 {
        fill: url(#Degradado_sin_nombre_3);
      }
    </style>
    <filter id="drop-shadow-1" filterUnits="userSpaceOnUse">
      <feOffset dx="7" dy="7"/>
      <feGaussianBlur result="blur" stdDeviation="5"/>
      <feFlood flood-color="#000" flood-opacity=".2"/>
      <feComposite in2="blur" operator="in"/>
      <feComposite in="SourceGraphic"/>
    </filter>
    <linearGradient id="Degradado_sin_nombre_3" data-name="Degradado sin nombre 3" x1="90.94" y1="113.05" x2="100.44" y2="117.41" gradientUnits="userSpaceOnUse">
      <stop offset="0" stop-color="#063"/>
      <stop offset="1" stop-color="#339898" stop-opacity="0"/>
    </linearGradient>
    <linearGradient id="Degradado_sin_nombre_3-2" data-name="Degradado sin nombre 3" x1="83.08" y1="114.67" x2="76.35" y2="109.92" xlink:href="#Degradado_sin_nombre_3"/>
  </defs>
  <g class="cls-5">
    <g id="Capa_2" data-name="Capa 2">
      <g id="Capa_4" data-name="Capa 4">
        <path class="cls-1" d="M181.24,27.99v151.46c0,11.04-11.56,20-25.82,20H34.29c-14.26,0-25.84-8.96-25.84-20V27.99c0-11.04,11.57-19.99,25.84-19.99h121.13c14.26,0,25.82,8.95,25.82,19.99Z"/>
        <g>
          <path class="cls-2" d="M179.62,89.01c-19.24,10.78-41.12,17.94-63.25,20.69-3.9.49-7.52.76-10.86.85-3.17.08-6.12-.02-8.84-.3.15-.24.32-.49.47-.74,8.38-13.38,12.17-27.75,10.95-41.53-.68-7.9-3.58-15.6-8.13-21.7-5.41-7.23-12.73-11.76-21.19-13.06-19.53-3.02-35.6,13.34-38.38,30.51-1.32,8.22-.52,15.98,2.38,23.09,2.38,5.86,6.21,11.27,11.36,16.08,5.35,5,11.32,8.61,16.18,11.09,2.26,1.17,4.28,2.08,5.89,2.78-5.16,5.35-11.16,10.25-17.8,14.55-11.01,7.11-24.07,12.96-39.89,17.86-3.25,1-6.59,1.97-10.07,2.89v12.44c4.74-1.22,9.26-2.48,13.62-3.84,16.89-5.24,30.91-11.53,42.86-19.26,9.01-5.82,16.98-12.7,23.57-20.28,2.99.65,6.55,1.17,10.78,1.37,5.1.24,11.19.05,18.55-.87,22.05-2.73,43.86-9.57,63.4-19.84v-13.7c-.53.32-1.08.62-1.63.93ZM86.95,103.12c-.85,1.35-1.75,2.69-2.69,4.01-.05-.02-.09-.03-.15-.06-.41-.18-.9-.39-1.47-.64-1.32-.56-3.27-1.38-5.54-2.49-4.37-2.14-9.95-5.35-14.73-9.83-8.6-8.03-11.89-17.35-10.1-28.48.91-5.64,4.13-11.39,8.6-15.37,2.89-2.57,7.4-5.41,13.21-5.41.93,0,1.87.08,2.86.23,11.91,1.85,18.3,13.7,19.2,23.94.99,11.16-2.19,22.95-9.17,34.1Z"/>
          <path class="cls-4" d="M105.52,110.55c-1.6,5.45-3.96,9.29-6.22,11.94-4.24-.2-7.79-.71-10.79-1.37,4.83-5.31,8.16-10.87,8.16-10.87,2.73.28,5.67.38,8.85.3Z"/>
          <path class="cls-3" d="M84.12,107.08s-3.5,6.13-7.91,9.69c-1.61-.7-3.64-1.61-5.89-2.77,2.36-2.9,4.94-6.45,6.78-10.05,2.27,1.11,4.21,1.94,5.55,2.5.57.24,1.07.45,1.48.64Z"/>
        </g>
      </g>
    </g>
  </g>
</svg>