<?xml version="1.0" encoding="UTF-8"?>
<svg id="Capa_2" data-name="Capa 2" xmlns="http://www.w3.org/2000/svg" viewBox="0 0 109.53 109.53">
  <defs>
    <style>
      .cls-1 {
        fill: #22228b;
      }

      .cls-1, .cls-2, .cls-3, .cls-4, .cls-5, .cls-6 {
        stroke-width: 0px;
      }

      .cls-2 {
        fill: #e3e2e2;
      }

      .cls-3 {
        fill: #009fe3;
      }

      .cls-4 {
        fill: #fdc300;
      }

      .cls-5 {
        fill: #e6007e;
      }

      .cls-6 {
        fill: #fff;
      }
    </style>
  </defs>
  <g id="Capa_4" data-name="Capa 4">
    <g>
      <circle class="cls-1" cx="54.76" cy="54.76" r="54.76"/>
      <g>
        <path class="cls-3" d="M77.52,68.25v2.1c0,2.5-2.05,4.55-4.56,4.55h-37.45c-2.5,0-4.56-2.05-4.56-4.55V31.33l10.91,10.91h.09c-.03.19-.04.38-.04.57v21.32c0,2.27,1.86,4.12,4.13,4.12h31.48Z"/>
        <path class="cls-5" d="M77.52,46.8v21.45h-31.48c-2.27,0-4.13-1.85-4.13-4.12v-21.32c0-.19.01-.38.04-.57h31.01c2.5,0,4.56,2.05,4.56,4.56Z"/>
        <path class="cls-4" d="M84.07,31.33v32.79c0,2.27-1.86,4.12-4.13,4.12h-2.42v-21.45c0-2.5-2.05-4.56-4.56-4.56h-31.01c.28-2,2-3.56,4.08-3.56h29.39l8.64-7.35Z"/>
        <circle class="cls-2" cx="41.91" cy="56.49" r="3.37"/>
        <circle class="cls-6" cx="54.74" cy="57.74" r="2.12"/>
        <circle class="cls-2" cx="66.05" cy="56.49" r="3.37"/>
      </g>
    </g>
  </g>
</svg>