<?xml version="1.0" encoding="UTF-8"?>
<svg id="Capa_2" data-name="Capa 2" xmlns="http://www.w3.org/2000/svg" viewBox="0 0 140.22 140.22">
  <defs>
    <style>
      .cls-1 {
        fill: #745ba3;
      }

      .cls-1, .cls-2, .cls-3 {
        stroke-width: 0px;
      }

      .cls-2 {
        fill: #fdc300;
      }

      .cls-3 {
        fill: #e6007e;
      }
    </style>
  </defs>
  <g id="Capa_1-2" data-name="Capa 1">
    <g>
      <path class="cls-3" d="M0,0v140.22h140.22V0H0Z"/>
      <ellipse class="cls-1" cx="70.11" cy="102.57" rx="13.09" ry="3.13"/>
      <path class="cls-2" d="M83.06,42.19c-.26-.76-1.18-1.04-1.82-.56-1.3.98-3.52,2.84-6.19,5.77-1.48-.61-3.09-.95-4.78-.97-1.8-.02-3.53.32-5.09.96-2.67-2.93-4.89-4.78-6.19-5.76-.64-.48-1.56-.2-1.82.56-2.55,7.45-.05,19.14.06,19.63,0,.01,0,.02,0,.02.12.68.29,1.34.52,1.98l.14.4,10.17,27.88c.7,1.92,3.41,1.92,4.11,0l10.17-27.88.14-.4c.22-.64.4-1.3.52-1.98,0,0,0,0,0-.02.11-.49,2.61-12.17.06-19.63ZM70.11,63.42c-2.24,0-4.06-1.82-4.06-4.06s1.82-4.06,4.06-4.06,4.06,1.82,4.06,4.06-1.82,4.06-4.06,4.06Z"/>
    </g>
  </g>
</svg>