<svg data-name="Capa 2" version="1.1" viewBox="0 0 609.95 117.7" xml:space="preserve" xmlns="http://www.w3.org/2000/svg"><defs><style>
      .cls-1 {
        fill: #1d1d1b;
        stroke-width: 0px;
      }
    </style></defs><path class="cls-1" d="m274.3 9.77h11.21l0.09 7.35c2.24-5.11 6.72-8.07 12.37-8.07 6.28 0 10.85 3.05 12.91 8.25 2.69-5.2 7.35-8.25 13.36-8.25 8.88 0 14.16 6.19 14.16 15.6v30.21h-11.56v-27.43c0-5.11-2.33-8.16-6.81-8.16-5.11 0-7.89 3.14-7.89 9.77v25.82h-11.56v-27.43c0-5.11-2.33-8.16-6.81-8.16-5.11 0-7.89 3.14-7.89 9.77v25.82h-11.56v-45.09z"/><path class="cls-1" d="m374.34 56.03c-17.75 0-26.62-10.04-26.62-23.85 0-12.64 8.25-23.58 22.86-23.58 12.73 0 20.17 10.4 20.17 22.5 0 1.61-0.09 3.85-0.36 5.29h-30.66c1.43 6.36 6.54 9.86 15.87 9.86 5.02 0 10.13-1.52 13.09-3.68v10.13c-3.23 2.15-9.5 3.32-14.34 3.32zm-4.21-37.74c-5.83 0-9.59 3.85-10.58 10.04h19.9c-0.72-6.1-4.12-10.04-9.32-10.04z"/><path class="cls-1" d="m426.51 9.77v9.32h-12.28v19.18c0 4.93 2.42 6.9 7.44 6.9 1.52 0 3.59-0.45 5.2-1.25v9.32c-1.79 1.43-5.47 2.15-8.61 2.15-10.4 0-15.6-5.56-15.6-14.61v-21.69h-6.1v-2.51l14.16-16.58h3.5v9.77h12.28z"/><path class="cls-1" d="m457.08 21.25c-5.47 0-9.23 2.87-9.23 11.3v22.32h-11.56v-45.1h10.94l0.09 9.77c1.97-5.92 5.65-10.49 12.1-10.49 2.06 0 4.12 0.72 5.38 2.06l-2.15 11.56c-1.52-0.9-3.59-1.43-5.56-1.43z"/><path class="cls-1" d="m472.41 9.77h11.56v45.09h-11.56z"/><path class="cls-1" d="m519.56 19.18c-6.45 0-13.98 3.32-13.98 12.55 0 9.95 7.53 14.16 15.69 14.16 3.32 0 7.17-1.08 9.77-2.78v10.22c-2.06 1.25-6.45 2.6-11.47 2.6-10.94 0-25.73-6.01-25.73-23.58 0-18.56 15.69-23.49 25.91-23.49 5.56 0 9.32 1.26 11.74 2.96l-2.69 9.95c-2.42-1.52-5.65-2.6-9.23-2.6z"/><path class="cls-1" d="m567.79 21.78c-3.41-2.42-7.62-3.32-10.85-3.32-4.66 0-6.9 1.43-6.9 3.85 0 1.79 0.81 2.69 4.21 4.03l7.17 2.87c6.54 2.6 10.13 5.83 10.13 12.37 0 9.05-7.08 14.52-18.02 14.52-5.02 0-11.03-1.25-13.9-3.94v-10.4c5.02 3.68 9.95 4.66 13.98 4.66 4.39 0 6.63-1.43 6.63-4.03 0-1.97-1.17-2.69-4.57-4.03l-7.35-2.87c-5.92-2.33-9.68-5.65-9.68-12.55 0-8.43 7.08-14.25 19.18-14.25 4.66 0 9.5 1.17 12.46 3.32l-2.51 9.77z"/><path class="cls-1" d="m65.54 27.43v27.32h-7.94v-23.95c0-3.96-0.09-6.41-0.37-8.69-0.74-5.06-4.25-7.51-9.78-7.51-6.18 0-10.71 4.47-10.71 18.05v22.09h-7.94v-23.95c0-3.96-0.09-6.41-0.37-8.69-0.74-5.06-4.25-7.51-9.78-7.51-6.18 0-10.71 4.47-10.71 18.05v22.09h-7.94v-44.67h7.94v6.49s2.11-7.67 13.48-7.67c7.48 0 12.28 3.46 14.12 8.35 0 0 1.98-8.35 14.68-8.35 8.77 0 13.75 4.72 14.86 10.88 0.37 2.28 0.46 4.05 0.46 7.67z"/><path class="cls-1" d="m120.73 34.6h-35.45c0.74 11.81 6.83 15.77 14.03 15.77 6.37 0 11.54-3.63 12.65-10.03h8.31c-1.94 10.79-11.26 15.6-21.32 15.6-12.74 0-22.25-7.59-22.25-23.36 0-14.5 9.88-23.7 23.26-23.7s20.95 9.19 20.95 22.26c0 0.67 0 1.85-0.18 3.46zm-35.35-5.57h27.51c-0.74-9.28-5.08-14.59-13.11-14.59s-13.48 5.06-14.4 14.59z"/><path class="cls-1" d="m177.78 32.41c0 12.56-7.66 23.53-24.28 23.53s-24.28-10.96-24.28-23.53 7.66-23.53 24.28-23.53 24.28 10.88 24.28 23.53zm-8.68 0c0-10.54-5.72-17.96-15.6-17.96s-15.6 7.42-15.6 17.96 5.72 17.96 15.6 17.96 15.6-7.51 15.6-17.96z"/><path class="cls-1" d="m238.99 54.75h-9.71l-10.89-37.61-10.89 37.61h-9.42l-15.6-44.69h8l12.49 37.78 10.71-37.78h9.88l10.89 37.52 11.85-37.52h8z"/><path class="cls-1" d="m603.63 10.33c1.96 1.13 3.5 2.67 4.62 4.62 1.13 1.96 1.69 4.12 1.69 6.49s-0.56 4.57-1.69 6.53-2.67 3.5-4.64 4.64-4.14 1.71-6.51 1.71-4.54-0.57-6.51-1.71-3.52-2.69-4.64-4.64c-1.13-1.96-1.69-4.13-1.69-6.53s0.56-4.57 1.69-6.51 2.67-3.48 4.62-4.61c1.96-1.13 4.13-1.69 6.53-1.69s4.57 0.56 6.53 1.69zm-0.85 20.91c1.7-0.98 3.03-2.34 4-4.06s1.46-3.63 1.46-5.74-0.49-3.98-1.46-5.69-2.31-3.05-4-4.04c-1.7-0.98-3.59-1.48-5.67-1.48s-3.98 0.49-5.69 1.48c-1.71 0.98-3.05 2.33-4.02 4.04s-1.46 3.61-1.46 5.69 0.49 4.03 1.46 5.74c0.97 1.72 2.31 3.07 4.02 4.06 1.71 0.98 3.6 1.48 5.69 1.48s3.98-0.49 5.67-1.48zm-1.3-6.84 2.77 4.66h-2.95l-2.85-4.87c-0.28-0.45-0.59-0.76-0.92-0.94s-0.76-0.27-1.28-0.27h-1.89v6.08h-2.63v-15.19h6.33c1.68 0 2.98 0.4 3.9 1.19 0.91 0.79 1.37 1.9 1.37 3.33 0 1.16-0.34 2.13-1.01 2.9-0.68 0.77-1.63 1.25-2.86 1.44 0.78 0.21 1.46 0.77 2.03 1.67zm-1.49-4.08c0.47-0.39 0.71-1 0.71-1.83 0-0.88-0.24-1.51-0.71-1.9s-1.22-0.59-2.24-0.59h-3.38v4.91h3.38c1.02 0 1.77-0.2 2.24-0.59z"/><g fill="#1d1d1b"><g transform="matrix(1.8897638,0,0,1.8897638,179.48001,-158.86005)"><g transform="matrix(.26458333 0 0 .26458333 38.364583 127)" stroke-width="0px"><path class="cls-1" d="m274.3 9.77h11.21l0.09 7.35c2.24-5.11 6.72-8.07 12.37-8.07 6.28 0 10.85 3.05 12.91 8.25 2.69-5.2 7.35-8.25 13.36-8.25 8.88 0 14.16 6.19 14.16 15.6v30.21h-11.56v-27.43c0-5.11-2.33-8.16-6.81-8.16-5.11 0-7.89 3.14-7.89 9.77v25.82h-11.56v-27.43c0-5.11-2.33-8.16-6.81-8.16-5.11 0-7.89 3.14-7.89 9.77v25.82h-11.56v-45.09z"/><path class="cls-1" d="m374.34 56.03c-17.75 0-26.62-10.04-26.62-23.85 0-12.64 8.25-23.58 22.86-23.58 12.73 0 20.17 10.4 20.17 22.5 0 1.61-0.09 3.85-0.36 5.29h-30.66c1.43 6.36 6.54 9.86 15.87 9.86 5.02 0 10.13-1.52 13.09-3.68v10.13c-3.23 2.15-9.5 3.32-14.34 3.32zm-4.21-37.74c-5.83 0-9.59 3.85-10.58 10.04h19.9c-0.72-6.1-4.12-10.04-9.32-10.04z"/><path class="cls-1" d="m426.51 9.77v9.32h-12.28v19.18c0 4.93 2.42 6.9 7.44 6.9 1.52 0 3.59-0.45 5.2-1.25v9.32c-1.79 1.43-5.47 2.15-8.61 2.15-10.4 0-15.6-5.56-15.6-14.61v-21.69h-6.1v-2.51l14.16-16.58h3.5v9.77h12.28z"/><path class="cls-1" d="m457.08 21.25c-5.47 0-9.23 2.87-9.23 11.3v22.32h-11.56v-45.1h10.94l0.09 9.77c1.97-5.92 5.65-10.49 12.1-10.49 2.06 0 4.12 0.72 5.38 2.06l-2.15 11.56c-1.52-0.9-3.59-1.43-5.56-1.43z"/><path class="cls-1" d="m472.41 9.77h11.56v45.09h-11.56z"/><path class="cls-1" d="m519.56 19.18c-6.45 0-13.98 3.32-13.98 12.55 0 9.95 7.53 14.16 15.69 14.16 3.32 0 7.17-1.08 9.77-2.78v10.22c-2.06 1.25-6.45 2.6-11.47 2.6-10.94 0-25.73-6.01-25.73-23.58 0-18.56 15.69-23.49 25.91-23.49 5.56 0 9.32 1.26 11.74 2.96l-2.69 9.95c-2.42-1.52-5.65-2.6-9.23-2.6z"/><path class="cls-1" d="m567.79 21.78c-3.41-2.42-7.62-3.32-10.85-3.32-4.66 0-6.9 1.43-6.9 3.85 0 1.79 0.81 2.69 4.21 4.03l7.17 2.87c6.54 2.6 10.13 5.83 10.13 12.37 0 9.05-7.08 14.52-18.02 14.52-5.02 0-11.03-1.25-13.9-3.94v-10.4c5.02 3.68 9.95 4.66 13.98 4.66 4.39 0 6.63-1.43 6.63-4.03 0-1.97-1.17-2.69-4.57-4.03l-7.35-2.87c-5.92-2.33-9.68-5.65-9.68-12.55 0-8.43 7.08-14.25 19.18-14.25 4.66 0 9.5 1.17 12.46 3.32l-2.51 9.77z"/></g><path class="cls-1" d="m198.07502 129.73315c0.51858 0.29897 0.92604 0.70643 1.22237 1.22237 0.29898 0.51858 0.44715 1.09008 0.44715 1.71715 0 0.62706-0.14817 1.20914-0.44715 1.72773-0.29898 0.51858-0.70643 0.92604-1.22766 1.22766-0.52123 0.30163-1.09538 0.45244-1.72244 0.45244s-1.20121-0.15081-1.72244-0.45244c-0.52123-0.30162-0.93133-0.71173-1.22766-1.22766-0.29898-0.51859-0.44715-1.09273-0.44715-1.72773s0.14817-1.20915 0.44715-1.72244c0.29897-0.51329 0.70643-0.92075 1.22237-1.21973 0.51858-0.29898 1.09273-0.44715 1.72773-0.44715s1.20915 0.14817 1.72773 0.44715zm-0.2249 5.53243c0.44979-0.25929 0.80169-0.61912 1.05834-1.07421 0.25664-0.45508 0.38629-0.96043 0.38629-1.5187s-0.12965-1.05305-0.38629-1.50548c-0.25665-0.45244-0.61119-0.80698-1.05834-1.06892-0.44979-0.25929-0.94985-0.39158-1.50018-0.39158-0.55034 0-1.05305 0.12964-1.50548 0.39158-0.45244 0.25929-0.80698 0.61648-1.06363 1.06892-0.25664 0.45243-0.38629 0.95514-0.38629 1.50548 0 0.55033 0.12965 1.06627 0.38629 1.5187 0.25665 0.45509 0.61119 0.81228 1.06363 1.07421 0.45243 0.25929 0.9525 0.39159 1.50548 0.39159 0.55297 0 1.05304-0.12965 1.50018-0.39159zm-0.34396-1.80975 0.7329 1.23296h-0.78052l-0.75406-1.28852c-0.0741-0.11906-0.15611-0.20108-0.24342-0.24871-0.0873-0.0476-0.20108-0.0714-0.33867-0.0714h-0.50006v1.60867h-0.69585v-4.01902h1.67481c0.4445 0 0.78846 0.10583 1.03187 0.31485 0.24078 0.20903 0.36248 0.50271 0.36248 0.88107 0 0.30691-0.09 0.56356-0.26723 0.76729-0.17991 0.20373-0.43127 0.33073-0.7567 0.381 0.20637 0.0556 0.38629 0.20373 0.5371 0.44185zm-0.39422-1.0795c0.12435-0.10318 0.18785-0.26458 0.18785-0.48418 0-0.23284-0.0635-0.39953-0.18785-0.50271-0.12436-0.10319-0.3228-0.15611-0.59267-0.15611h-0.89429v1.29911h0.89429c0.26987 0 0.46831-0.0529 0.59267-0.15611z" stroke-width="0px"/><text transform="scale(1.0757086 .92961978)" x="59.042439" y="152.6313" font-family="sans-serif" font-size="24.0899px" stroke-width=".602245" style="line-height:1.25" xml:space="preserve"><tspan x="59.042439" y="152.6313" fill="#1d1d1b" stroke-width=".602245">zoo</tspan></text></g><text transform="scale(1.1115334 .89965807)" x="46.026512" y="122.19077" font-family="sans-serif" font-size="35.9863px" stroke-width=".899658" style="line-height:1.25" xml:space="preserve"><tspan x="46.026512" y="122.19077" fill="#1d1d1b" stroke-width=".899658">a product of</tspan></text></g></svg>
