<?xml version="1.0" encoding="UTF-8"?>
<svg id="Capa_2" data-name="Capa 2" xmlns="http://www.w3.org/2000/svg" viewBox="0 0 140.22 140.22">
  <defs>
    <style>
      .cls-1 {
        fill: #eb5d40;
      }

      .cls-1, .cls-2 {
        stroke-width: 0px;
      }

      .cls-2 {
        fill: #fdc300;
      }
    </style>
  </defs>
  <g id="Capa_1-2" data-name="Capa 1">
    <g>
      <rect class="cls-2" width="140.22" height="140.22"/>
      <g>
        <polygon class="cls-1" points="53.46 35.58 39.48 35.58 52.36 30.14 51.68 28.53 38.94 33.9 48.72 24.12 47.48 22.88 37.59 32.77 42.86 19.81 41.23 19.15 36.02 31.97 36.02 18.13 34.26 18.13 34.26 32.12 28.83 19.23 27.21 19.92 32.59 32.66 22.81 22.88 21.57 24.12 31.45 34.01 18.5 28.74 17.84 30.37 30.65 35.58 16.82 35.58 16.82 37.33 30.8 37.33 17.92 42.77 18.6 44.39 31.35 39.01 21.57 48.79 22.81 50.03 32.7 40.14 27.43 53.1 29.06 53.76 34.26 40.95 34.26 54.78 36.02 54.78 36.02 40.79 41.46 53.68 43.07 53 37.7 40.25 47.48 50.03 48.72 48.79 38.83 38.9 51.78 44.17 52.45 42.54 39.63 37.33 53.46 37.33 53.46 35.58"/>
        <polygon class="cls-1" points="123.4 102.89 109.42 102.89 122.3 97.45 121.62 95.83 108.87 101.21 118.65 91.43 117.41 90.19 107.52 100.08 112.79 87.12 111.16 86.46 105.96 99.27 105.96 85.44 104.2 85.44 104.2 99.43 98.76 86.54 97.15 87.22 102.52 99.97 92.74 90.19 91.5 91.43 101.39 101.32 88.44 96.05 87.77 97.68 100.59 102.89 86.76 102.89 86.76 104.64 100.74 104.64 87.86 110.08 88.54 111.69 101.28 106.32 91.5 116.1 92.74 117.34 102.63 107.45 97.36 120.41 98.99 121.07 104.2 108.25 104.2 122.09 105.96 122.09 105.96 108.1 111.39 120.99 113.01 120.3 107.63 107.56 117.41 117.34 118.65 116.1 108.77 106.21 121.72 111.48 122.38 109.85 109.57 104.64 123.4 104.64 123.4 102.89"/>
        <rect class="cls-1" x="68.41" y="37.23" width="3.41" height="65.08" transform="translate(69.87 -29.14) rotate(45)"/>
      </g>
    </g>
  </g>
</svg>