<svg width="135.22145mm" height="15.113022mm" version="1.1" viewBox="0 0 135.22145 15.113022" xmlns="http://www.w3.org/2000/svg">
 <g transform="translate(-64.523094,-127)" fill="#1d1d1b">
  <g transform="matrix(.26458333 0 0 .26458333 38.364583 127)" stroke-width="0px">
   <path class="cls-1" d="m274.3 9.77h11.21l0.09 7.35c2.24-5.11 6.72-8.07 12.37-8.07 6.28 0 10.85 3.05 12.91 8.25 2.69-5.2 7.35-8.25 13.36-8.25 8.88 0 14.16 6.19 14.16 15.6v30.21h-11.56v-27.43c0-5.11-2.33-8.16-6.81-8.16-5.11 0-7.89 3.14-7.89 9.77v25.82h-11.56v-27.43c0-5.11-2.33-8.16-6.81-8.16-5.11 0-7.89 3.14-7.89 9.77v25.82h-11.56v-45.09z"/>
   <path class="cls-1" d="m374.34 56.03c-17.75 0-26.62-10.04-26.62-23.85 0-12.64 8.25-23.58 22.86-23.58 12.73 0 20.17 10.4 20.17 22.5 0 1.61-0.09 3.85-0.36 5.29h-30.66c1.43 6.36 6.54 9.86 15.87 9.86 5.02 0 10.13-1.52 13.09-3.68v10.13c-3.23 2.15-9.5 3.32-14.34 3.32zm-4.21-37.74c-5.83 0-9.59 3.85-10.58 10.04h19.9c-0.72-6.1-4.12-10.04-9.32-10.04z"/>
   <path class="cls-1" d="m426.51 9.77v9.32h-12.28v19.18c0 4.93 2.42 6.9 7.44 6.9 1.52 0 3.59-0.45 5.2-1.25v9.32c-1.79 1.43-5.47 2.15-8.61 2.15-10.4 0-15.6-5.56-15.6-14.61v-21.69h-6.1v-2.51l14.16-16.58h3.5v9.77h12.28z"/>
   <path class="cls-1" d="m457.08 21.25c-5.47 0-9.23 2.87-9.23 11.3v22.32h-11.56v-45.1h10.94l0.09 9.77c1.97-5.92 5.65-10.49 12.1-10.49 2.06 0 4.12 0.72 5.38 2.06l-2.15 11.56c-1.52-0.9-3.59-1.43-5.56-1.43z"/>
   <path class="cls-1" d="m472.41 9.77h11.56v45.09h-11.56z"/>
   <path class="cls-1" d="m519.56 19.18c-6.45 0-13.98 3.32-13.98 12.55 0 9.95 7.53 14.16 15.69 14.16 3.32 0 7.17-1.08 9.77-2.78v10.22c-2.06 1.25-6.45 2.6-11.47 2.6-10.94 0-25.73-6.01-25.73-23.58 0-18.56 15.69-23.49 25.91-23.49 5.56 0 9.32 1.26 11.74 2.96l-2.69 9.95c-2.42-1.52-5.65-2.6-9.23-2.6z"/>
   <path class="cls-1" d="m567.79 21.78c-3.41-2.42-7.62-3.32-10.85-3.32-4.66 0-6.9 1.43-6.9 3.85 0 1.79 0.81 2.69 4.21 4.03l7.17 2.87c6.54 2.6 10.13 5.83 10.13 12.37 0 9.05-7.08 14.52-18.02 14.52-5.02 0-11.03-1.25-13.9-3.94v-10.4c5.02 3.68 9.95 4.66 13.98 4.66 4.39 0 6.63-1.43 6.63-4.03 0-1.97-1.17-2.69-4.57-4.03l-7.35-2.87c-5.92-2.33-9.68-5.65-9.68-12.55 0-8.43 7.08-14.25 19.18-14.25 4.66 0 9.5 1.17 12.46 3.32l-2.51 9.77z"/>
  </g>
  <path class="cls-1" d="m198.07502 129.73315c0.51858 0.29897 0.92604 0.70643 1.22237 1.22237 0.29898 0.51858 0.44715 1.09008 0.44715 1.71715 0 0.62706-0.14817 1.20914-0.44715 1.72773-0.29898 0.51858-0.70643 0.92604-1.22766 1.22766-0.52123 0.30163-1.09538 0.45244-1.72244 0.45244s-1.20121-0.15081-1.72244-0.45244c-0.52123-0.30162-0.93133-0.71173-1.22766-1.22766-0.29898-0.51859-0.44715-1.09273-0.44715-1.72773s0.14817-1.20915 0.44715-1.72244c0.29897-0.51329 0.70643-0.92075 1.22237-1.21973 0.51858-0.29898 1.09273-0.44715 1.72773-0.44715s1.20915 0.14817 1.72773 0.44715zm-0.2249 5.53243c0.44979-0.25929 0.80169-0.61912 1.05834-1.07421 0.25664-0.45508 0.38629-0.96043 0.38629-1.5187s-0.12965-1.05305-0.38629-1.50548c-0.25665-0.45244-0.61119-0.80698-1.05834-1.06892-0.44979-0.25929-0.94985-0.39158-1.50018-0.39158-0.55034 0-1.05305 0.12964-1.50548 0.39158-0.45244 0.25929-0.80698 0.61648-1.06363 1.06892-0.25664 0.45243-0.38629 0.95514-0.38629 1.50548 0 0.55033 0.12965 1.06627 0.38629 1.5187 0.25665 0.45509 0.61119 0.81228 1.06363 1.07421 0.45243 0.25929 0.9525 0.39159 1.50548 0.39159 0.55297 0 1.05304-0.12965 1.50018-0.39159zm-0.34396-1.80975 0.7329 1.23296h-0.78052l-0.75406-1.28852c-0.0741-0.11906-0.15611-0.20108-0.24342-0.24871-0.0873-0.0476-0.20108-0.0714-0.33867-0.0714h-0.50006v1.60867h-0.69585v-4.01902h1.67481c0.4445 0 0.78846 0.10583 1.03187 0.31485 0.24078 0.20903 0.36248 0.50271 0.36248 0.88107 0 0.30691-0.09 0.56356-0.26723 0.76729-0.17991 0.20373-0.43127 0.33073-0.7567 0.381 0.20637 0.0556 0.38629 0.20373 0.5371 0.44185zm-0.39422-1.0795c0.12435-0.10318 0.18785-0.26458 0.18785-0.48418 0-0.23284-0.0635-0.39953-0.18785-0.50271-0.12436-0.10319-0.3228-0.15611-0.59267-0.15611h-0.89429v1.29911h0.89429c0.26987 0 0.46831-0.0529 0.59267-0.15611z" stroke-width="0px"/>
  <text transform="scale(1.0757086 .92961978)" x="59.042439" y="152.6313" font-family="sans-serif" font-size="24.0899px" stroke-width=".602245" style="line-height:1.25" xml:space="preserve"><tspan x="59.042439" y="152.6313" fill="#1d1d1b" stroke-width=".602245">zoo</tspan></text>
 </g>
</svg>
